<?xml version="1.0" standalone="no"?>
<!DOCTYPE svg PUBLIC "-//W3C//DTD SVG 1.1//EN" "http://www.w3.org/Graphics/SVG/1.1/DTD/svg11.dtd" >
<svg xmlns="http://www.w3.org/2000/svg" xmlns:xlink="http://www.w3.org/1999/xlink" version="1.1">
<metadata>
Created by FontForge 20161116 at Thu Jan  8 11:10:16 2015
 By Jimmy Wärting
Copyright (c) 2013 Monotype Imaging Inc. All rights reserved.
</metadata>
<defs>
<font id="NeueHaasGroteskDispW04-55Rm" horiz-adv-x="500" >
  <font-face 
    font-family="NeueHaasGroteskDispW04-55Rm"
    font-weight="450"
    font-stretch="normal"
    units-per-em="1000"
    panose-1="2 11 5 4 2 2 2 2 2 4"
    ascent="800"
    descent="-200"
    x-height="517"
    cap-height="715"
    bbox="-178 -228.003 1129 916"
    underline-thickness="50"
    underline-position="-125"
    unicode-range="U+000D-FB04"
  />
<missing-glyph 
 />
    <glyph glyph-name="uniFB00" unicode="ff" horiz-adv-x="540" 
d="M22 517h71v77c0 44.667 12 76 36 94s57.667 27 101 27c8 0 15.167 -0.166992 21.5 -0.5s12.166 -0.833008 17.499 -1.5v-69c-6 0.666992 -10.667 1 -14 1h-11c-25.333 0 -43.333 -3.83301 -54 -11.5s-16 -22.167 -16 -43.5v-73h165v83c0 44.667 12 76 36 94
s57.667 27 101 27c8.66699 0 16.334 -0.166992 23.001 -0.5s12.667 -0.833008 18 -1.5v-69c-7.33301 0.666992 -12.5 1 -15.5 1h-10.5c-26 0 -44.333 -3.83301 -55 -11.5s-16 -22.167 -16 -43.5v-79h96v-66h-96v-451h-81v451h-165v-451h-81v451h-71v66z" />
    <glyph glyph-name="uniFB01" unicode="fi" horiz-adv-x="475" 
d="M22 517h70.999v83c0 44.667 12 76 36 94s57.667 27 101 27c8.66699 0 16.334 -0.166992 23.001 -0.5s12.667 -0.833008 18 -1.5v-69c-7.33301 0.666992 -12.5 1 -15.5 1h-10.5c-26 0 -44.333 -3.83301 -55 -11.5s-16 -22.167 -16 -43.5v-79h96v-66h-96v-451h-81v451h-71
v66zM338.999 517h81v-517h-81v517zM338.999 715h81v-100h-81v100z" />
    <glyph glyph-name="uniFB02" unicode="fl" horiz-adv-x="481" 
d="M342 715h81v-715h-81v715zM22 517h70.999v83c0 44.667 12 76 36 94s57.667 27 101 27c8.66699 0 16.334 -0.166992 23.001 -0.5s12.667 -0.833008 18 -1.5v-69c-7.33301 0.666992 -12.5 1 -15.5 1h-10.5c-26 0 -44.333 -3.83301 -55 -11.5s-16 -22.167 -16 -43.5v-79h96
v-66h-96v-451h-81v451h-71v66z" />
    <glyph glyph-name="uniFB03" unicode="ffi" horiz-adv-x="721" 
d="M585 517h81v-517h-81v517zM585 715h81v-100h-81v100zM22 517h71v77c0 44.667 12 76 36 94s57.667 27 101 27c8 0 15.167 -0.166992 21.5 -0.5s12.166 -0.833008 17.499 -1.5v-69c-6 0.666992 -10.667 1 -14 1h-11c-25.333 0 -43.333 -3.83301 -54 -11.5
s-16 -22.167 -16 -43.5v-73h165v83c0 44.667 12 76 36 94s57.667 27 101 27c8.66699 0 16.334 -0.166992 23.001 -0.5s12.667 -0.833008 18 -1.5v-69c-7.33301 0.666992 -12.5 1 -15.5 1h-10.5c-26 0 -44.333 -3.83301 -55 -11.5s-16 -22.167 -16 -43.5v-79h96v-66h-96v-451
h-81v451h-165v-451h-81v451h-71v66z" />
    <glyph glyph-name="uniFB04" unicode="ffl" horiz-adv-x="727" 
d="M588 715h81v-715h-81v715zM22 517h71v77c0 44.667 12 76 36 94s57.667 27 101 27c8 0 15.167 -0.166992 21.5 -0.5s12.166 -0.833008 17.499 -1.5v-69c-6 0.666992 -10.667 1 -14 1h-11c-25.333 0 -43.333 -3.83301 -54 -11.5s-16 -22.167 -16 -43.5v-73h165v83
c0 44.667 12 76 36 94s57.667 27 101 27c8.66699 0 16.334 -0.166992 23.001 -0.5s12.667 -0.833008 18 -1.5v-69c-7.33301 0.666992 -12.5 1 -15.5 1h-10.5c-26 0 -44.333 -3.83301 -55 -11.5s-16 -22.167 -16 -43.5v-79h96v-66h-96v-451h-81v451h-165v-451h-81v451h-71v66
z" />
    <glyph glyph-name=".notdef" 
 />
    <glyph glyph-name="glyph1" horiz-adv-x="0" 
 />
    <glyph glyph-name="glyph1" horiz-adv-x="0" 
 />
    <glyph glyph-name="uni000D" unicode="&#xd;" horiz-adv-x="159" 
 />
    <glyph glyph-name="space" unicode=" " horiz-adv-x="159" 
 />
    <glyph glyph-name="exclam" unicode="!" horiz-adv-x="235" 
d="M73 486v229h89v-229l-22 -313h-45zM69 99h97v-99h-97v99z" />
    <glyph glyph-name="quotedbl" unicode="&#x22;" horiz-adv-x="297" 
d="M181 715h74v-214h-74v214zM42 715h74v-214h-74v214z" />
    <glyph glyph-name="numbersign" unicode="#" horiz-adv-x="579" 
d="M74 496h101l26 190h68l-26 -190h136l26 190h68l-26 -190h101l-11 -72h-100l-22 -154h100l-11 -72h-99l-27 -198h-68l27 198h-136l-27 -198h-68l27 198h-102l11 72h101l22 154h-102zM211 270h136l22 154h-136z" />
    <glyph glyph-name="dollar" unicode="$" horiz-adv-x="579" 
d="M263 0c-43.333 2.66699 -80.332 10.8291 -110.999 24.4961s-55.834 31 -75.501 52s-34.334 44.833 -44.001 71.5s-15.167 54.334 -16.5 83.001h84c4.66699 -48 19.5 -85.833 44.5 -113.5s64.5 -44.167 118.5 -49.5v259c-30.667 6.66699 -59.167 14.334 -85.5 23.001
s-49 19.834 -68 33.501s-34 31 -45 52s-16.5 47.5 -16.5 79.5c0 28 5.16699 53.167 15.5 75.5s25 41.5 44 57.5s41.667 28.667 68 38s55.5 14.666 87.5 15.999v55h56v-55c67.333 -5.33301 118 -23.666 152 -54.999s54.667 -74 62 -128h-81
c-9.33301 68 -53.666 106.667 -132.999 116v-241c32.667 -6.66699 63 -14.167 91 -22.5s52.333 -19.666 73 -33.999s36.834 -32.5 48.501 -54.5s17.5 -50 17.5 -84c0 -30 -5.83301 -57 -17.5 -81s-27.834 -44.5 -48.501 -61.5s-45 -30.333 -73 -40s-58.333 -15.5 -91 -17.5
v-84h-56v85zM467.001 195.995c0 18.667 -3.16699 34.1689 -9.5 46.502s-15.833 23 -28.5 32s-28.167 16.5 -46.5 22.5s-39.5 11.667 -63.5 17v-247c20 1.33301 39 5.16602 57 11.499s33.667 15 47 26s24 24.167 32 39.5s12 32.666 12 51.999zM127.001 518.997
c0 -32 11 -56.332 33 -72.999s56.333 -30.334 103 -41.001v231c-40.667 -3.33301 -73.5 -14.833 -98.5 -34.5s-37.5 -47.167 -37.5 -82.5z" />
    <glyph glyph-name="percent" unicode="%" horiz-adv-x="813" 
d="M186 305c-24 0 -46 4.66797 -66 14.001s-37 22.666 -51 39.999s-25 38.166 -33 62.499s-12 51.5 -12 81.5c0 30.667 4.16699 58.167 12.5 82.5s19.666 45 33.999 62s31.333 30.167 51 39.5s41.167 14 64.5 14c22.667 0 43.834 -4.5 63.501 -13.5s36.667 -22 51 -39
s25.5 -37.833 33.5 -62.5s12 -52.334 12 -83.001c0 -30 -3.83301 -57.167 -11.5 -81.5s-18.5 -45.166 -32.5 -62.499s-30.833 -30.666 -50.5 -39.999s-41.5 -14 -65.5 -14zM629 -14.999c-24 0 -46 4.66797 -66 14.001s-37 22.666 -51 39.999s-25 38.166 -33 62.499
s-12 51.5 -12 81.5c0 30.667 4.16699 58.167 12.5 82.5s19.666 45 33.999 62s31.333 30.167 51 39.5s41.167 14 64.5 14c22.667 0 43.834 -4.5 63.501 -13.5s36.667 -22 51 -39s25.5 -37.833 33.5 -62.5s12 -52.334 12 -83.001c0 -30 -3.83301 -57.167 -11.5 -81.5
s-18.5 -45.166 -32.5 -62.499s-30.833 -30.666 -50.5 -39.999s-41.5 -14 -65.5 -14zM569 685.002h68l-393 -685h-68zM186 365.002c28.667 0 50.167 13 64.5 39s21.5 59 21.5 99c0 19.333 -1.83301 37.5 -5.5 54.5s-9.16699 31.667 -16.5 44s-16.333 22 -27 29
s-23 10.5 -37 10.5c-28 0 -49.333 -13 -64 -39s-22 -59 -22 -99c0 -19.333 1.83301 -37.5 5.5 -54.5s9.16699 -31.667 16.5 -44s16.333 -22 27 -29s23 -10.5 37 -10.5zM629 45.002c28.667 0 50.167 13 64.5 39s21.5 59 21.5 99c0 19.333 -1.83301 37.5 -5.5 54.5
s-9.16699 31.667 -16.5 44s-16.333 22 -27 29s-23 10.5 -37 10.5c-28 0 -49.333 -13 -64 -39s-22 -59 -22 -99c0 -19.333 1.83301 -37.5 5.5 -54.5s9.16699 -31.667 16.5 -44s16.333 -22 27 -29s23 -10.5 37 -10.5z" />
    <glyph glyph-name="ampersand" unicode="&#x26;" horiz-adv-x="587" 
d="M244 -14c-26 0 -51.335 4.5 -76.002 13.5s-46.5 21.667 -65.5 38s-34.333 36.333 -46 60s-17.5 50.167 -17.5 79.5c0 26.667 3.83301 50.167 11.5 70.5s18.334 39 32.001 56s30 32.5 49 46.5s39.833 28 62.5 42l-20 26c-20.667 26.667 -35 51.334 -43 74.001
s-12 47 -12 73c0 20 4 38.833 12 56.5s18.833 32.834 32.5 45.501s29.834 22.667 48.501 30s39 11 61 11c20 0 39.167 -3 57.5 -9s34.833 -15.333 49.5 -28s26.334 -28.334 35.001 -47.001s13 -40.334 13 -65.001c0 -22 -3.66699 -41.5 -11 -58.5s-17 -32.667 -29 -47
s-26 -27.5 -42 -39.5s-32.333 -23.333 -49 -34l142 -181c7.33301 19.333 13.166 40 17.499 62s6.5 45.333 6.5 70h70c0 -34 -3.83301 -67.5 -11.5 -100.5s-19.167 -63.833 -34.5 -92.5l108 -138h-97l-56 72c-24 -26 -52.5 -46.833 -85.5 -62.5s-70.5 -23.5 -112.5 -23.5z
M248.998 57c30 0 57.498 6.33203 82.498 18.999s47.167 30.334 66.5 53.001l-164 211c-16 -10.667 -31 -21.5 -45 -32.5s-26.167 -22.833 -36.5 -35.5s-18.333 -26.667 -24 -42s-8.5 -33 -8.5 -53c0 -18 3.33301 -34.333 10 -49s15.834 -27.167 27.501 -37.5
s25.334 -18.5 41.001 -24.5s32.5 -9 50.5 -9zM194.996 563.999c0 -20 3.49902 -38.167 10.499 -54.5s18.167 -34.5 33.5 -54.5l19 -25c31.333 20 54.5 39.833 69.5 59.5s22.5 43.5 22.5 71.5c0 24.667 -7 44.167 -21 58.5s-32.667 21.5 -56 21.5s-42.166 -7 -56.499 -21
s-21.5 -32.667 -21.5 -56z" />
    <glyph glyph-name="quotesingle" unicode="'" horiz-adv-x="158" 
d="M42 715h74v-214h-74v214z" />
    <glyph glyph-name="parenleft" unicode="(" horiz-adv-x="304" 
d="M217 -118c-20.667 31.333 -39.834 63.668 -57.501 97.001s-33 68.5 -46 105.5s-23.333 76.167 -31 117.5s-11.5 85.666 -11.5 132.999c0 43.333 4 84.666 12 123.999s18.833 76.333 32.5 111s29.167 67.334 46.5 98.001s35.666 59.334 54.999 86.001h66
c-33.333 -56.667 -61.166 -120 -83.499 -190s-33.5 -146.333 -33.5 -229c0 -44 2.5 -86 7.5 -126s12.5 -78.5 22.5 -115.5s22.333 -72.833 37 -107.5s31.334 -69.334 50.001 -104.001h-66v0z" />
    <glyph glyph-name="parenright" unicode=")" horiz-adv-x="304" 
d="M22 -118c18.667 34.667 35.3311 69.332 49.998 103.999s27 70.5 37 107.5s17.5 75.5 22.5 115.5s7.5 82 7.5 126c0 82.667 -11.167 159 -33.5 229s-50.166 133.333 -83.499 190h66c18.667 -26.667 36.834 -55.334 54.501 -86.001s33.334 -63.334 47.001 -98.001
s24.5 -71.667 32.5 -111s12 -80.666 12 -123.999c0 -47.333 -3.83301 -91.666 -11.5 -132.999s-18 -80.5 -31 -117.5s-28.333 -72.167 -46 -105.5s-36.834 -65.666 -57.501 -96.999h-66v0z" />
    <glyph glyph-name="asterisk" unicode="*" horiz-adv-x="368" 
d="M79 471l60 87l-95 33l18 46l95 -31v109h54v-109l95 31l18 -46l-95 -33l60 -87l-43 -30l-62 92l-62 -92z" />
    <glyph glyph-name="plus" unicode="+" horiz-adv-x="560" 
d="M53 358h194v200h66v-200h194v-64h-194v-200h-66v200h-194v64z" />
    <glyph glyph-name="comma" unicode="," horiz-adv-x="185" 
d="M45 -83c11.333 4 21.668 11.834 31.001 23.501s14 31.5 14 59.5h-46v99h97v-102c0 -36.667 -8.83301 -65.334 -26.5 -86.001s-40.834 -33.667 -69.501 -39v45z" />
    <glyph glyph-name="hyphen" unicode="-" horiz-adv-x="344" 
d="M38 313h268v-74h-268v74z" />
    <glyph glyph-name="period" unicode="." horiz-adv-x="185" 
d="M44 99h97v-99h-97v99z" />
    <glyph glyph-name="slash" unicode="/" horiz-adv-x="400" 
d="M300 715h84l-284 -715h-84z" />
    <glyph glyph-name="zero" unicode="0" horiz-adv-x="620" 
d="M310 -15c-42 0 -79.501 8.50098 -112.501 25.501s-60.833 41 -83.5 72s-40 68.5 -52 112.5s-18 93.333 -18 148c0 55.333 6.33301 105.166 19 149.499s30.667 82 54 113s51.333 54.667 84 71s69.334 24.5 110.001 24.5s77.334 -8.16699 110.001 -24.5
s60.5 -39.833 83.5 -70.5s40.667 -68.167 53 -112.5s18.5 -94.5 18.5 -150.5c0 -54.667 -5.83301 -104 -17.5 -148s-28.834 -81.5 -51.501 -112.5s-50.5 -55 -83.5 -72s-70.833 -25.5 -113.5 -25.5zM310.999 58.001c60.667 0 105.501 25.332 134.501 75.999
s43.5 120.334 43.5 209.001c0 43.333 -3.66699 82.666 -11 117.999s-18.5 65.5 -33.5 90.5s-33.5 44.167 -55.5 57.5s-48 20 -78 20c-60.667 0 -105.834 -25.5 -135.501 -76.5s-44.5 -120.833 -44.5 -209.5c0 -43.333 3.66699 -82.666 11 -117.999s18.5 -65.333 33.5 -90
s33.833 -43.667 56.5 -57s49 -20 79 -20z" />
    <glyph glyph-name="one" unicode="1" horiz-adv-x="346" 
d="M184 499l-150 0.000976562v56c20.667 0.666992 40.667 3.16699 60 7.5s36.5 11.666 51.5 21.999s27.5 24 37.5 41s16.667 38.167 20 63.5h65v-689h-84v499z" />
    <glyph glyph-name="two" unicode="2" horiz-adv-x="556" 
d="M31 0c2 46 10.8281 85.1689 26.4951 117.502s35.667 60.5 60 84.5s51.333 45.167 81 63.5s59.5 36.166 89.5 53.499c22.667 12.667 42.834 24.834 60.501 36.501s32.834 24 45.501 37s22.334 27.167 29.001 42.5s10 33.333 10 54c0 42 -13.333 76 -40 102s-63 39 -109 39
c-24 0 -45 -3.83301 -63 -11.5s-33.333 -18.167 -46 -31.5c-13.333 -14.667 -23.166 -32.334 -29.499 -53.001s-9.5 -48.667 -9.5 -84h-88c0 44 5.5 80.667 16.5 110s27.167 54.666 48.5 75.999c22 21.333 48.333 37.333 79 48s63.667 16 99 16
c34.667 0 66.167 -5.16699 94.5 -15.5s52.5 -24.833 72.5 -43.5s35.333 -40.834 46 -66.501s16 -53.834 16 -84.501c0 -33.333 -5.33301 -61.5 -16 -84.5s-25 -43.167 -43 -60.5s-39.167 -33.166 -63.5 -47.499s-50.166 -29.166 -77.499 -44.499
c-18.667 -10 -38 -21.167 -58 -33.5s-38.833 -25.666 -56.5 -39.999s-33.167 -29.833 -46.5 -46.5s-22.333 -34.334 -27 -53.001h374v-80h-475v0z" />
    <glyph glyph-name="three" unicode="3" horiz-adv-x="569" 
d="M291 -15c-38 0 -73.3301 5.16504 -105.997 15.498s-61.334 25.833 -86.001 46.5s-44.167 45.834 -58.5 75.501s-21.833 64.167 -22.5 103.5h83c1.33301 -55.333 18.666 -97.666 51.999 -126.999s78.333 -44 135 -44c47.333 0 86.166 11.833 116.499 35.5
s45.5 59.834 45.5 108.501c0 44 -15.5 77.167 -46.5 99.5s-75.5 33.5 -133.5 33.5h-43v65h42c54 0 94.333 10.5 121 31.5s40 49.833 40 86.5c0 18.667 -4 35.5 -12 50.5s-18.667 27.667 -32 38s-29 18.166 -47 23.499s-37.333 8 -58 8c-50 0 -88.833 -14.5 -116.5 -43.5
s-41.5 -67.5 -41.5 -115.5h-82c0 34 5.66699 64.833 17 92.5s27.5 51.334 48.5 71.001s46.333 34.834 76 45.501s63.5 16 101.5 16c32 0 61.833 -4.16699 89.5 -12.5s51.667 -20.5 72 -36.5s36.5 -35.667 48.5 -59s18 -50 18 -80c0 -38.667 -10.5 -69.5 -31.5 -92.5
s-48.167 -40.167 -81.5 -51.5v-3c48 -12.667 83 -33.834 105 -63.501s33 -66.834 33 -111.501c0 -32.667 -6.33301 -61.834 -19 -87.501s-30 -47.167 -52 -64.5s-48 -30.666 -78 -39.999s-62.333 -14 -97 -14z" />
    <glyph glyph-name="four" unicode="4" horiz-adv-x="566" 
d="M349 168h-323v75l339 449h66v-457h113v-67h-113v-168h-82v168zM107 235h242v321h-2l-240 -318v-3z" />
    <glyph glyph-name="five" unicode="5" horiz-adv-x="553" 
d="M275 -15c-35.333 0 -68.1689 5.16699 -98.502 15.5s-56.5 24.833 -78.5 43.5s-39.667 41 -53 67s-20.666 55 -21.999 87h83c5.33301 -42.667 22.5 -76.5 51.5 -101.5s67.833 -37.5 116.5 -37.5c49.333 0 88.5 15.167 117.5 45.5s43.5 70.5 43.5 120.5
c0 26 -4.16699 49 -12.5 69s-19.833 37 -34.5 51s-31.667 24.667 -51 32s-40.333 11 -63 11c-37.333 0 -68.666 -6.66699 -93.999 -20s-45.333 -30.333 -60 -51h-81l76 368h365v-75h-306l-45 -206h2c19.333 18.667 42 33 68 43s55.667 15 89 15c30.667 0 60 -5.33301 88 -16
s52.667 -26.167 74 -46.5s38.5 -45.333 51.5 -75s19.5 -63.5 19.5 -101.5c0 -36.667 -6.16699 -69.667 -18.5 -99s-29.5 -54.333 -51.5 -75s-48 -36.5 -78 -47.5s-62.667 -16.5 -98 -16.5z" />
    <glyph glyph-name="six" unicode="6" horiz-adv-x="581" 
d="M312 -15c-38 0 -70.8311 5.33203 -98.498 15.999s-51.834 25.667 -72.501 45c-36.667 33.333 -62 74.166 -76 122.499s-21 107.833 -21 178.5c0 53.333 5.66699 101.666 17 144.999s28.166 80.5 50.499 111.5s50 55 83 72s71.167 25.5 114.5 25.5
c34 0 64 -5.33301 90 -16s47.833 -24.667 65.5 -42s31.5 -37.5 41.5 -60.5s16.333 -46.833 19 -71.5h-83c-1.33301 16 -5.33301 31.333 -12 46s-15.5 27.334 -26.5 38.001s-24.167 19.167 -39.5 25.5s-33 9.5 -53 9.5c-33.333 0 -61.666 -6.5 -84.999 -19.5
s-42.166 -31.5 -56.499 -55.5s-25 -53 -32 -87s-10.833 -72 -11.5 -114h2c22 30.667 48.5 54.167 79.5 70.5s67.167 24.5 108.5 24.5c31.333 0 60.666 -6 87.999 -18s51.166 -28.5 71.499 -49.5s36.5 -45.5 48.5 -73.5s18 -57.667 18 -89
c0 -32 -5.83301 -62.167 -17.5 -90.5s-28 -53.166 -49 -74.499s-45.5 -38.166 -73.5 -50.499s-58 -18.5 -90 -18.5zM310.002 52.999c22 0 42.499 4 61.499 12s35.333 19.167 49 33.5s24.334 31.5 32.001 51.5s11.5 42 11.5 66s-4 46.167 -12 66.5s-19 37.666 -33 51.999
s-30.667 25.5 -50 33.5s-40 12 -62 12c-24.667 0 -47.167 -3.83301 -67.5 -11.5s-37.833 -18.667 -52.5 -33s-26 -31.5 -34 -51.5s-12 -42.333 -12 -67c0 -24 4.33301 -46.167 13 -66.5s20.5 -37.666 35.5 -51.999s32.833 -25.5 53.5 -33.5s43 -12 67 -12z" />
    <glyph glyph-name="seven" unicode="7" horiz-adv-x="513" 
d="M120 0c4 60 14.332 119.501 30.999 178.501s38 115.167 64 168.5s56 102.333 90 147s70.333 82.667 109 114v2h-391v75h479v-69c-35.333 -30.667 -69.666 -67.334 -102.999 -110.001s-63.5 -90.167 -90.5 -142.5s-49.333 -109 -67 -170s-28.167 -125.5 -31.5 -193.5h-90
v0z" />
    <glyph glyph-name="eight" unicode="8" horiz-adv-x="584" 
d="M295 -15c-31.333 0 -62.6621 3.66895 -93.9951 11.002s-59.5 19.333 -84.5 36s-45.167 38.5 -60.5 65.5s-23 59.833 -23 98.5c0 24.667 3.66699 46.667 11 66s17.5 36.166 30.5 50.499s28 26.666 45 36.999s35.167 18.5 54.5 24.5v3c-32 12 -57.833 30.333 -77.5 55
s-29.5 55 -29.5 91c0 27.333 5.83301 52 17.5 74s27.667 40.833 48 56.5s44.166 27.667 71.499 36s56.666 12.5 87.999 12.5s60.666 -4.16699 87.999 -12.5s51.166 -20.333 71.499 -36s36.333 -34.5 48 -56.5s17.5 -46.667 17.5 -74c0 -36 -9.5 -66.167 -28.5 -90.5
s-44.5 -42.833 -76.5 -55.5v-3c19.333 -6 37.5 -14.167 54.5 -24.5s31.667 -23 44 -38s22.166 -32.167 29.499 -51.5s11 -40.666 11 -63.999c0 -39.333 -7.5 -72.333 -22.5 -99s-34.5 -48.334 -58.5 -65.001s-51.333 -28.667 -82 -36s-61.667 -11 -93 -11zM295.004 55.002
c54 0 96.167 12.501 126.5 37.501s45.5 59.5 45.5 103.5c0 45.333 -15.333 81 -46 107s-73.667 39 -129 39c-54 0 -96.333 -13 -127 -39s-46 -61.667 -46 -107c0 -44.667 15.5 -79.334 46.5 -104.001s74.167 -37 129.5 -37zM292.004 408.003c44 0 78.833 9.83301 104.5 29.5
s38.5 47.167 38.5 82.5s-12.833 62.833 -38.5 82.5s-60.5 29.5 -104.5 29.5s-78.833 -9.83301 -104.5 -29.5s-38.5 -47.167 -38.5 -82.5s12.833 -62.833 38.5 -82.5s60.5 -29.5 104.5 -29.5z" />
    <glyph glyph-name="nine" unicode="9" horiz-adv-x="581" 
d="M284 -15c-34 0 -65.168 4.83496 -93.501 14.502s-52.833 23.167 -73.5 40.5s-37.167 38.5 -49.5 63.5s-19.166 52.5 -20.499 82.5h85c3.33301 -38 17.666 -69.167 42.999 -93.5s61 -36.5 107 -36.5c26 0 48.5 3.66699 67.5 11s35.167 18.666 48.5 33.999
c20.667 22 35.5 51.833 44.5 89.5s14.5 82.167 16.5 133.5h-2c-22 -28 -48.667 -49.5 -80 -64.5s-67.666 -22.5 -108.999 -22.5c-31.333 0 -60.833 6 -88.5 18s-51.834 28.5 -72.501 49.5s-37 45.5 -49 73.5s-18 57.667 -18 89c0 32 5.83301 62.167 17.5 90.5
s28.334 53.166 50.001 74.499s47.167 38.166 76.5 50.499s61.333 18.5 96 18.5c34 0 64 -4.66699 90 -14s48.667 -21.666 68 -36.999c39.333 -30 66.333 -70.167 81 -120.5s22 -113.833 22 -190.5c0 -70 -7.5 -129.833 -22.5 -179.5s-39.5 -89.5 -73.5 -119.5
c-42 -36.667 -95.667 -55 -161 -55zM278.999 306.002c26 0 49.3311 4 69.998 12s38.167 19.167 52.5 33.5s25.5 31.666 33.5 51.999s12 42.5 12 66.5s-4.33301 46 -13 66s-20.667 37.167 -36 51.5s-33.166 25.5 -53.499 33.5s-41.833 12 -64.5 12
c-24 0 -45.833 -4 -65.5 -12s-36.667 -19.167 -51 -33.5s-25.5 -31.5 -33.5 -51.5s-12 -42 -12 -66s4.16699 -46.167 12.5 -66.5s19.833 -37.666 34.5 -51.999s31.834 -25.5 51.501 -33.5s40.5 -12 62.5 -12z" />
    <glyph glyph-name="colon" unicode=":" horiz-adv-x="191" 
d="M47 402h97v-99h-97v99zM47 99h97v-99h-97v99z" />
    <glyph glyph-name="semicolon" unicode=";" horiz-adv-x="191" 
d="M48 -83c11.333 4 21.668 11.834 31.001 23.501s14 31.5 14 59.5h-46v99h97v-102c0 -36.667 -8.83301 -65.334 -26.5 -86.001s-40.834 -33.667 -69.501 -39v45zM47.002 402.001h97v-99h-97v99z" />
    <glyph glyph-name="less" unicode="&#x3c;" horiz-adv-x="511" 
d="M50 270v83l407 173v-73l-343 -139v-2l343 -141v-74z" />
    <glyph glyph-name="equal" unicode="=" horiz-adv-x="560" 
d="M53 433h454v-64h-454v64zM53 258h454v-64h-454v64z" />
    <glyph glyph-name="greater" unicode="&#x3e;" horiz-adv-x="511" 
d="M54 170l343 139v2l-343 141v74l407 -173v-83l-407 -173v73z" />
    <glyph glyph-name="question" unicode="?" horiz-adv-x="504" 
d="M200 173c0 27.333 2.00488 51.4941 6.00488 72.4941s10.167 40.167 18.5 57.5s19 33.833 32 49.5s29.167 31.834 48.5 48.501c10.667 10 21.167 19.5 31.5 28.5s19.166 18.667 26.499 29s13.333 21.833 18 34.5s7 27 7 43s-2.83301 31.167 -8.5 45.5
s-14.334 27 -26.001 38s-25.834 19.833 -42.501 26.5s-36 10 -58 10c-26 0 -48.5 -4.16699 -67.5 -12.5s-34.667 -20 -47 -35s-21.833 -33 -28.5 -54s-10.334 -44.167 -11.001 -69.5h-82c0.666992 34 5.66699 65.833 15 95.5s23.666 55.334 42.999 77.001
s43.833 38.834 73.5 51.501s65.5 19 107.5 19c35.333 0 66.5 -5 93.5 -15s49.833 -23.667 68.5 -41s32.667 -37.666 42 -60.999s14 -48 14 -74c0 -20.667 -2.66699 -39.167 -8 -55.5s-12.166 -31.166 -20.499 -44.499s-18 -25.5 -29 -36.5s-22.5 -21.5 -34.5 -31.5
c-20.667 -17.333 -37.834 -32.5 -51.501 -45.5s-24.5 -26.333 -32.5 -40s-13.667 -29.167 -17 -46.5s-5 -38.666 -5 -63.999h-76zM189.005 98.9941h97v-99h-97v99z" />
    <glyph glyph-name="at" unicode="@" horiz-adv-x="880" 
d="M404 79c-26.667 0 -50.5 4.66113 -71.5 13.9941s-38.833 22.333 -53.5 39s-26 36.667 -34 60s-12 49 -12 77c0 38.667 5.16699 73.5 15.5 104.5s24.833 57.5 43.5 79.5s40.334 38.833 65.001 50.5s51.667 17.5 81 17.5c30.667 0 56.167 -6.83301 76.5 -20.5
s35.833 -30.5 46.5 -50.5h2l8 61h78l-34 -278c-7.33301 -55.333 11 -83 55 -83c13.333 0 26.5 3.66699 39.5 11s24.5 19 34.5 35s18.167 36.5 24.5 61.5s9.5 54.833 9.5 89.5c0 51.333 -8.33301 96 -25 134s-39.5 69.5 -68.5 94.5s-63.167 43.667 -102.5 56
s-81.333 18.5 -126 18.5c-46.667 0 -91.334 -8.33301 -134.001 -25s-80.167 -40.667 -112.5 -72s-58 -69.666 -77 -114.999s-28.5 -96.666 -28.5 -153.999c0 -47.333 7.33301 -91 22 -131s36.167 -74.667 64.5 -104s63.166 -52.166 104.499 -68.499s89 -24.5 143 -24.5
c34.667 0 67.167 3 97.5 9s59.833 14.667 88.5 26l23 -55c-62 -27.333 -130 -41 -204 -41c-60.667 0 -116.167 9.33301 -166.5 28s-93.5 45 -129.5 79s-64 75 -84 123s-30 101.333 -30 160c0 68.667 12.167 129.5 36.5 182.5s56.5 97.667 96.5 134s85.5 64 136.5 83
s103.167 28.5 156.5 28.5c48.667 0 96.334 -7.66699 143.001 -23s88.167 -38.166 124.5 -68.499s65.5 -68.166 87.5 -113.499s33 -97.666 33 -156.999c0 -38 -3.83301 -73.333 -11.5 -106s-19 -60.667 -34 -84s-33.833 -41.666 -56.5 -54.999s-49.334 -20 -80.001 -20
c-31.333 0 -56.5 6.66699 -75.5 20s-32.167 30.666 -39.5 51.999h-2c-15.333 -23.333 -35.666 -42.333 -60.999 -57s-53 -22 -83 -22zM412 140.994c23.333 0 43.501 5.00195 60.501 15.002s31.167 23.5 42.5 40.5s19.666 37.167 24.999 60.5s8 48.333 8 75
c0 38 -8.66699 68.5 -26 91.5s-44.666 34.5 -81.999 34.5c-22 0 -41 -5 -57 -15s-29 -23.5 -39 -40.5s-17.5 -36.833 -22.5 -59.5s-7.5 -47 -7.5 -73c0 -18 1.83301 -34.833 5.5 -50.5s9.5 -29.334 17.5 -41.001s18.167 -20.834 30.5 -27.501s27.166 -10 44.499 -10z" />
    <glyph glyph-name="A" unicode="A" horiz-adv-x="648" 
d="M273 715h101l264 -715h-98l-76 218h-285l-77 -218h-92zM205 291h234l-82 240c-3.33301 10 -6.83301 20.833 -10.5 32.5s-7.16699 22.5 -10.5 32.5c-3.33301 12 -7 24 -11 36h-2c-4 -11.333 -7.66699 -23 -11 -35l-11 -33l-11 -33z" />
    <glyph glyph-name="B" unicode="B" horiz-adv-x="644" 
d="M67 715l303.001 -0.00292969c75.333 0 132.666 -20.667 171.999 -62c14.667 -15.333 26 -33.166 34 -53.499s12 -43.166 12 -68.499c0 -40 -10.167 -72.167 -30.5 -96.5s-48.5 -42.166 -84.5 -53.499v-3c20 -4.66699 38.833 -11.834 56.5 -21.501s33 -21.667 46 -36
s23.167 -31.166 30.5 -50.499s11 -41 11 -65c0 -28 -4.5 -53.5 -13.5 -76.5s-21.833 -43.167 -38.5 -60.5c-20 -21.333 -45.167 -38 -75.5 -50s-64.833 -18 -103.5 -18h-319v715zM382.001 80.9971c49.333 0 86.666 11.999 111.999 35.999
c10 10.667 17.833 22.834 23.5 36.501s8.5 29.167 8.5 46.5c0 44.667 -14.167 78 -42.5 100s-64.166 33 -107.499 33h-219v-252h225zM359.001 408.996c44 0 78.167 10.167 102.5 30.5s36.5 49.166 36.5 86.499c0 34.667 -11.167 61.834 -33.5 81.501s-53.5 29.5 -93.5 29.5
h-214v-228h202z" />
    <glyph glyph-name="C" unicode="C" horiz-adv-x="709" 
d="M375 -14c-50.667 0 -96.666 9.16602 -137.999 27.499s-76.5 44 -105.5 77s-51.5 72.333 -67.5 118s-24 95.5 -24 149.5c0 52.667 7.66699 101.667 23 147s37.5 84.666 66.5 117.999s64.5 59.666 106.5 78.999s89.667 29 143 29c42 0 79.667 -5.66699 113 -17
s62 -27.166 86 -47.499s43.5 -44.5 58.5 -72.5s24.833 -58.333 29.5 -91h-88c-8.66699 44.667 -30.167 80.834 -64.5 108.501s-79.833 41.5 -136.5 41.5c-39.333 0 -74.166 -7.5 -104.499 -22.5s-56 -35.667 -77 -62s-36.833 -57.5 -47.5 -93.5s-16 -75 -16 -117
c0 -44 5.83301 -84 17.5 -120s28.167 -66.833 49.5 -92.5s47.166 -45.5 77.499 -59.5s64.166 -21 101.499 -21c34 0 63.5 5.33301 88.5 16s46 25 63 43s30.167 39 39.5 63s15 49 17 75h89c-0.666992 -36 -8.83398 -72.167 -24.501 -108.5s-36.167 -67.166 -61.5 -92.499
c-51.333 -50 -122.666 -75 -213.999 -75z" />
    <glyph glyph-name="D" unicode="D" horiz-adv-x="684" 
d="M67 715l260 -0.000976562c54 0 100.833 -8.66699 140.5 -26s72.5 -41.833 98.5 -73.5s45.5 -69.667 58.5 -114s19.5 -93.166 19.5 -146.499s-6.83301 -101.833 -20.5 -145.5s-34 -81 -61 -112s-60.667 -55 -101 -72s-87.5 -25.5 -141.5 -25.5h-253v715zM317 78.999
c42 0 77.833 6.49805 107.5 19.498s54 31.5 73 55.5s32.833 53 41.5 87s13 72 13 114s-4 80.333 -12 115s-21 64.334 -39 89.001s-41.5 43.834 -70.5 57.501s-64.5 20.5 -106.5 20.5h-167v-558h160z" />
    <glyph glyph-name="E" unicode="E" horiz-adv-x="622" 
d="M67 715h505v-79h-415v-226h377v-76h-377v-251h427v-83h-517v715z" />
    <glyph glyph-name="F" unicode="F" horiz-adv-x="578" 
d="M67 715h485v-79h-395v-223h329v-76h-329v-337h-90v715z" />
    <glyph glyph-name="G" unicode="G" horiz-adv-x="742" 
d="M601 94l-2.00098 -0.00292969c-26 -36.667 -57.833 -64 -95.5 -82s-80.167 -27 -127.5 -27c-50 0 -95.667 9.16699 -137 27.5s-76.833 43.833 -106.5 76.5s-52.5 71.667 -68.5 117s-24 95 -24 149c0 52.667 7.33301 101.834 22 147.501s36.5 85.334 65.5 119.001
s65 60.167 108 79.5s92.5 29 148.5 29c41.333 0 78.666 -5.5 111.999 -16.5s62.333 -26.5 87 -46.5s44.667 -44.167 60 -72.5s26 -59.833 32 -94.5h-93c-10 48 -31.667 85.333 -65 112s-78.333 40 -135 40c-43.333 0 -80.666 -7.66699 -111.999 -23
s-57.166 -36.166 -77.499 -62.499s-35.5 -57.666 -45.5 -93.999s-15 -75.5 -15 -117.5c0 -44 6 -83.833 18 -119.5s29 -66.334 51 -92.001s48.167 -45.5 78.5 -59.5s63.5 -21 99.5 -21c36.667 0 68.5 5.83301 95.5 17.5s49.5 27.5 67.5 47.5s31.333 43.333 40 70
s13 55 13 85v17h-215v78h305v-378h-58z" />
    <glyph glyph-name="H" unicode="H" horiz-adv-x="696" 
d="M67 715h90v-304h382v304h90v-715h-90v338h-382v-338h-90v715z" />
    <glyph glyph-name="I" unicode="I" horiz-adv-x="228" 
d="M69 715h90v-715h-90v715z" />
    <glyph glyph-name="J" unicode="J" horiz-adv-x="497" 
d="M232 -14c-32 0 -60.9971 4.50098 -86.9971 13.501s-48.167 23 -66.5 42s-32.333 43.5 -42 73.5s-14.5 65.667 -14.5 107v10h89v-7c0 -32 2.5 -58.5 7.5 -79.5s12.667 -37.833 23 -50.5s23.166 -21.667 38.499 -27s33.666 -8 54.999 -8c36 0 64 9.83301 84 29.5
s30 52.167 30 97.5v528h90v-534c0 -28.667 -4.33301 -54.834 -13 -78.501s-21.667 -44.167 -39 -61.5s-38.833 -30.833 -64.5 -40.5s-55.834 -14.5 -90.501 -14.5z" />
    <glyph glyph-name="K" unicode="K" horiz-adv-x="644" 
d="M67 715h90v-355l352 355h113l-289 -286l313 -429h-105l-269 368l-115 -115v-253h-90v715z" />
    <glyph glyph-name="L" unicode="L" horiz-adv-x="554" 
d="M67 715h90v-632h375v-83h-465v715z" />
    <glyph glyph-name="M" unicode="M" horiz-adv-x="830" 
d="M67 715l115 -0.000976562l232 -594h2l230 594h117v-715h-86v588h-2c-4 -10.667 -7.66699 -21.334 -11 -32.001c-3.33301 -9.33301 -6.83301 -19.166 -10.5 -29.499s-7.16699 -19.833 -10.5 -28.5l-196 -498h-69l-196 498c-3.33301 9.33301 -6.83301 19 -10.5 29
s-7.16699 19.667 -10.5 29c-3.33301 10.667 -7 21.334 -11 32.001h-2v-588h-81v715z" />
    <glyph glyph-name="N" unicode="N" horiz-adv-x="693" 
d="M67 715l95 0.00195312l326 -497c6 -9.33301 12 -19.333 18 -30s11.667 -20.667 17 -30c6 -10.667 11.667 -21.334 17 -32.001h2v589h84v-715h-92l-328 498c-6 8.66699 -12 18.167 -18 28.5s-11.667 20.166 -17 29.499c-6 10.667 -12 21 -18 31h-2v-587h-84v715z" />
    <glyph glyph-name="O" unicode="O" horiz-adv-x="780" 
d="M390 -15c-54 0 -102.667 9.33301 -146 28s-80 44.667 -110 78s-53.167 72.833 -69.5 118.5s-24.5 95.167 -24.5 148.5s8.16699 102.833 24.5 148.5s39.5 85.167 69.5 118.5s66.667 59.333 110 78s92 28 146 28s102.667 -9.33301 146 -28s80 -44.667 110 -78
s53.167 -72.833 69.5 -118.5s24.5 -95.167 24.5 -148.5s-8.16699 -102.833 -24.5 -148.5s-39.5 -85.167 -69.5 -118.5s-66.667 -59.333 -110 -78s-92 -28 -146 -28zM390 64c42 0 79 7.5 111 22.5s59 35.5 81 61.5s38.5 57 49.5 93s16.5 75 16.5 117s-5.5 81 -16.5 117
s-27.5 67.167 -49.5 93.5s-49 47 -81 62s-69 22.5 -111 22.5s-79 -7.5 -111 -22.5s-59 -35.667 -81 -62s-38.5 -57.5 -49.5 -93.5s-16.5 -75 -16.5 -117s5.5 -81 16.5 -117s27.5 -67 49.5 -93s49 -46.5 81 -61.5s69 -22.5 111 -22.5z" />
    <glyph glyph-name="P" unicode="P" horiz-adv-x="603" 
d="M67 715h298.002c38 0 71.167 -6 99.5 -18s51.833 -29 70.5 -51c15.333 -17.333 27.166 -37.5 35.499 -60.5s12.5 -48.167 12.5 -75.5c0 -66 -18.833 -117.5 -56.5 -154.5s-95.834 -55.5 -174.501 -55.5h-195v-300h-90v715zM157.002 373h188
c50.667 0 88.167 11.833 112.5 35.5s36.5 56.167 36.5 97.5c0 43.333 -12.5 76 -37.5 98s-60.5 33 -106.5 33h-193v-264z" />
    <glyph glyph-name="Q" unicode="Q" horiz-adv-x="780" 
d="M567 28c-51.333 -28.667 -110.333 -43 -177 -43c-54 0 -102.667 9.33301 -146 28s-80 44.667 -110 78s-53.167 72.833 -69.5 118.5s-24.5 95.167 -24.5 148.5s8.16699 102.833 24.5 148.5s39.5 85.167 69.5 118.5s66.667 59.333 110 78s92 28 146 28
s102.667 -9.33301 146 -28s80 -44.667 110 -78s53.167 -72.833 69.5 -118.5s24.5 -95.167 24.5 -148.5c0 -58.667 -9.5 -112.167 -28.5 -160.5s-46.5 -89.5 -82.5 -123.5l95 -76l-46 -58zM390 64c39.333 0 75 6.66602 107 19.999l-72 58l46 58l91 -73
c28 26.667 49.333 59.834 64 99.501s22 83.5 22 131.5c0 42 -5.5 81 -16.5 117s-27.5 67.167 -49.5 93.5s-49 47 -81 62s-69 22.5 -111 22.5s-79 -7.5 -111 -22.5s-59 -35.667 -81 -62s-38.5 -57.5 -49.5 -93.5s-16.5 -75 -16.5 -117s5.5 -81 16.5 -117s27.5 -67 49.5 -93
s49 -46.5 81 -61.5s69 -22.5 111 -22.5z" />
    <glyph glyph-name="R" unicode="R" horiz-adv-x="654" 
d="M67 715l334.002 0.00292969c31.333 0 60 -4.66699 86 -14s48.167 -22.666 66.5 -39.999s32.666 -38 42.999 -62s15.5 -50.667 15.5 -80c0 -44 -9.83301 -81 -29.5 -111s-51.167 -52 -94.5 -66v-3c18 -6.66699 33.167 -14.834 45.5 -24.501s22.5 -21.834 30.5 -36.501
s14 -31.834 18 -51.501s7 -42.834 9 -69.501c2 -28.667 4.16699 -52.334 6.5 -71.001s5 -33.667 8 -45s6 -19.833 9 -25.5s6.16699 -9.5 9.5 -11.5v-4h-97c-4 3.33301 -7.16699 7.83301 -9.5 13.5s-4.33301 14.334 -6 26.001s-3.33398 27.167 -5.00098 46.5s-3.5 44 -5.5 74
c-3.33301 52.667 -16.333 89.5 -39 110.5s-58 31.5 -106 31.5h-199v-302h-90v715zM157.002 375.003h212c50 0 87.5 11.667 112.5 35s37.5 55.333 37.5 96c0 44 -11 76.833 -33 98.5s-59.333 32.5 -112 32.5h-217v-262z" />
    <glyph glyph-name="S" unicode="S" horiz-adv-x="626" 
d="M327 -14c-50 0 -93.667 6.50488 -131 19.5049s-68.5 31 -93.5 54s-44.167 50.167 -57.5 81.5s-21 65 -23 101h88c12 -122.667 85.667 -184 221 -184c24.667 0 47.5 2.83301 68.5 8.5s39 14 54 25s26.667 25 35 42s12.5 36.5 12.5 58.5c0 24.667 -5.16699 45 -15.5 61
s-24.833 29.333 -43.5 40s-41.167 19.5 -67.5 26.5s-55.5 14.167 -87.5 21.5c-31.333 6.66699 -61.166 14.5 -89.499 23.5s-53.166 20.833 -74.499 35.5s-38.333 33.167 -51 55.5s-19 50.5 -19 84.5c0 29.333 5.83301 55.666 17.5 78.999s28.167 43.166 49.5 59.499
s47 28.833 77 37.5s63 13 99 13c44.667 0 83.167 -5.5 115.5 -16.5s59.166 -26.167 80.499 -45.5s38 -42.833 50 -70.5s20.333 -57.834 25 -90.501h-85c-6.66699 51.333 -25.834 89.666 -57.501 114.999s-73.834 38 -126.501 38c-48.667 0 -87.667 -9.83301 -117 -29.5
s-44 -48.167 -44 -85.5c0 -20 4.66699 -36.833 14 -50.5s22.333 -25.334 39 -35.001s36.5 -17.5 59.5 -23.5s47.833 -11.667 74.5 -17c34.667 -7.33301 68 -15.5 100 -24.5s60.333 -21.5 85 -37.5s44.334 -36.833 59.001 -62.5s22 -58.5 22 -98.5
c0 -33.333 -6.5 -63 -19.5 -89s-31.167 -47.833 -54.5 -65.5s-51 -31.167 -83 -40.5s-67.333 -14 -106 -14z" />
    <glyph glyph-name="T" unicode="T" horiz-adv-x="610" 
d="M22 715h566v-79h-238v-636h-90v636h-238v79z" />
    <glyph glyph-name="U" unicode="U" horiz-adv-x="658" 
d="M329 -11c-39.333 0 -75.668 4.5 -109.001 13.5s-62.166 23.167 -86.499 42.5s-43.5 44.333 -57.5 75s-21 67.667 -21 111v484h90v-475c0 -61.333 16.333 -105.666 49 -132.999s78.667 -41 138 -41c56.667 0 101 13.667 133 41s48 71.666 48 132.999v475h90v-484
c0 -43.333 -7.16699 -80.333 -21.5 -111s-33.833 -55.667 -58.5 -75s-53.667 -33.5 -87 -42.5s-69 -13.5 -107 -13.5z" />
    <glyph glyph-name="V" unicode="V" horiz-adv-x="619" 
d="M10 715l97 0.000976562l176 -532c2.66699 -8.66699 5.5 -18.334 8.5 -29.001s6.16699 -21 9.5 -31l10 -36h2l10 36c3.33301 10 6.33301 20.5 9 31.5s5.66699 20.5 9 28.5l174 532h94l-251 -715h-99z" />
    <glyph glyph-name="W" unicode="W" horiz-adv-x="914" 
d="M14 715l94.0039 -0.000976562l113 -465c3.33301 -12 6.5 -25.167 9.5 -39.5s5.83301 -27.5 8.5 -39.5c2.66699 -14 5.66699 -28 9 -42h2l10 44c3.33301 12.667 6.66602 26 9.99902 40s6.66602 27 9.99902 39l129 463h97l125 -463c3.33301 -12 6.5 -25.167 9.5 -39.5
s6.16699 -27.833 9.5 -40.5c3.33301 -14.667 6.66602 -29 9.99902 -43h2l10 44c3.33301 12.667 6.33301 25.834 9 39.501s5.66699 26.167 9 37.5l119 465h91l-199 -715h-86l-131 504c-3.33301 10.667 -6.33301 22.167 -9 34.5s-5.33398 24.166 -8.00098 35.499
c-2.66699 12.667 -5.66699 25.667 -9 39h-2c-3.33301 -13.333 -6.33301 -26.333 -9 -39c-2.66699 -11.333 -5.5 -23.166 -8.5 -35.499s-6.16699 -23.833 -9.5 -34.5l-140 -504h-90z" />
    <glyph glyph-name="X" unicode="X" horiz-adv-x="616" 
d="M262 366l-230 349h104l177 -286h2l181 286h99l-234 -350l241 -365h-108l-184 301h-2l-192 -301h-102z" />
    <glyph glyph-name="Y" unicode="Y" horiz-adv-x="631" 
d="M269 303l-259 412h100l205 -340h2l208 340h96l-262 -414v-301h-90v303z" />
    <glyph glyph-name="Z" unicode="Z" horiz-adv-x="622" 
d="M30 86l428 550v3h-403v76h514v-70l-434 -561v-3h451v-81h-556v86z" />
    <glyph glyph-name="bracketleft" unicode="[" horiz-adv-x="296" 
d="M77 754h189v-66h-105v-737h105v-69h-189v872z" />
    <glyph glyph-name="backslash" unicode="\" horiz-adv-x="400" 
d="M16 715h84l284 -715h-84z" />
    <glyph glyph-name="bracketright" unicode="]" horiz-adv-x="296" 
d="M30 -49h105v737h-105v66h189v-872h-189v69z" />
    <glyph glyph-name="asciicircum" unicode="^" horiz-adv-x="453" 
d="M179 715h95l168 -287h-85l-129 224h-2l-130 -224h-85z" />
    <glyph glyph-name="underscore" unicode="_" horiz-adv-x="408" 
d="M-2 -105h412v-61h-412v61z" />
    <glyph glyph-name="grave" unicode="`" 
d="M139 725h100l51 -127h-69z" />
    <glyph glyph-name="a" unicode="a" horiz-adv-x="510" 
d="M461 -5c-51.333 0 -81 25.666 -89 76.999h-1c-8 -10 -17.333 -19.833 -28 -29.5s-23 -18.5 -37 -26.5s-29.833 -14.333 -47.5 -19s-37.5 -7 -59.5 -7c-24.667 0 -47.667 2.83301 -69 8.5s-39.833 14.5 -55.5 26.5s-28 27 -37 45s-13.5 39.333 -13.5 64
c0 30.667 5.66699 55.667 17 75s27 35 47 47s43.833 21.167 71.5 27.5s57.5 12.166 89.5 17.499c18 2.66699 34.667 5.5 50 8.5s28.5 7 39.5 12s19.5 11.667 25.5 20s9 19.5 9 33.5c0 29.333 -10 51.833 -30 67.5s-48.667 23.5 -86 23.5c-42 0 -73.667 -9.16699 -95 -27.5
s-32.666 -47.166 -33.999 -86.499h-78c0.666992 24.667 5.33398 47.834 14.001 69.501s21.5 40.167 38.5 55.5s38.333 27.5 64 36.5s55.5 13.5 89.5 13.5c27.333 0 52.666 -2.83301 75.999 -8.5s43.5 -14.834 60.5 -27.501s30.333 -29.5 40 -50.5s14.5 -46.833 14.5 -77.5
v-246c0 -21.333 3.5 -37.166 10.5 -47.499s21.833 -12.833 44.5 -7.5h3v-59c-5.33301 -2 -11.333 -3.83301 -18 -5.5s-15.334 -2.5 -26.001 -2.5zM217 51.999c26.667 0 50 4.50195 70 13.502s36.333 20.167 49 33.5s22.167 28.166 28.5 44.499s9.5 32.166 9.5 47.499v88
c-13.333 -8.66699 -30.833 -16.167 -52.5 -22.5s-43.5 -11.5 -65.5 -15.5c-20 -4 -39 -8 -57 -12s-33.5 -9.83301 -46.5 -17.5s-23.333 -17.5 -31 -29.5s-11.5 -27.333 -11.5 -46c0 -17.333 3.16699 -31.5 9.5 -42.5s14.5 -19.5 24.5 -25.5s21.333 -10.167 34 -12.5
s25.667 -3.5 39 -3.5z" />
    <glyph glyph-name="b" unicode="b" horiz-adv-x="550" 
d="M301 -15c-35.333 0 -65.999 6.50195 -91.999 19.502s-49.667 34.167 -71 63.5h-2v-68h-81v715h81v-272h2c19.333 26.667 42.333 47.667 69 63s59 23 97 23c32.667 0 62.5 -6.16699 89.5 -18.5s50.167 -30 69.5 -53s34.333 -51.5 45 -85.5s16 -72.333 16 -115
c0 -41.333 -5 -78.833 -15 -112.5s-24.667 -62.334 -44 -86.001s-42.833 -41.834 -70.5 -54.501s-58.834 -19 -93.501 -19zM295.001 53.002c24.667 0 46.165 5.16992 64.498 15.5029s33.5 24.5 45.5 42.5s21 39.333 27 64s9 51.667 9 81c0 28.667 -3 55.5 -9 80.5
s-15 46.667 -27 65s-27 32.666 -45 42.999s-39.333 15.5 -64 15.5c-28 0 -52.5 -5.33301 -73.5 -16s-38.167 -25.334 -51.5 -44.001s-23.333 -40.334 -30 -65.001s-10 -51 -10 -79c0 -29.333 3.33301 -56.333 10 -81s16.834 -46 30.501 -64s30.834 -32.167 51.501 -42.5
s44.667 -15.5 72 -15.5z" />
    <glyph glyph-name="c" unicode="c" horiz-adv-x="519" 
d="M276 -14c-38.667 0 -73.3301 7.16992 -103.997 21.5029s-56.834 33.833 -78.501 58.5s-38.334 53.5 -50.001 86.5s-17.5 68.167 -17.5 105.5s5.83301 72.5 17.5 105.5s28.334 61.833 50.001 86.5s47.834 44.167 78.501 58.5s65.334 21.5 104.001 21.5
c61.333 0 111.166 -16.167 149.499 -48.5s62.166 -76.166 71.499 -131.499h-82c-6 35.333 -20.833 63 -44.5 83s-55.167 30 -94.5 30c-27.333 0 -51.5 -5.33301 -72.5 -16s-38.5 -25.334 -52.5 -44.001s-24.5 -40.334 -31.5 -65.001s-10.5 -51.334 -10.5 -80.001
s3.5 -55.334 10.5 -80.001s17.5 -46.167 31.5 -64.5s31.5 -32.833 52.5 -43.5s45.167 -16 72.5 -16c42 0 75.167 11.333 99.5 34s38.166 54 41.499 94h80c-5.33301 -62.667 -27.333 -111 -66 -145s-90.334 -51 -155.001 -51z" />
    <glyph glyph-name="d" unicode="d" horiz-adv-x="553" 
d="M255 -15c-35.333 0 -67.167 6.33008 -95.5 18.9971s-52.333 30.834 -72 54.501s-34.834 52.334 -45.501 86.001s-16 71.167 -16 112.5c0 42.667 5.83301 81 17.5 115s27.667 62.5 48 85.5s44.333 40.667 72 53s57.5 18.5 89.5 18.5c36.667 0 68.667 -8 96 -24
s49.333 -36.333 66 -61h2v271h81v-715h-81v63h-2c-19.333 -25.333 -41.666 -44.666 -66.999 -57.999s-56.333 -20 -93 -20zM257.999 52.9971c28.667 0 53.333 5.16602 74 15.499s37.667 24.5 51 42.5s23.166 39.333 29.499 64s9.5 51.667 9.5 81c0 30 -3.5 57.5 -10.5 82.5
s-17.5 46.5 -31.5 64.5s-31.333 32 -52 42s-44.334 15 -71.001 15c-24.667 0 -46.167 -5.16699 -64.5 -15.5s-33.666 -24.666 -45.999 -42.999s-21.666 -40 -27.999 -65s-9.5 -51.833 -9.5 -80.5c0 -29.333 3.16699 -56.333 9.5 -81s15.666 -46 27.999 -64
s27.833 -32.167 46.5 -42.5s40.334 -15.5 65.001 -15.5z" />
    <glyph glyph-name="e" unicode="e" horiz-adv-x="533" 
d="M276 -14c-39.333 0 -74.502 7.16992 -105.502 21.5029s-57.167 33.833 -78.5 58.5s-37.666 53.5 -48.999 86.5s-17 68.167 -17 105.5s5.83301 72.5 17.5 105.5s28.334 61.833 50.001 86.5s47.5 44.167 77.5 58.5s63.333 21.5 100 21.5
c38.667 0 72.834 -7.16699 102.501 -21.5s54.5 -34.333 74.5 -60s35.167 -56.334 45.5 -92.001s15.5 -74.834 15.5 -117.501h-400c1.33301 -26 6 -50.333 14 -73s19 -42.334 33 -59.001s31 -29.667 51 -39s43 -14 69 -14c38 0 69 8.83301 93 26.5s40.667 44.167 50 79.5h79
c-12 -56 -37.333 -99 -76 -129s-87.334 -45 -146.001 -45zM270.998 466.003c-24 0 -45.3311 -4.16797 -63.998 -12.501s-34.5 -20 -47.5 -35s-23.667 -32.667 -32 -53s-13.833 -42.166 -16.5 -65.499h311c-2.66699 52 -16.834 92.667 -42.501 122s-61.834 44 -108.501 44z
" />
    <glyph glyph-name="f" unicode="f" horiz-adv-x="294" 
d="M22 517h70.999v83c0 44.667 12 76 36 94s57.667 27 101 27c8.66699 0 16.334 -0.166992 23.001 -0.5s12.667 -0.833008 18 -1.5v-69c-7.33301 0.666992 -12.5 1 -15.5 1h-10.5c-26 0 -44.333 -3.83301 -55 -11.5s-16 -22.167 -16 -43.5v-79h96v-66h-96v-451h-81v451h-71
v66z" />
    <glyph glyph-name="g" unicode="g" horiz-adv-x="543" 
d="M261 -172c-67.333 0 -119.5 12.668 -156.5 38.001s-57.833 60.333 -62.5 105h75c4 -28.667 18.667 -49 44 -61s58 -18 98 -18c48 0 84.667 10.833 110 32.5s38 55.167 38 100.5v73h-2c-19.333 -24.667 -40.333 -44.167 -63 -58.5s-52.667 -21.5 -90 -21.5
c-33.333 0 -63.833 6.33301 -91.5 19s-51.5 30.334 -71.5 53.001s-35.5 49.667 -46.5 81s-16.5 65.666 -16.5 102.999c0 40 5.83301 75.833 17.5 107.5s27.667 58.5 48 80.5s43.833 38.667 70.5 50s55 17 85 17c38 0 69.5 -6.83301 94.5 -20.5s46.167 -32.834 63.5 -57.501
h2v66h81v-489c0 -34 -5.33301 -63.5 -16 -88.5s-26 -45.833 -46 -62.5s-44 -29 -72 -37s-59 -12 -93 -12zM256 86.001c30 0 55 4.83398 75 14.501s36 23.167 48 40.5s20.667 37.666 26 60.999s8 48.666 8 75.999c0 56.667 -12.5 101.334 -37.5 134.001s-65.167 49 -120.5 49
c-48.667 0 -85.167 -17.333 -109.5 -52s-36.5 -80 -36.5 -136c0 -56.667 12.5 -102 37.5 -136s61.5 -51 109.5 -51z" />
    <glyph glyph-name="h" unicode="h" horiz-adv-x="528" 
d="M136 449h2.00098c18.667 24.667 41.167 44.167 67.5 58.5s58.5 21.5 96.5 21.5c54 0 96.5 -14.167 127.5 -42.5s46.5 -69.5 46.5 -123.5v-363h-81v356c0 34 -10.333 60 -31 78s-49.334 27 -86.001 27c-20.667 0 -39.667 -3.5 -57 -10.5s-32.333 -16.667 -45 -29
s-22.5 -27.333 -29.5 -45s-10.5 -37.167 -10.5 -58.5v-318h-81v715h81v-266z" />
    <glyph glyph-name="i" unicode="i" horiz-adv-x="191" 
d="M55 517h81v-517h-81v517zM55 715h81v-100h-81v100z" />
    <glyph glyph-name="j" unicode="j" horiz-adv-x="191" 
d="M17 -147c-9.33301 0 -17.5 0.333008 -24.5 1s-13.833 1.66699 -20.5 3v66h2c10 -2 19.333 -3 28 -3c35.333 0 53 16.667 53 50v547h81v-551c0 -24 -3.16699 -43.333 -9.5 -58s-14.833 -26.167 -25.5 -34.5s-23.167 -13.833 -37.5 -16.5s-29.833 -4 -46.5 -4zM55 715h81
v-100h-81v100z" />
    <glyph glyph-name="k" unicode="k" horiz-adv-x="489" 
d="M212 279l-76 -72v-207h-81v715h81v-419l227 221h103l-198 -186l222 -331h-95z" />
    <glyph glyph-name="l" unicode="l" horiz-adv-x="197" 
d="M58 715h81v-715h-81v715z" />
    <glyph glyph-name="m" unicode="m" horiz-adv-x="794" 
d="M55 517h81.002v-74h2c16 25.333 37.167 46 63.5 62s55.833 24 88.5 24c32 0 59.667 -7.83301 83 -23.5s40.666 -38.5 51.999 -68.5h2c16.667 30 39.167 52.833 67.5 68.5s58.5 23.5 90.5 23.5c46 0 83.667 -14.167 113 -42.5s44 -69.5 44 -123.5v-363h-81v359
c0 32 -9.33301 57 -28 75s-41 27 -67 27c-16.667 0 -32.667 -3.5 -48 -10.5s-28.833 -16.667 -40.5 -29s-21 -27 -28 -44s-10.5 -35.5 -10.5 -55.5v-322h-81v359c0 32 -8.16699 57 -24.5 75s-37.833 27 -64.5 27c-16 0 -31.833 -3.5 -47.5 -10.5
s-29.834 -16.667 -42.501 -29s-23 -27 -31 -44s-12 -35.5 -12 -55.5v-322h-81v517z" />
    <glyph glyph-name="n" unicode="n" horiz-adv-x="528" 
d="M136 449h2.00098c18.667 24.667 41.167 44.167 67.5 58.5s58.5 21.5 96.5 21.5c54 0 96.5 -14.167 127.5 -42.5s46.5 -69.5 46.5 -123.5v-363h-81v356c0 34 -10.333 60 -31 78s-49.334 27 -86.001 27c-20.667 0 -39.667 -3.5 -57 -10.5s-32.333 -16.667 -45 -29
s-22.5 -27.333 -29.5 -45s-10.5 -37.167 -10.5 -58.5v-318h-81v517h81v-68z" />
    <glyph glyph-name="o" unicode="o" horiz-adv-x="551" 
d="M276 -14c-38.667 0 -73.334 7.16699 -104.001 21.5s-56.834 33.833 -78.501 58.5s-38.334 53.5 -50.001 86.5s-17.5 68.167 -17.5 105.5s5.83301 72.5 17.5 105.5s28.334 61.833 50.001 86.5s47.834 44.167 78.501 58.5s65.334 21.5 104.001 21.5
s73.334 -7.16699 104.001 -21.5s56.834 -33.833 78.501 -58.5s38.167 -53.5 49.5 -86.5s17 -68.167 17 -105.5s-5.66699 -72.5 -17 -105.5s-27.833 -61.833 -49.5 -86.5s-47.834 -44.167 -78.501 -58.5s-65.334 -21.5 -104.001 -21.5zM276 54c27.333 0 51.333 5.33301 72 16
s38 25.167 52 43.5s24.5 39.833 31.5 64.5s10.5 51.334 10.5 80.001s-3.5 55.334 -10.5 80.001s-17.5 46.334 -31.5 65.001s-31.333 33.334 -52 44.001s-44.667 16 -72 16s-51.5 -5.33301 -72.5 -16s-38.5 -25.334 -52.5 -44.001s-24.5 -40.334 -31.5 -65.001
s-10.5 -51.334 -10.5 -80.001s3.5 -55.334 10.5 -80.001s17.5 -46.167 31.5 -64.5s31.5 -32.833 52.5 -43.5s45.167 -16 72.5 -16z" />
    <glyph glyph-name="p" unicode="p" horiz-adv-x="552" 
d="M55 517l81 0.00195312v-73h2c19.333 26.667 42.333 47.5 69 62.5s59 22.5 97 22.5c32.667 0 62.667 -6.16699 90 -18.5s50.666 -30 69.999 -53s34.5 -51.5 45.5 -85.5s16.5 -72.333 16.5 -115c0 -41.333 -5.16699 -78.833 -15.5 -112.5s-25.166 -62.334 -44.499 -86.001
s-43 -41.834 -71 -54.501s-59.333 -19 -94 -19c-35.333 0 -66 5.66699 -92 17s-49.667 31 -71 59h-2v-227h-81v683zM295 53.002c24.667 0 46.332 5.16992 64.999 15.5029s34.167 24.5 46.5 42.5s21.5 39.333 27.5 64s9 51.667 9 81c0 28.667 -3 55.5 -9 80.5
s-15.167 46.667 -27.5 65s-27.666 32.666 -45.999 42.999s-39.833 15.5 -64.5 15.5c-28 0 -52.5 -5.33301 -73.5 -16s-38.167 -25.334 -51.5 -44.001s-23.333 -40.334 -30 -65.001s-10 -51 -10 -79s3 -54.333 9 -79s15.5 -46.167 28.5 -64.5s29.833 -32.833 50.5 -43.5
s46 -16 76 -16z" />
    <glyph glyph-name="q" unicode="q" horiz-adv-x="552" 
d="M416 63l-2.00098 -0.00390625c-19.333 -25.333 -41.5 -44.666 -66.5 -57.999s-56.167 -20 -93.5 -20c-35.333 0 -66.833 6.33301 -94.5 19s-51.167 30.834 -70.5 54.501s-34.166 52.334 -44.499 86.001s-15.5 71.167 -15.5 112.5c0 42.667 5.66699 81 17 115
s27 62.5 47 85.5s43.5 40.667 70.5 53s56.167 18.5 87.5 18.5c38 0 70.167 -7.16699 96.5 -21.5s48.5 -34.166 66.5 -59.499h2v69h81v-683h-81v229zM257.999 52.9961c30 0 55.334 5.16602 76.001 15.499s37.5 24.5 50.5 42.5s22.333 39.333 28 64s8.5 51.667 8.5 81
c0 30 -3.16699 57.5 -9.5 82.5s-16.333 46.5 -30 64.5s-30.834 32 -51.501 42s-45 15 -73 15c-24.667 0 -46 -5.16699 -64 -15.5s-33 -24.666 -45 -42.999s-21 -40 -27 -65s-9 -51.833 -9 -80.5c0 -29.333 3 -56.333 9 -81s15 -46 27 -64s27.167 -32.167 45.5 -42.5
s39.833 -15.5 64.5 -15.5z" />
    <glyph glyph-name="r" unicode="r" horiz-adv-x="343" 
d="M136 431l2.00098 -0.000976562c15.333 25.333 36.166 47 62.499 65s56.833 27 91.5 27c7.33301 0 13.333 -0.5 18 -1.5s9.66699 -2.5 15 -4.5v-78h-3c-6 2 -11.5 3.33301 -16.5 4s-11.5 1 -19.5 1c-20 0 -39 -3.66699 -57 -11s-34 -17.666 -48 -30.999
s-25 -29.833 -33 -49.5s-12 -41.5 -12 -65.5v-287h-81v517h81v-86z" />
    <glyph glyph-name="s" unicode="s" horiz-adv-x="478" 
d="M251 -15c-71.333 0 -126.336 15.833 -165.003 47.5s-60 76.834 -64 135.501h83c2.66699 -22.667 8.33398 -41.334 17.001 -56.001s19.5 -26.334 32.5 -35.001s27.833 -14.834 44.5 -18.501s34.667 -5.5 54 -5.5c42.667 0 73.334 8.16699 92.001 24.5s28 36.5 28 60.5
c0 14.667 -2.5 26.834 -7.5 36.501s-13 17.834 -24 24.501s-25 12.334 -42 17.001s-37.5 9.66699 -61.5 15c-25.333 5.33301 -49.666 11 -72.999 17s-43.833 14.5 -61.5 25.5s-31.834 25.5 -42.501 43.5s-16 41 -16 69c0 43.333 15.833 77.833 47.5 103.5
s77.834 38.5 138.501 38.5c64.667 0 113.167 -14.333 145.5 -43s51.5 -68.334 57.5 -119.001h-83c-4 34 -15.667 58.833 -35 74.5s-48.333 23.5 -87 23.5c-37.333 0 -64 -7.16699 -80 -21.5s-24 -31.833 -24 -52.5c0 -14 3 -25.5 9 -34.5s15 -16.5 27 -22.5
s26.667 -11 44 -15s37 -8.33301 59 -13c26 -5.33301 50.5 -11.166 73.5 -17.499s43.333 -15.333 61 -27s31.5 -26.834 41.5 -45.501s15 -43 15 -73c0 -26 -5 -48.833 -15 -68.5s-24 -36 -42 -49s-39.5 -22.833 -64.5 -29.5s-52.5 -10 -82.5 -10z" />
    <glyph glyph-name="t" unicode="t" horiz-adv-x="307" 
d="M22 517h74.999v163h81v-163h100v-66h-100v-336c0 -18 4.5 -30.5 13.5 -37.5s21.833 -10.5 38.5 -10.5c8 0 16 0.833008 24 2.5s14.333 3.16699 19 4.5h3v-70c-9.33301 -2 -19.5 -3.66699 -30.5 -5s-22.5 -2 -34.5 -2c-33.333 0 -60.666 7.5 -81.999 22.5
s-32 40.833 -32 77.5v354h-75v66z" />
    <glyph glyph-name="u" unicode="u" horiz-adv-x="520" 
d="M384 0l-0.00195312 71h-2c-18.667 -25.333 -39.834 -45.5 -63.501 -60.5s-54.5 -22.5 -92.5 -22.5c-53.333 0 -95.666 15 -126.999 45s-47 72 -47 126v358h81v-356c0 -34 10.167 -60.167 30.5 -78.5s48.833 -27.5 85.5 -27.5c20.667 0 39.334 3.66699 56.001 11
s30.834 17.5 42.501 30.5s20.667 28.167 27 45.5s9.5 36.333 9.5 57v318h81v-517h-81z" />
    <glyph glyph-name="v" unicode="v" horiz-adv-x="461" 
d="M2 517l87.002 0.000976562l107 -328c3.33301 -11.333 7.16602 -23.5 11.499 -36.5s8.16602 -24.833 11.499 -35.5c4 -12.667 7.66699 -25 11 -37h2c3.33301 12.667 7 25.334 11 38.001c3.33301 11.333 7 23.166 11 35.499s8 24.166 12 35.499l109 328h84l-186 -517h-90z
" />
    <glyph glyph-name="w" unicode="w" horiz-adv-x="734" 
d="M4 517l87.001 0.000976562l91 -319c3.33301 -11.333 6.33301 -23.333 9 -36s5.66699 -24.667 9 -36c2.66699 -12.667 6 -25.667 10 -39h2c3.33301 13.333 6.33301 26.333 9 39c2.66699 11.333 5.33398 23.166 8.00098 35.499s5.66699 23.833 9 34.5l87 321h85l84 -321
c2.66699 -10.667 5.5 -22.167 8.5 -34.5s5.83301 -24.166 8.5 -35.499c2.66699 -12.667 5.33398 -25.667 8.00098 -39h2c3.33301 13.333 6.66602 26.333 9.99902 39c3.33301 11.333 6.5 23.333 9.5 36s6.16699 24.667 9.5 36l96 319h84l-169 -517h-83l-86 313
c-3.33301 10.667 -6.33301 22.167 -9 34.5s-5.33398 24.166 -8.00098 35.499l-8 38h-2c-3.33301 -12.667 -6.33301 -25.334 -9 -38.001c-2.66699 -11.333 -5.33398 -23.166 -8.00098 -35.499s-5.66699 -23.833 -9 -34.5l-87 -313h-84z" />
    <glyph glyph-name="x" unicode="x" horiz-adv-x="503" 
d="M201 271l-172 246h94l123 -188h2l128 188h89l-170 -237l202 -280h-95l-153 222h-2l-150 -222h-91z" />
    <glyph glyph-name="y" unicode="y" horiz-adv-x="489" 
d="M121 -171c-15.333 0 -28.5 0.669922 -39.5 2.00293s-22.167 4.33301 -33.5 9v72h4c5.33301 -3.33301 12.5 -6 21.5 -8s20.167 -3 33.5 -3c17.333 0 32 4.16699 44 12.5s23 25.166 33 50.499l20 51l-202 502h88l122 -322c4 -11.333 8 -22.833 12 -34.5
s7.66699 -22.5 11 -32.5c4 -12 8 -23.333 12 -34h2c3.33301 10.667 7 22 11 34c3.33301 10 7 20.833 11 32.5s8 23.167 12 34.5l118 322h86l-221 -559c-10.667 -26.667 -21.167 -48.334 -31.5 -65.001s-21.333 -29.834 -33 -39.501s-24 -16.167 -37 -19.5s-27.5 -5 -43.5 -5
z" />
    <glyph glyph-name="z" unicode="z" horiz-adv-x="471" 
d="M34 64l288 379v3h-271v71h384v-48l-297 -392v-3h308v-74h-412v64z" />
    <glyph glyph-name="braceleft" unicode="{" horiz-adv-x="296" 
d="M248 -118c-50 0 -88.333 12.002 -115 36.002s-40 65.667 -40 125v178c0 22 -4.66699 38.333 -14 49s-27.666 16.667 -54.999 18v67c25.333 1.33301 43.166 7.33301 53.499 18s15.5 27 15.5 49v174c0 59.333 13.333 100.5 40 123.5s65 34.5 115 34.5h18v-66h-16
c-26 0 -44.667 -6.33301 -56 -19s-17 -37.334 -17 -74.001v-179c0 -50.667 -18.667 -81.667 -56 -93v-3c37.333 -11.333 56 -42.333 56 -93v-183c0 -36.667 5.66699 -61.334 17 -74.001s30 -19 56 -19h16v-69h-18v0z" />
    <glyph glyph-name="bar" unicode="|" horiz-adv-x="224" 
d="M77 754h70v-872h-70v872z" />
    <glyph glyph-name="braceright" unicode="}" horiz-adv-x="296" 
d="M30 -49l16 -0.00292969c12.667 0 23.667 1.33301 33 4s17 7.33398 23 14.001s10.333 15.834 13 27.501s4 26.5 4 44.5v183c0 50.667 18.667 81.667 56 93v3c-37.333 11.333 -56 42.333 -56 93v179c0 36.667 -5.66699 61.834 -17 75.501s-30 20.5 -56 20.5h-16v66h18
c50 0 88.333 -12 115 -36s40 -65.667 40 -125v-174c0 -22 4.66699 -38.333 14 -49s27.666 -16.667 54.999 -18v-67c-25.333 -1.33301 -43.166 -7.33301 -53.499 -18s-15.5 -27 -15.5 -49v-178c0 -59.333 -13.333 -100.5 -40 -123.5s-65 -34.5 -115 -34.5h-18v69z" />
    <glyph glyph-name="asciitilde" unicode="~" horiz-adv-x="393" 
d="M267 272c-12 0 -23.998 2 -35.998 6s-23.667 8.66699 -35 14c-17.333 7.33301 -30.333 13 -39 17s-17.334 6 -26.001 6c-18.667 0 -28.667 -13.667 -30 -41h-65c1.33301 36 9.83301 64.333 25.5 85s37.167 31 64.5 31c14.667 0 28.334 -2.33301 41.001 -7
s24.667 -10 36 -16c13.333 -6.66699 23.666 -11.667 30.999 -15s15.333 -5 24 -5c21.333 0 32.666 13.667 33.999 41h65c-1.33301 -33.333 -8.83301 -61 -22.5 -83s-36.167 -33 -67.5 -33z" />
    <glyph glyph-name="uni00A0" unicode="&#xa0;" horiz-adv-x="159" 
 />
    <glyph glyph-name="exclamdown" unicode="&#xa1;" horiz-adv-x="235" 
d="M73 102l22 313h45l22 -313v-229h-89v229zM69 588h97v-99h-97v99z" />
    <glyph glyph-name="cent" unicode="&#xa2;" horiz-adv-x="519" 
d="M245 -12c-34 4 -64.502 13.6689 -91.502 29.002s-50 35 -69 59s-33.5 51.5 -43.5 82.5s-15 64.167 -15 99.5c0 34.667 5 67.5 15 98.5s24.5 58.5 43.5 82.5s42 43.833 69 59.5s57.5 25.5 91.5 29.5v63h56v-62c54 -4.66699 98 -22.834 132 -54.501
s55.333 -73.167 64 -124.5h-82c-5.33301 31.333 -17.666 56.666 -36.999 75.999s-45 31 -77 35v-406c34.667 4.66699 61.834 18 81.501 40s31.167 51 34.5 87h80c-5.33301 -58.667 -25 -104.667 -59 -138s-79.667 -52.333 -137 -57v-72h-56v73zM108.998 258.002
c0 -26 2.83301 -50.332 8.5 -72.999s14.167 -42.834 25.5 -60.501s25.5 -32.5 42.5 -44.5s36.833 -20 59.5 -24v404c-22.667 -4 -42.5 -11.833 -59.5 -23.5s-31.167 -26.5 -42.5 -44.5s-19.833 -38.333 -25.5 -61s-8.5 -47 -8.5 -73z" />
    <glyph glyph-name="sterling" unicode="&#xa3;" horiz-adv-x="551" 
d="M39 365l60.9971 -0.00195312c-8.66699 22 -16.167 44.5 -22.5 67.5s-9.5 47.5 -9.5 73.5c0 28 5.33301 53.833 16 77.5s26 44.167 46 61.5s44 30.833 72 40.5s59.333 14.5 94 14.5c28.667 0 56.334 -4.33301 83.001 -13s50.334 -22.167 71.001 -40.5s37.167 -42 49.5 -71
s18.833 -63.833 19.5 -104.5h-82c-0.666992 28.667 -4.66699 53.167 -12 73.5s-17.5 36.833 -30.5 49.5s-28.167 21.834 -45.5 27.501s-36 8.5 -56 8.5c-44 0 -78 -11.167 -102 -33.5s-36 -52.833 -36 -91.5c0 -23.333 3.66699 -46.5 11 -69.5s15 -46.5 23 -70.5h143v-64
h-125c2 -9.33301 3.66699 -19 5 -29s2 -20 2 -30c0 -35.333 -7.33301 -64.833 -22 -88.5s-34 -45.167 -58 -64.5l2 -2c14.667 5.33301 27.167 9.33301 37.5 12s24.166 4 41.499 4c18 0 34.333 -2.16699 49 -6.5s28.5 -9 41.5 -14s26 -9.66699 39 -14s26.833 -6.5 41.5 -6.5
c20.667 0 39.5 4.66699 56.5 14s32.833 20.666 47.5 33.999l48 -59c-21.333 -18.667 -44.5 -33.834 -69.5 -45.501s-53.5 -17.5 -85.5 -17.5c-22.667 0 -42.5 2.83301 -59.5 8.5s-33 11.667 -48 18s-30.167 12.333 -45.5 18s-32.666 8.5 -51.999 8.5
c-20 0 -38 -4.83301 -54 -14.5s-31 -19.167 -45 -28.5l-48 66c14 10.667 27.333 21.334 40 32.001s23.834 22.334 33.501 35.001s17.167 26.834 22.5 42.501s8 33.5 8 53.5c0 12.667 -1.33301 25.167 -4 37.5s-5.66699 24.5 -9 36.5h-83v64z" />
    <glyph glyph-name="currency" unicode="&#xa4;" horiz-adv-x="484" 
d="M242 212c36.667 0 64.833 13 84.5 39s29.5 58.667 29.5 98c0 19.333 -2.5 37.5 -7.5 54.5s-12.333 31.667 -22 44s-21.667 22 -36 29s-30.5 10.5 -48.5 10.5s-34.167 -3.5 -48.5 -10.5s-26.5 -16.667 -36.5 -29s-17.5 -27 -22.5 -44s-7.5 -35.167 -7.5 -54.5
c0 -39.333 10 -72 30 -98s48.333 -39 85 -39zM17.999 161l65.9951 68.002c-12 17.333 -21 36.166 -27 56.499s-9 41.5 -9 63.5c0 45.333 12 85 36 119l-66 68l43 41l64 -66c15.333 11.333 32.833 20.5 52.5 27.5s41.167 10.5 64.5 10.5s44.833 -3.5 64.5 -10.5
s37.167 -16.167 52.5 -27.5l64 66l43 -41l-66 -68c23.333 -34.667 35 -74.334 35 -119.001c0 -22 -3.16699 -43.167 -9.5 -63.5s-15.166 -38.833 -26.499 -55.5l67 -69l-43 -41l-65 66c-15.333 -11.333 -32.666 -20.166 -51.999 -26.499s-40.666 -9.5 -63.999 -9.5
s-44.666 3.16699 -63.999 9.5s-36.666 15.166 -51.999 26.499l-65 -66z" />
    <glyph glyph-name="yen" unicode="&#xa5;" horiz-adv-x="562" 
d="M61 326h166l-217 359h94l178 -317h2l178 317h90l-215 -359h168v-54h-180v-69h180v-54h-180v-149h-84v149h-180v54h180v69h-180v54z" />
    <glyph glyph-name="brokenbar" unicode="&#xa6;" horiz-adv-x="224" 
d="M77 294h70v-412h-70v412zM77 754h70v-396h-70v396z" />
    <glyph glyph-name="section" unicode="&#xa7;" horiz-adv-x="582" 
d="M301 -186c-34.667 0 -65.6631 4.83496 -92.9961 14.502s-50.333 23.167 -69 40.5s-33.167 38 -43.5 62s-15.833 50.667 -16.5 80h83c2.66699 -42 15.334 -73.333 38.001 -94s57 -31 103 -31c32 0 56.167 7 72.5 21s24.5 31.667 24.5 53
c0 13.333 -3.83301 25.666 -11.5 36.999s-19.167 22.666 -34.5 33.999s-34.166 23.5 -56.499 36.5s-48.5 28.167 -78.5 45.5c-30 16.667 -56.667 32.667 -80 48s-43.333 31 -60 47s-29.334 33 -38.001 51s-13 38.667 -13 62c0 35.333 10.333 64 31 86s48 38.667 82 50
c-12.667 14 -22.5 28.667 -29.5 44s-10.5 32.333 -10.5 51c0 22 4.5 42.167 13.5 60.5s21.667 34 38 47s36.166 23.167 59.499 30.5s49.333 11 78 11c63.333 0 111.666 -16.5 144.999 -49.5s51.666 -77.833 54.999 -134.5h-83c-2.66699 36.667 -13.667 64.5 -33 83.5
s-48 28.5 -86 28.5c-35.333 0 -61.333 -7 -78 -21s-25 -31.667 -25 -53c0 -13.333 3.5 -25.333 10.5 -36s17 -21.167 30 -31.5s29.167 -20.833 48.5 -31.5s41.333 -22.667 66 -36c28.667 -15.333 56 -30.5 82 -45.5s48.833 -31 68.5 -48s35.167 -35.667 46.5 -56
s17 -43.5 17 -69.5c0 -38 -10.333 -68.667 -31 -92s-48.334 -40.333 -83.001 -51c13.333 -14.667 24 -30 32 -46s12 -33 12 -51c0 -44 -16.333 -79.5 -49 -106.5s-77.334 -40.5 -134.001 -40.5zM303.004 348.002c-22 12 -42.666 23.665 -61.999 34.998s-37 23 -53 35
c-26.667 -7.33301 -46.5 -19.166 -59.5 -35.499s-19.5 -34.166 -19.5 -53.499c0 -14 2.5 -26.333 7.5 -37s13.167 -21.167 24.5 -31.5s26.166 -21.333 44.499 -33s41.166 -25.5 68.499 -41.5c23.333 -13.333 47 -27.166 71 -41.499s46.667 -29.5 68 -45.5
c30 8.66699 50.833 22 62.5 40s17.5 37.333 17.5 58c0 15.333 -3.33301 28.666 -10 39.999s-17 22.5 -31 33.5s-31.667 22.5 -53 34.5s-46.666 26.333 -75.999 43z" />
    <glyph glyph-name="dieresis" unicode="&#xa8;" 
d="M293 710h78v-95h-78v95zM129 710h78v-95h-78v95z" />
    <glyph glyph-name="copyright" unicode="&#xa9;" horiz-adv-x="812" 
d="M406 -17c-51.333 0 -99.333 9.33301 -144 28s-83.5 44.5 -116.5 77.5s-58.833 72.333 -77.5 118s-28 95.167 -28 148.5s9.33301 102.833 28 148.5s44.5 85.167 77.5 118.5s71.833 59.333 116.5 78s92.667 28 144 28s99.333 -9.33301 144 -28s83.5 -44.667 116.5 -78
s58.833 -72.833 77.5 -118.5s28 -95.167 28 -148.5s-9.33301 -102.833 -28 -148.5s-44.5 -85 -77.5 -118s-71.833 -58.833 -116.5 -77.5s-92.667 -28 -144 -28zM406 22c46 0 88.5 8.33301 127.5 25s72.667 39.834 101 69.501s50.666 64.834 66.999 105.501s24.5 85 24.5 133
s-8.16699 92.333 -24.5 133s-38.666 76 -66.999 106s-62 53.333 -101 70s-81.5 25 -127.5 25s-88.5 -8.33301 -127.5 -25s-72.667 -40 -101 -70s-50.666 -65.333 -66.999 -106s-24.5 -85 -24.5 -133s8.16699 -92.333 24.5 -133s38.666 -75.834 66.999 -105.501
s62 -52.834 101 -69.501s81.5 -25 127.5 -25zM409 127c-31.333 0 -59.9971 5.66992 -85.9971 17.0029s-48.167 27.166 -66.5 47.499s-32.666 44.5 -42.999 72.5s-15.5 58.667 -15.5 92c0 32.667 4.83301 63.167 14.5 91.5s23.667 53 42 74s40.5 37.333 66.5 49
s55.667 17.5 89 17.5c26.667 0 50.5 -3.83301 71.5 -11.5s39.167 -18 54.5 -31s27.666 -28.5 36.999 -46.5s15.333 -37 18 -57h-76c-4.66699 24.667 -16 44.5 -34 59.5s-42 22.5 -72 22.5c-22 0 -41.333 -4.33301 -58 -13s-30.5 -20.5 -41.5 -35.5s-19.333 -32.667 -25 -53
s-8.5 -42.5 -8.5 -66.5c0 -48.667 12 -88.334 36 -119.001s56.333 -46 97 -46c33.333 0 59.166 9.16699 77.499 27.5s29.166 41.166 32.499 68.499h74c-0.666992 -20.667 -5.33398 -41 -14.001 -61s-20.667 -37.333 -36 -52s-34 -26.167 -56 -34.5s-48 -12.5 -78 -12.5z" />
    <glyph glyph-name="ordfeminine" unicode="&#xaa;" horiz-adv-x="480" 
d="M213 287c24 0 44.333 3.66504 61 10.998s30.5 16.833 41.5 28.5s19 24.334 24 38.001s7.5 27.167 7.5 40.5v69c-11.333 -6 -26.5 -11.5 -45.5 -16.5s-38.167 -8.83301 -57.5 -11.5s-36.666 -5.66699 -51.999 -9s-28.333 -8.16602 -39 -14.499s-18.667 -14.5 -24 -24.5
s-8 -22.667 -8 -38c0 -14.667 2.66699 -26.667 8 -36s12.166 -16.833 20.499 -22.5s18 -9.5 29 -11.5s22.5 -3 34.5 -3zM345 300.998c-6.66699 -9.33301 -14.498 -18.498 -23.498 -27.498s-19.333 -16.833 -31 -23.5s-25 -12 -40 -16s-32.167 -6 -51.5 -6
c-22 0 -42.5 2.66699 -61.5 8s-35.833 13.5 -50.5 24.5s-26.167 24.667 -34.5 41s-12.5 35.166 -12.5 56.499c0 26.667 5.16699 48.5 15.5 65.5s24.5 30.833 42.5 41.5s39.333 18.667 64 24s51.334 9.33301 80.001 12c34 3.33301 59.833 9 77.5 17s26.5 24.333 26.5 49
c0 50.667 -32 76 -96 76c-36.667 0 -64.167 -8 -82.5 -24s-28.833 -40 -31.5 -72h-74c1.33301 21.333 6.16602 41.333 14.499 60s20.166 35 35.499 49s34.5 25 57.5 33s49.5 12 79.5 12c24 0 46.333 -2.5 67 -7.5s38.5 -13 53.5 -24s26.667 -25.833 35 -44.5
s12.5 -41.334 12.5 -68.001v-213c0 -15.333 2.16699 -27.666 6.5 -36.999s13.166 -14 26.499 -14c4.66699 0 10.334 0.666992 17.001 2h3v-56c-4.66699 -1.33301 -10.334 -2.83301 -17.001 -4.5s-14.667 -2.5 -24 -2.5c-28 0 -47.833 6.16699 -59.5 18.5
s-19.167 29.166 -22.5 50.499h-2z" />
    <glyph glyph-name="guillemotleft" unicode="&#xab;" horiz-adv-x="424" 
d="M237 228v87l137 115v-79l-93 -78v-2l93 -79v-79zM50 228v87l137 115v-79l-93 -78v-2l93 -79v-79z" />
    <glyph glyph-name="logicalnot" unicode="&#xac;" horiz-adv-x="560" 
d="M63 398h414v-254h-66v190h-348v64z" />
    <glyph glyph-name="uni00AD" unicode="&#xad;" horiz-adv-x="344" 
d="M38 313h268v-74h-268v74z" />
    <glyph glyph-name="registered" unicode="&#xae;" horiz-adv-x="528" 
d="M264 244c-32.667 0 -63.5 6 -92.5 18s-54.167 28.833 -75.5 50.5s-38.333 47.167 -51 76.5s-19 61.666 -19 96.999c0 34.667 6.33301 66.834 19 96.501s29.667 55.167 51 76.5s46.5 38.166 75.5 50.499s59.833 18.5 92.5 18.5s63.5 -6.16699 92.5 -18.5
s54.167 -29.166 75.5 -50.499s38.333 -46.833 51 -76.5s19 -61.834 19 -96.501c0 -35.333 -6.33301 -67.666 -19 -96.999s-29.667 -54.833 -51 -76.5s-46.5 -38.5 -75.5 -50.5s-59.833 -18 -92.5 -18zM264 279c28.667 0 55 5.16699 79 15.5s44.667 24.666 62 42.999
s31 40.166 41 65.499s15 53 15 83s-5 57.5 -15 82.5s-23.667 46.833 -41 65.5s-38 33.167 -62 43.5s-50.333 15.5 -79 15.5s-55 -5.16699 -79 -15.5s-44.833 -24.833 -62.5 -43.5s-31.334 -40.5 -41.001 -65.5s-14.5 -52.5 -14.5 -82.5s4.83301 -57.667 14.5 -83
s23.334 -47.166 41.001 -65.499s38.5 -32.666 62.5 -42.999s50.333 -15.5 79 -15.5zM171 617l118.004 0.000976562c23.333 0 42.666 -6.66699 57.999 -20s23 -30.666 23 -51.999c0 -14.667 -3.83301 -27.5 -11.5 -38.5s-19.834 -18.5 -36.501 -22.5v-1
c12.667 -3.33301 22.167 -9 28.5 -17s10.166 -19.667 11.499 -35c2 -18 3.16699 -33.167 3.5 -45.5s2.83301 -19.5 7.5 -21.5v-3h-49c-3.33301 1.33301 -5.83301 8.16602 -7.5 20.499s-2.83398 25.166 -3.50098 38.499s-5 24 -13 32s-20 12 -36 12h-42v-103h-51v256z
M222.004 503.001l56 -0.00195312c14 0 24.5 3.33301 31.5 10s10.5 15.334 10.5 26.001s-3.5 19.334 -10.5 26.001s-17.5 10 -31.5 10h-56v-72z" />
    <glyph glyph-name="macron" unicode="&#xaf;" 
d="M121 689h258v-67h-258v67z" />
    <glyph glyph-name="degree" unicode="&#xb0;" horiz-adv-x="318" 
d="M159 455c-17.333 0 -33.5 3.16699 -48.5 9.5s-28.167 15.166 -39.5 26.499s-20.333 24.333 -27 39s-10 30.667 -10 48c0 16.667 3.33301 32.5 10 47.5s15.667 28.167 27 39.5s24.5 20.166 39.5 26.499s31.167 9.5 48.5 9.5s33.666 -3.16699 48.999 -9.5
s28.666 -15.166 39.999 -26.499s20.166 -24.5 26.499 -39.5s9.5 -30.833 9.5 -47.5c0 -17.333 -3.16699 -33.333 -9.5 -48s-15.166 -27.667 -26.499 -39s-24.666 -20.166 -39.999 -26.499s-31.666 -9.5 -48.999 -9.5zM159 502c21.333 0 38.333 7.16699 51 21.5
s19 32.5 19 54.5c0 21.333 -6.33301 39.333 -19 54s-29.667 22 -51 22s-38.333 -7.33301 -51 -22s-19 -32.667 -19 -54c0 -22 6.33301 -40.167 19 -54.5s29.667 -21.5 51 -21.5z" />
    <glyph glyph-name="plusminus" unicode="&#xb1;" horiz-adv-x="560" 
d="M53 378h194v180h66v-180h194v-64h-194v-180h-66v180h-194v64zM53 64h454v-64h-454v64z" />
    <glyph glyph-name="uni00B2" unicode="&#xb2;" horiz-adv-x="349" 
d="M23 304c0.666992 22.667 5.00391 43.002 13.0039 61.002s17.833 34 29.5 48s24.667 26.667 39 38s28.5 21.666 42.5 30.999c14 8.66699 27.167 17 39.5 25s23.166 16.167 32.499 24.5s16.666 17.333 21.999 27s8 21.167 8 34.5c0 22 -6.5 39.333 -19.5 52
s-30.167 19 -51.5 19c-24 0 -42.833 -7.83301 -56.5 -23.5s-20.5 -38.5 -20.5 -68.5h-68c0 50 13.333 87.667 40 113s63 38 109 38c21.333 0 40.666 -3.33301 57.999 -10s32.166 -15.834 44.499 -27.501s21.833 -25.334 28.5 -41.001s10 -32.5 10 -50.5
c0 -19.333 -3.5 -36.166 -10.5 -50.499s-16 -27 -27 -38s-23.5 -20.833 -37.5 -29.5l-42 -26c-9.33301 -5.33301 -19 -11.333 -29 -18s-19.833 -13.667 -29.5 -21s-18.167 -15 -25.5 -23s-12.333 -16.333 -15 -25h215v-59h-299v0z" />
    <glyph glyph-name="uni00B3" unicode="&#xb3;" horiz-adv-x="367" 
d="M187 295c-50 0 -89.8301 13.0029 -119.497 39.0029s-44.834 62 -45.501 108h68c1.33301 -28 9.5 -50 24.5 -66s38.167 -24 69.5 -24c25.333 0 45.666 6.16699 60.999 18.5s23 30.833 23 55.5c0 22 -7.66699 38.833 -23 50.5s-37.333 17.5 -66 17.5h-26v55h25
c24.667 0 43.834 5.16699 57.501 15.5s20.5 25.166 20.5 44.499s-6.66699 34.333 -20 45s-30.333 16 -51 16c-26 0 -45.833 -7.5 -59.5 -22.5s-21.167 -34.833 -22.5 -59.5h-68c1.33301 40.667 15.166 73.5 41.499 98.5s62.833 37.5 109.5 37.5c40.667 0 74 -10 100 -30
s39 -47.667 39 -83c0 -22.667 -6.16699 -40.834 -18.5 -54.501s-28.5 -23.834 -48.5 -30.501v-2c55.333 -13.333 83 -48 83 -104c0 -20.667 -4.16699 -38.834 -12.5 -54.501s-19.5 -28.667 -33.5 -39s-30.333 -18.166 -49 -23.499s-38.334 -8 -59.001 -8z" />
    <glyph glyph-name="acute" unicode="&#xb4;" 
d="M261 725h100l-82 -127h-69z" />
    <glyph glyph-name="mu" unicode="&#xb5;" horiz-adv-x="523" 
d="M55 517h80.998v-356c0 -34 10.167 -60.167 30.5 -78.5s48.833 -27.5 85.5 -27.5c20.667 0 39.334 3.66699 56.001 11s30.834 17.5 42.501 30.5s20.667 28.167 27 45.5s9.5 36.333 9.5 57v318h81v-517h-81v71h-2c-18.667 -25.333 -39.5 -45.5 -62.5 -60.5
s-52.5 -22.5 -88.5 -22.5c-43.333 0 -75.333 11.667 -96 35h-2v-189h-81v683z" />
    <glyph glyph-name="paragraph" unicode="&#xb6;" horiz-adv-x="549" 
d="M231 353c-66.667 0 -117 16.166 -151 48.499s-51 77.5 -51 135.5c0 26 4.5 49.833 13.5 71.5s21.5 40.834 37.5 57.501c32 32.667 80 49 144 49h258v-715h-74v637h-69v-637h-74v353h-34z" />
    <glyph glyph-name="periodcentered" unicode="&#xb7;" horiz-adv-x="185" 
d="M47 362h97v-99h-97v99z" />
    <glyph glyph-name="cedilla" unicode="&#xb8;" 
d="M228 -191c-24.667 0 -45.667 2.83398 -63 8.50098s-32 12.5 -44 20.5l16 29c10.667 -4.66699 22.167 -8.33398 34.5 -11.001s24.833 -4 37.5 -4c16.667 0 30.5 2.5 41.5 7.5s16.5 13.167 16.5 24.5c0 18.667 -12.667 28 -38 28c-9.33301 0 -17 -0.666992 -23 -2
s-12 -3 -18 -5l-16 24l71 71h56l-59 -49v-2c9.33301 1.33301 19.333 1.33301 30 0s20.667 -4.5 30 -9.5s17 -12 23 -21s9 -20.167 9 -33.5c0 -24 -9.66699 -42.667 -29 -56s-44.333 -20 -75 -20z" />
    <glyph glyph-name="uni00B9" unicode="&#xb9;" horiz-adv-x="254" 
d="M122 593h-99v49c28.667 0.666992 53.167 6.5 73.5 17.5s32.5 30.5 36.5 58.5h61v-414h-72v289z" />
    <glyph glyph-name="ordmasculine" unicode="&#xba;" horiz-adv-x="509" 
d="M255 223c-34 0 -64.5 6.33301 -91.5 19s-50 29.667 -69 51s-33.5 46.5 -43.5 75.5s-15 60.167 -15 93.5c0 32.667 5 63.667 15 93s24.5 54.666 43.5 75.999s42 38.333 69 51s57.5 19 91.5 19s64.5 -6.33301 91.5 -19s49.833 -29.667 68.5 -51s33 -46.666 43 -75.999
s15 -60.333 15 -93c0 -33.333 -5 -64.5 -15 -93.5s-24.333 -54.167 -43 -75.5s-41.5 -38.333 -68.5 -51s-57.5 -19 -91.5 -19zM255 286c23.333 0 43.666 4.5 60.999 13.5s31.666 21.333 42.999 37s19.833 34.167 25.5 55.5s8.5 44.666 8.5 69.999
c0 24.667 -2.83301 47.834 -8.5 69.501s-14.167 40.5 -25.5 56.5s-25.666 28.5 -42.999 37.5s-37.666 13.5 -60.999 13.5s-43.666 -4.5 -60.999 -13.5s-31.833 -21.5 -43.5 -37.5s-20.334 -34.833 -26.001 -56.5s-8.5 -44.834 -8.5 -69.501
c0 -25.333 2.83301 -48.666 8.5 -69.999s14.334 -39.833 26.001 -55.5s26.167 -28 43.5 -37s37.666 -13.5 60.999 -13.5z" />
    <glyph glyph-name="guillemotright" unicode="&#xbb;" horiz-adv-x="424" 
d="M237 192l93 78v2l-93 79v79l137 -115v-87l-137 -115v79zM50 192l93 78v2l-93 79v79l137 -115v-87l-137 -115v79z" />
    <glyph glyph-name="onequarter" unicode="&#xbc;" horiz-adv-x="779" 
d="M125 593h-99v49c28.667 0.666992 53.167 6.5 73.5 17.5s32.5 30.5 36.5 58.5h61v-414h-72v289zM558 715h72l-453 -715h-72zM620 94h-203v71l204 251h68v-267h65v-55h-65v-94h-69v94zM475 149h145v175h-2l-143 -173v-2z" />
    <glyph glyph-name="onehalf" unicode="&#xbd;" horiz-adv-x="804" 
d="M125 593h-99v49c28.667 0.666992 53.167 6.5 73.5 17.5s32.5 30.5 36.5 58.5h61v-414h-72v289zM546 715h72l-453 -715h-72zM475 0c0.666992 22.667 5.00391 43.002 13.0039 61.002s17.833 34 29.5 48s24.667 26.667 39 38s28.5 21.666 42.5 30.999
c14 8.66699 27.167 17 39.5 25s23.166 16.167 32.499 24.5s16.666 17.333 21.999 27s8 21.167 8 34.5c0 22 -6.5 39.333 -19.5 52s-30.167 19 -51.5 19c-24 0 -42.833 -7.83301 -56.5 -23.5s-20.5 -38.5 -20.5 -68.5h-68c0 50 13.333 87.667 40 113s63 38 109 38
c21.333 0 40.666 -3.33301 57.999 -10s32.166 -15.834 44.499 -27.501s21.833 -25.334 28.5 -41.001s10 -32.5 10 -50.5c0 -19.333 -3.5 -36.166 -10.5 -50.499s-16 -27 -27 -38s-23.5 -20.833 -37.5 -29.5l-42 -26c-9.33301 -5.33301 -19 -11.333 -29 -18
s-19.833 -13.667 -29.5 -21s-18.167 -15 -25.5 -23s-12.333 -16.333 -15 -25h215v-59h-299z" />
    <glyph glyph-name="threequarters" unicode="&#xbe;" horiz-adv-x="845" 
d="M190 295c-50 0 -89.8301 13.0029 -119.497 39.0029s-44.834 62 -45.501 108h68c1.33301 -28 9.5 -50 24.5 -66s38.167 -24 69.5 -24c25.333 0 45.666 6.16699 60.999 18.5s23 30.833 23 55.5c0 22 -7.66699 38.833 -23 50.5s-37.333 17.5 -66 17.5h-26v55h25
c24.667 0 43.834 5.16699 57.501 15.5s20.5 25.166 20.5 44.499s-6.66699 34.333 -20 45s-30.333 16 -51 16c-26 0 -45.833 -7.5 -59.5 -22.5s-21.167 -34.833 -22.5 -59.5h-68c1.33301 40.667 15.166 73.5 41.499 98.5s62.833 37.5 109.5 37.5c40.667 0 74 -10 100 -30
s39 -47.667 39 -83c0 -22.667 -6.16699 -40.834 -18.5 -54.501s-28.5 -23.834 -48.5 -30.501v-2c55.333 -13.333 83 -48 83 -104c0 -20.667 -4.16699 -38.834 -12.5 -54.501s-19.5 -28.667 -33.5 -39s-30.333 -18.166 -49 -23.499s-38.334 -8 -59.001 -8zM635.003 715.003
h72l-453 -715h-72zM686.003 94.0029h-203v71l204 251h68v-267h65v-55h-65v-94h-69v94zM541.003 149.003h145v175h-2l-143 -173v-2z" />
    <glyph glyph-name="questiondown" unicode="&#xbf;" horiz-adv-x="504" 
d="M248 -140c-35.333 0 -66.5039 5.00684 -93.5039 15.0068s-49.833 23.667 -68.5 41s-32.667 37.666 -42 60.999s-14 48 -14 74c0 20.667 2.66699 39.167 8 55.5s12.166 31.166 20.499 44.499s18 25.5 29 36.5s22.5 21.5 34.5 31.5c20.667 17.333 37.834 32.5 51.501 45.5
s24.5 26.333 32.5 40s13.667 29.167 17 46.5s5 38.666 5 63.999h76c0 -27.333 -2 -51.5 -6 -72.5s-10.167 -40.167 -18.5 -57.5s-19.166 -33.833 -32.499 -49.5s-29.333 -31.834 -48 -48.501c-11.333 -10 -22 -19.5 -32 -28.5s-18.667 -18.667 -26 -29
s-13.333 -21.833 -18 -34.5s-7 -27 -7 -43s2.83301 -31.333 8.5 -46s14.334 -27.5 26.001 -38.5s25.834 -19.667 42.501 -26s36 -9.5 58 -9.5c51.333 0 89.5 15.667 114.5 47s38.167 72.666 39.5 123.999h82c-0.666992 -34 -5.66699 -65.833 -15 -95.5
s-23.666 -55.334 -42.999 -77.001s-43.833 -38.834 -73.5 -51.501s-65.5 -19 -107.5 -19zM217.996 588.007h97v-99h-97v99z" />
    <glyph glyph-name="Agrave" unicode="&#xc0;" horiz-adv-x="648" 
d="M273 715h101l264 -715h-98l-76 218h-285l-77 -218h-92zM205 291h234l-82 240c-3.33301 10 -6.83301 20.833 -10.5 32.5s-7.16699 22.5 -10.5 32.5c-3.33301 12 -7 24 -11 36h-2c-4 -11.333 -7.66699 -23 -11 -35l-11 -33l-11 -33zM218 874h100l51 -121h-69z" />
    <glyph glyph-name="Aacute" unicode="&#xc1;" horiz-adv-x="648" 
d="M273 715h101l264 -715h-98l-76 218h-285l-77 -218h-92zM205 291h234l-82 240c-3.33301 10 -6.83301 20.833 -10.5 32.5s-7.16699 22.5 -10.5 32.5c-3.33301 12 -7 24 -11 36h-2c-4 -11.333 -7.66699 -23 -11 -35l-11 -33l-11 -33zM340 874h100l-82 -121h-69z" />
    <glyph glyph-name="Acircumflex" unicode="&#xc2;" horiz-adv-x="648" 
d="M273 715h101l264 -715h-98l-76 218h-285l-77 -218h-92zM205 291h234l-82 240c-3.33301 10 -6.83301 20.833 -10.5 32.5s-7.16699 22.5 -10.5 32.5c-3.33301 12 -7 24 -11 36h-2c-4 -11.333 -7.66699 -23 -11 -35l-11 -33l-11 -33zM282 863h92l89 -106h-87l-49 63h-2
l-51 -63h-85z" />
    <glyph glyph-name="Atilde" unicode="&#xc3;" horiz-adv-x="648" 
d="M273 715h101l264 -715h-98l-76 218h-285l-77 -218h-92zM205 291h234l-82 240c-3.33301 10 -6.83301 20.833 -10.5 32.5s-7.16699 22.5 -10.5 32.5c-3.33301 12 -7 24 -11 36h-2c-4 -11.333 -7.66699 -23 -11 -35l-11 -33l-11 -33zM390 760
c-12 0 -23.666 1.66602 -34.999 4.99902s-22.166 7 -32.499 11s-20 7.66699 -29 11s-16.833 5 -23.5 5c-7.33301 0 -12.833 -2.66699 -16.5 -8s-5.83398 -12.666 -6.50098 -21.999h-60c2.66699 28.667 10.334 51.167 23.001 67.5s30.667 24.5 54 24.5
c13.333 0 25.166 -1.66699 35.499 -5s20 -7 29 -11s17.667 -7.66699 26 -11s17.166 -5 26.499 -5s15.833 3 19.5 9s6.16699 13 7.5 21h58c-1.33301 -25.333 -7.83301 -47 -19.5 -65s-30.5 -27 -56.5 -27z" />
    <glyph glyph-name="Adieresis" unicode="&#xc4;" horiz-adv-x="648" 
d="M273 715h101l264 -715h-98l-76 218h-285l-77 -218h-92zM205 291h234l-82 240c-3.33301 10 -6.83301 20.833 -10.5 32.5s-7.16699 22.5 -10.5 32.5c-3.33301 12 -7 24 -11 36h-2c-4 -11.333 -7.66699 -23 -11 -35l-11 -33l-11 -33zM369 855h78v-95h-78v95zM205 855h78v-95
h-78v95z" />
    <glyph glyph-name="Aring" unicode="&#xc5;" horiz-adv-x="648" 
d="M273 715h101l264 -715h-98l-76 218h-285l-77 -218h-92zM205 291h234l-82 240c-3.33301 10 -6.83301 20.833 -10.5 32.5s-7.16699 22.5 -10.5 32.5c-3.33301 12 -7 24 -11 36h-2c-4 -11.333 -7.66699 -23 -11 -35l-11 -33l-11 -33zM326 746c-12 0 -23.333 2.16699 -34 6.5
s-19.834 10.333 -27.501 18s-13.834 16.667 -18.501 27s-7 21.5 -7 33.5s2.33301 23.167 7 33.5s10.834 19.333 18.501 27s16.834 13.667 27.501 18s22 6.5 34 6.5s23.333 -2.16699 34 -6.5s19.834 -10.333 27.501 -18s13.834 -16.667 18.501 -27s7 -21.5 7 -33.5
s-2.33301 -23.167 -7 -33.5s-10.834 -19.333 -18.501 -27s-16.834 -13.667 -27.501 -18s-22 -6.5 -34 -6.5zM326 781c14 0 25.333 4.83301 34 14.5s13 21.5 13 35.5s-4.33301 25.833 -13 35.5s-20 14.5 -34 14.5s-25.333 -4.83301 -34 -14.5s-13 -21.5 -13 -35.5
s4.33301 -25.833 13 -35.5s20 -14.5 34 -14.5z" />
    <glyph glyph-name="AE" unicode="&#xc6;" horiz-adv-x="946" 
d="M896 636h-371v-226h333v-76h-333v-251h383v-83h-473v218h-253l-77 -218h-91l260 715h622v-79zM208 291h227v345h-104z" />
    <glyph glyph-name="Ccedilla" unicode="&#xc7;" horiz-adv-x="709" 
d="M347 -191c-24.667 0 -45.665 2.83301 -62.998 8.5s-32 12.5 -44 20.5l16 29c10.667 -4.66699 22.167 -8.33398 34.5 -11.001s24.833 -4 37.5 -4c16.667 0 30.5 2.5 41.5 7.5s16.5 13.167 16.5 24.5c0 18.667 -12.667 28 -38 28c-9.33301 0 -17 -0.666992 -23 -2
s-12 -3 -18 -5l-16 24l58 58c-47.333 3.33301 -90 14.833 -128 34.5s-70.333 45.667 -97 78s-47.334 70.5 -62.001 114.5s-22 92 -22 144c0 52.667 7.66699 101.667 23 147s37.5 84.666 66.5 117.999s64.5 59.666 106.5 78.999s89.667 29 143 29
c42 0 79.667 -5.66699 113 -17s62 -27.166 86 -47.499s43.5 -44.5 58.5 -72.5s24.833 -58.333 29.5 -91h-88c-8.66699 44.667 -30.167 80.834 -64.5 108.501s-79.833 41.5 -136.5 41.5c-39.333 0 -74.166 -7.5 -104.499 -22.5s-56 -35.667 -77 -62
s-36.833 -57.5 -47.5 -93.5s-16 -75 -16 -117c0 -44 5.83301 -84 17.5 -120s28.167 -66.833 49.5 -92.5s47.166 -45.5 77.499 -59.5s64.166 -21 101.499 -21c34 0 63.5 5.33301 88.5 16s46 25 63 43s30.167 39 39.5 63s15 49 17 75h89
c-0.666992 -36 -8.83398 -72.167 -24.501 -108.5s-36.167 -67.166 -61.5 -92.499c-22.667 -22 -49.667 -39.333 -81 -52s-66.666 -20 -105.999 -22l-43 -36v-2c9.33301 1.33301 19.333 1.33301 30 0s20.667 -4.5 30 -9.5s17 -12 23 -21s9 -20.167 9 -33.5
c0 -24 -9.66699 -42.667 -29 -56s-44.333 -20 -75 -20z" />
    <glyph glyph-name="Egrave" unicode="&#xc8;" horiz-adv-x="622" 
d="M67 715h505v-79h-415v-226h377v-76h-377v-251h427v-83h-517v715zM223 874h100l51 -121h-69z" />
    <glyph glyph-name="Eacute" unicode="&#xc9;" horiz-adv-x="622" 
d="M67 715h505v-79h-415v-226h377v-76h-377v-251h427v-83h-517v715zM345 874h100l-82 -121h-69z" />
    <glyph glyph-name="Ecircumflex" unicode="&#xca;" horiz-adv-x="622" 
d="M67 715h505v-79h-415v-226h377v-76h-377v-251h427v-83h-517v715zM287 863h92l89 -106h-87l-49 63h-2l-51 -63h-85z" />
    <glyph glyph-name="Edieresis" unicode="&#xcb;" horiz-adv-x="622" 
d="M67 715h505v-79h-415v-226h377v-76h-377v-251h427v-83h-517v715zM374 855h78v-95h-78v95zM210 855h78v-95h-78v95z" />
    <glyph glyph-name="Igrave" unicode="&#xcc;" horiz-adv-x="228" 
d="M69 715h90v-715h-90v715zM6 874h100l51 -121h-69z" />
    <glyph glyph-name="Iacute" unicode="&#xcd;" horiz-adv-x="228" 
d="M69 715h90v-715h-90v715zM128 874h100l-82 -121h-69z" />
    <glyph glyph-name="Icircumflex" unicode="&#xce;" horiz-adv-x="228" 
d="M69 715h90v-715h-90v715zM70 863h92l89 -106h-87l-49 63h-2l-51 -63h-85z" />
    <glyph glyph-name="Idieresis" unicode="&#xcf;" horiz-adv-x="228" 
d="M69 715h90v-715h-90v715zM157 855h78v-95h-78v95zM-7 855h78v-95h-78v95z" />
    <glyph glyph-name="Eth" unicode="&#xd0;" horiz-adv-x="695" 
d="M5 397l73 -0.000976562v318h260c54 0 100.833 -8.66699 140.5 -26s72.5 -41.833 98.5 -73.5s45.5 -69.667 58.5 -114s19.5 -93.166 19.5 -146.499s-6.83301 -101.833 -20.5 -145.5s-34 -81 -61 -112s-60.667 -55 -101 -72s-87.5 -25.5 -141.5 -25.5h-253v321h-73v76z
M328 78.999c42 0 77.833 6.49805 107.5 19.498s54 31.5 73 55.5s32.833 53 41.5 87s13 72 13 114s-4 80.333 -12 115s-21 64.334 -39 89.001s-41.5 43.834 -70.5 57.501s-64.5 20.5 -106.5 20.5h-167v-240h207v-76h-207v-242h160z" />
    <glyph glyph-name="Ntilde" unicode="&#xd1;" horiz-adv-x="693" 
d="M67 715l95 0.00195312l326 -497c6 -9.33301 12 -19.333 18 -30s11.667 -20.667 17 -30c6 -10.667 11.667 -21.334 17 -32.001h2v589h84v-715h-92l-328 498c-6 8.66699 -12 18.167 -18 28.5s-11.667 20.166 -17 29.499c-6 10.667 -12 21 -18 31h-2v-587h-84v715z
M427 760.002c-12 0 -23.666 1.66602 -34.999 4.99902s-22.166 7 -32.499 11s-20 7.66699 -29 11s-16.833 5 -23.5 5c-7.33301 0 -12.833 -2.66699 -16.5 -8s-5.83398 -12.666 -6.50098 -21.999h-60c2.66699 28.667 10.334 51.167 23.001 67.5s30.667 24.5 54 24.5
c13.333 0 25.166 -1.66699 35.499 -5s20 -7 29 -11s17.667 -7.66699 26 -11s17.166 -5 26.499 -5s15.833 3 19.5 9s6.16699 13 7.5 21h58c-1.33301 -25.333 -7.83301 -47 -19.5 -65s-30.5 -27 -56.5 -27z" />
    <glyph glyph-name="Ograve" unicode="&#xd2;" horiz-adv-x="780" 
d="M390 -15c-54 0 -102.667 9.33301 -146 28s-80 44.667 -110 78s-53.167 72.833 -69.5 118.5s-24.5 95.167 -24.5 148.5s8.16699 102.833 24.5 148.5s39.5 85.167 69.5 118.5s66.667 59.333 110 78s92 28 146 28s102.667 -9.33301 146 -28s80 -44.667 110 -78
s53.167 -72.833 69.5 -118.5s24.5 -95.167 24.5 -148.5s-8.16699 -102.833 -24.5 -148.5s-39.5 -85.167 -69.5 -118.5s-66.667 -59.333 -110 -78s-92 -28 -146 -28zM390 64c42 0 79 7.5 111 22.5s59 35.5 81 61.5s38.5 57 49.5 93s16.5 75 16.5 117s-5.5 81 -16.5 117
s-27.5 67.167 -49.5 93.5s-49 47 -81 62s-69 22.5 -111 22.5s-79 -7.5 -111 -22.5s-59 -35.667 -81 -62s-38.5 -57.5 -49.5 -93.5s-16.5 -75 -16.5 -117s5.5 -81 16.5 -117s27.5 -67 49.5 -93s49 -46.5 81 -61.5s69 -22.5 111 -22.5zM282 874h100l51 -121h-69z" />
    <glyph glyph-name="Oacute" unicode="&#xd3;" horiz-adv-x="780" 
d="M390 -15c-54 0 -102.667 9.33301 -146 28s-80 44.667 -110 78s-53.167 72.833 -69.5 118.5s-24.5 95.167 -24.5 148.5s8.16699 102.833 24.5 148.5s39.5 85.167 69.5 118.5s66.667 59.333 110 78s92 28 146 28s102.667 -9.33301 146 -28s80 -44.667 110 -78
s53.167 -72.833 69.5 -118.5s24.5 -95.167 24.5 -148.5s-8.16699 -102.833 -24.5 -148.5s-39.5 -85.167 -69.5 -118.5s-66.667 -59.333 -110 -78s-92 -28 -146 -28zM390 64c42 0 79 7.5 111 22.5s59 35.5 81 61.5s38.5 57 49.5 93s16.5 75 16.5 117s-5.5 81 -16.5 117
s-27.5 67.167 -49.5 93.5s-49 47 -81 62s-69 22.5 -111 22.5s-79 -7.5 -111 -22.5s-59 -35.667 -81 -62s-38.5 -57.5 -49.5 -93.5s-16.5 -75 -16.5 -117s5.5 -81 16.5 -117s27.5 -67 49.5 -93s49 -46.5 81 -61.5s69 -22.5 111 -22.5zM404 874h100l-82 -121h-69z" />
    <glyph glyph-name="Ocircumflex" unicode="&#xd4;" horiz-adv-x="780" 
d="M390 -15c-54 0 -102.667 9.33301 -146 28s-80 44.667 -110 78s-53.167 72.833 -69.5 118.5s-24.5 95.167 -24.5 148.5s8.16699 102.833 24.5 148.5s39.5 85.167 69.5 118.5s66.667 59.333 110 78s92 28 146 28s102.667 -9.33301 146 -28s80 -44.667 110 -78
s53.167 -72.833 69.5 -118.5s24.5 -95.167 24.5 -148.5s-8.16699 -102.833 -24.5 -148.5s-39.5 -85.167 -69.5 -118.5s-66.667 -59.333 -110 -78s-92 -28 -146 -28zM390 64c42 0 79 7.5 111 22.5s59 35.5 81 61.5s38.5 57 49.5 93s16.5 75 16.5 117s-5.5 81 -16.5 117
s-27.5 67.167 -49.5 93.5s-49 47 -81 62s-69 22.5 -111 22.5s-79 -7.5 -111 -22.5s-59 -35.667 -81 -62s-38.5 -57.5 -49.5 -93.5s-16.5 -75 -16.5 -117s5.5 -81 16.5 -117s27.5 -67 49.5 -93s49 -46.5 81 -61.5s69 -22.5 111 -22.5zM346 863h92l89 -106h-87l-49 63h-2
l-51 -63h-85z" />
    <glyph glyph-name="Otilde" unicode="&#xd5;" horiz-adv-x="780" 
d="M390 -15c-54 0 -102.667 9.33301 -146 28s-80 44.667 -110 78s-53.167 72.833 -69.5 118.5s-24.5 95.167 -24.5 148.5s8.16699 102.833 24.5 148.5s39.5 85.167 69.5 118.5s66.667 59.333 110 78s92 28 146 28s102.667 -9.33301 146 -28s80 -44.667 110 -78
s53.167 -72.833 69.5 -118.5s24.5 -95.167 24.5 -148.5s-8.16699 -102.833 -24.5 -148.5s-39.5 -85.167 -69.5 -118.5s-66.667 -59.333 -110 -78s-92 -28 -146 -28zM390 64c42 0 79 7.5 111 22.5s59 35.5 81 61.5s38.5 57 49.5 93s16.5 75 16.5 117s-5.5 81 -16.5 117
s-27.5 67.167 -49.5 93.5s-49 47 -81 62s-69 22.5 -111 22.5s-79 -7.5 -111 -22.5s-59 -35.667 -81 -62s-38.5 -57.5 -49.5 -93.5s-16.5 -75 -16.5 -117s5.5 -81 16.5 -117s27.5 -67 49.5 -93s49 -46.5 81 -61.5s69 -22.5 111 -22.5zM454 760
c-12 0 -23.666 1.66602 -34.999 4.99902s-22.166 7 -32.499 11s-20 7.66699 -29 11s-16.833 5 -23.5 5c-7.33301 0 -12.833 -2.66699 -16.5 -8s-5.83398 -12.666 -6.50098 -21.999h-60c2.66699 28.667 10.334 51.167 23.001 67.5s30.667 24.5 54 24.5
c13.333 0 25.166 -1.66699 35.499 -5s20 -7 29 -11s17.667 -7.66699 26 -11s17.166 -5 26.499 -5s15.833 3 19.5 9s6.16699 13 7.5 21h58c-1.33301 -25.333 -7.83301 -47 -19.5 -65s-30.5 -27 -56.5 -27z" />
    <glyph glyph-name="Odieresis" unicode="&#xd6;" horiz-adv-x="780" 
d="M390 -15c-54 0 -102.667 9.33301 -146 28s-80 44.667 -110 78s-53.167 72.833 -69.5 118.5s-24.5 95.167 -24.5 148.5s8.16699 102.833 24.5 148.5s39.5 85.167 69.5 118.5s66.667 59.333 110 78s92 28 146 28s102.667 -9.33301 146 -28s80 -44.667 110 -78
s53.167 -72.833 69.5 -118.5s24.5 -95.167 24.5 -148.5s-8.16699 -102.833 -24.5 -148.5s-39.5 -85.167 -69.5 -118.5s-66.667 -59.333 -110 -78s-92 -28 -146 -28zM390 64c42 0 79 7.5 111 22.5s59 35.5 81 61.5s38.5 57 49.5 93s16.5 75 16.5 117s-5.5 81 -16.5 117
s-27.5 67.167 -49.5 93.5s-49 47 -81 62s-69 22.5 -111 22.5s-79 -7.5 -111 -22.5s-59 -35.667 -81 -62s-38.5 -57.5 -49.5 -93.5s-16.5 -75 -16.5 -117s5.5 -81 16.5 -117s27.5 -67 49.5 -93s49 -46.5 81 -61.5s69 -22.5 111 -22.5zM433 855h78v-95h-78v95zM269 855h78v-95
h-78v95z" />
    <glyph glyph-name="multiply" unicode="&#xd7;" horiz-adv-x="560" 
d="M72 160l164 166l-164 166l45 43l163 -165l163 165l45 -43l-164 -166l164 -166l-45 -43l-163 164l-163 -164z" />
    <glyph glyph-name="Oslash" unicode="&#xd8;" horiz-adv-x="780" 
d="M38 19l82 87.999c-26 32.667 -45.833 70.167 -59.5 112.5s-20.5 88.5 -20.5 138.5c0 53.333 8.16699 102.833 24.5 148.5s39.5 85.167 69.5 118.5s66.667 59.333 110 78s92 28 146 28c48 0 91.667 -7.5 131 -22.5s74 -36.167 104 -63.5l79 84l38 -35l-81 -87
c25.333 -32.667 44.833 -70 58.5 -112s20.5 -87.667 20.5 -137c0 -53.333 -8.16699 -102.833 -24.5 -148.5s-39.5 -85.167 -69.5 -118.5s-66.667 -59.333 -110 -78s-92 -28 -146 -28c-48 0 -91.5 7.33301 -130.5 22s-73.5 35.334 -103.5 62.001l-80 -85zM132 357.999
c0 -73.333 16.333 -135.666 49 -186.999l387 413c-21.333 21.333 -46.833 38.166 -76.5 50.499s-63.5 18.5 -101.5 18.5c-42 0 -79 -7.5 -111 -22.5s-59 -35.667 -81 -62s-38.5 -57.5 -49.5 -93.5s-16.5 -75 -16.5 -117zM390 63.999c42 0 79.001 7.5 111.001 22.5
s59 35.5 81 61.5s38.5 57 49.5 93s16.5 75 16.5 117c0 36 -4 69.5 -12 100.5s-20 59.167 -36 84.5l-387 -412c21.333 -21.333 46.666 -37.833 75.999 -49.5s63 -17.5 101 -17.5z" />
    <glyph glyph-name="Ugrave" unicode="&#xd9;" horiz-adv-x="658" 
d="M329 -11c-39.333 0 -75.668 4.5 -109.001 13.5s-62.166 23.167 -86.499 42.5s-43.5 44.333 -57.5 75s-21 67.667 -21 111v484h90v-475c0 -61.333 16.333 -105.666 49 -132.999s78.667 -41 138 -41c56.667 0 101 13.667 133 41s48 71.666 48 132.999v475h90v-484
c0 -43.333 -7.16699 -80.333 -21.5 -111s-33.833 -55.667 -58.5 -75s-53.667 -33.5 -87 -42.5s-69 -13.5 -107 -13.5zM220.998 874h100l51 -121h-69z" />
    <glyph glyph-name="Uacute" unicode="&#xda;" horiz-adv-x="658" 
d="M329 -11c-39.333 0 -75.668 4.5 -109.001 13.5s-62.166 23.167 -86.499 42.5s-43.5 44.333 -57.5 75s-21 67.667 -21 111v484h90v-475c0 -61.333 16.333 -105.666 49 -132.999s78.667 -41 138 -41c56.667 0 101 13.667 133 41s48 71.666 48 132.999v475h90v-484
c0 -43.333 -7.16699 -80.333 -21.5 -111s-33.833 -55.667 -58.5 -75s-53.667 -33.5 -87 -42.5s-69 -13.5 -107 -13.5zM342.998 874h100l-82 -121h-69z" />
    <glyph glyph-name="Ucircumflex" unicode="&#xdb;" horiz-adv-x="658" 
d="M329 -11c-39.333 0 -75.668 4.5 -109.001 13.5s-62.166 23.167 -86.499 42.5s-43.5 44.333 -57.5 75s-21 67.667 -21 111v484h90v-475c0 -61.333 16.333 -105.666 49 -132.999s78.667 -41 138 -41c56.667 0 101 13.667 133 41s48 71.666 48 132.999v475h90v-484
c0 -43.333 -7.16699 -80.333 -21.5 -111s-33.833 -55.667 -58.5 -75s-53.667 -33.5 -87 -42.5s-69 -13.5 -107 -13.5zM284.998 863h92l89 -106h-87l-49 63h-2l-51 -63h-85z" />
    <glyph glyph-name="Udieresis" unicode="&#xdc;" horiz-adv-x="658" 
d="M329 -11c-39.333 0 -75.668 4.5 -109.001 13.5s-62.166 23.167 -86.499 42.5s-43.5 44.333 -57.5 75s-21 67.667 -21 111v484h90v-475c0 -61.333 16.333 -105.666 49 -132.999s78.667 -41 138 -41c56.667 0 101 13.667 133 41s48 71.666 48 132.999v475h90v-484
c0 -43.333 -7.16699 -80.333 -21.5 -111s-33.833 -55.667 -58.5 -75s-53.667 -33.5 -87 -42.5s-69 -13.5 -107 -13.5zM371.998 855h78v-95h-78v95zM207.998 855h78v-95h-78v95z" />
    <glyph glyph-name="Yacute" unicode="&#xdd;" horiz-adv-x="631" 
d="M269 303l-259 412h100l205 -340h2l208 340h96l-262 -414v-301h-90v303zM329 874h100l-82 -121h-69z" />
    <glyph glyph-name="Thorn" unicode="&#xde;" horiz-adv-x="600" 
d="M67 715h90.002v-127h208c38 0 71.167 -6 99.5 -18s51.833 -29 70.5 -51c15.333 -17.333 27.166 -37.5 35.499 -60.5s12.5 -48.167 12.5 -75.5c0 -66 -18.833 -117.5 -56.5 -154.5s-95.834 -55.5 -174.501 -55.5h-195v-173h-90v715zM157.002 510v-264h188
c50.667 0 88.167 11.833 112.5 35.5s36.5 56.167 36.5 97.5c0 43.333 -12.5 76 -37.5 98s-60.5 33 -106.5 33h-193z" />
    <glyph glyph-name="germandbls" unicode="&#xdf;" horiz-adv-x="503" 
d="M255 -11c-7.33301 0 -15.6641 0.49707 -24.9971 1.49707s-18 2.16699 -26 3.5v66h2c26.667 -5.33301 51.5 -5.83301 74.5 -1.5s42.833 13 59.5 26s29.834 30 39.501 51s14.5 45.833 14.5 74.5c0 48.667 -13.333 86.834 -40 114.501s-65.334 41.5 -116.001 41.5h-27v62h30
c37.333 0 67.666 11.167 90.999 33.5s35 51.5 35 87.5c0 32 -10 58.167 -30 78.5s-48 30.5 -84 30.5c-38.667 0 -67.834 -11 -87.501 -33s-29.5 -50.667 -29.5 -86v-539h-81v544c0 26.667 4.5 51 13.5 73s22.167 40.833 39.5 56.5s38.5 27.834 63.5 36.501
s53.167 13 84.5 13c26.667 0 51.667 -4 75 -12s43.5 -19.5 60.5 -34.5s30.5 -33 40.5 -54s15 -44.5 15 -70.5c0 -73.333 -36 -122.666 -108 -147.999v-2c18.667 -5.33301 36.5 -13.333 53.5 -24s31.667 -23.667 44 -39s22.166 -33.5 29.499 -54.5s11 -44.833 11 -71.5
c0 -34 -5.16699 -64.833 -15.5 -92.5s-25 -51.167 -44 -70.5s-42.167 -34.333 -69.5 -45s-58.333 -16 -93 -16z" />
    <glyph glyph-name="agrave" unicode="&#xe0;" horiz-adv-x="510" 
d="M461 -5c-51.333 0 -81 25.666 -89 76.999h-1c-8 -10 -17.333 -19.833 -28 -29.5s-23 -18.5 -37 -26.5s-29.833 -14.333 -47.5 -19s-37.5 -7 -59.5 -7c-24.667 0 -47.667 2.83301 -69 8.5s-39.833 14.5 -55.5 26.5s-28 27 -37 45s-13.5 39.333 -13.5 64
c0 30.667 5.66699 55.667 17 75s27 35 47 47s43.833 21.167 71.5 27.5s57.5 12.166 89.5 17.499c18 2.66699 34.667 5.5 50 8.5s28.5 7 39.5 12s19.5 11.667 25.5 20s9 19.5 9 33.5c0 29.333 -10 51.833 -30 67.5s-48.667 23.5 -86 23.5c-42 0 -73.667 -9.16699 -95 -27.5
s-32.666 -47.166 -33.999 -86.499h-78c0.666992 24.667 5.33398 47.834 14.001 69.501s21.5 40.167 38.5 55.5s38.333 27.5 64 36.5s55.5 13.5 89.5 13.5c27.333 0 52.666 -2.83301 75.999 -8.5s43.5 -14.834 60.5 -27.501s30.333 -29.5 40 -50.5s14.5 -46.833 14.5 -77.5
v-246c0 -21.333 3.5 -37.166 10.5 -47.499s21.833 -12.833 44.5 -7.5h3v-59c-5.33301 -2 -11.333 -3.83301 -18 -5.5s-15.334 -2.5 -26.001 -2.5zM217 51.999c26.667 0 50 4.50195 70 13.502s36.333 20.167 49 33.5s22.167 28.166 28.5 44.499s9.5 32.166 9.5 47.499v88
c-13.333 -8.66699 -30.833 -16.167 -52.5 -22.5s-43.5 -11.5 -65.5 -15.5c-20 -4 -39 -8 -57 -12s-33.5 -9.83301 -46.5 -17.5s-23.333 -17.5 -31 -29.5s-11.5 -27.333 -11.5 -46c0 -17.333 3.16699 -31.5 9.5 -42.5s14.5 -19.5 24.5 -25.5s21.333 -10.167 34 -12.5
s25.667 -3.5 39 -3.5zM148 725.001h100l51 -127h-69z" />
    <glyph glyph-name="aacute" unicode="&#xe1;" horiz-adv-x="510" 
d="M461 -5c-51.333 0 -81 25.666 -89 76.999h-1c-8 -10 -17.333 -19.833 -28 -29.5s-23 -18.5 -37 -26.5s-29.833 -14.333 -47.5 -19s-37.5 -7 -59.5 -7c-24.667 0 -47.667 2.83301 -69 8.5s-39.833 14.5 -55.5 26.5s-28 27 -37 45s-13.5 39.333 -13.5 64
c0 30.667 5.66699 55.667 17 75s27 35 47 47s43.833 21.167 71.5 27.5s57.5 12.166 89.5 17.499c18 2.66699 34.667 5.5 50 8.5s28.5 7 39.5 12s19.5 11.667 25.5 20s9 19.5 9 33.5c0 29.333 -10 51.833 -30 67.5s-48.667 23.5 -86 23.5c-42 0 -73.667 -9.16699 -95 -27.5
s-32.666 -47.166 -33.999 -86.499h-78c0.666992 24.667 5.33398 47.834 14.001 69.501s21.5 40.167 38.5 55.5s38.333 27.5 64 36.5s55.5 13.5 89.5 13.5c27.333 0 52.666 -2.83301 75.999 -8.5s43.5 -14.834 60.5 -27.501s30.333 -29.5 40 -50.5s14.5 -46.833 14.5 -77.5
v-246c0 -21.333 3.5 -37.166 10.5 -47.499s21.833 -12.833 44.5 -7.5h3v-59c-5.33301 -2 -11.333 -3.83301 -18 -5.5s-15.334 -2.5 -26.001 -2.5zM217 51.999c26.667 0 50 4.50195 70 13.502s36.333 20.167 49 33.5s22.167 28.166 28.5 44.499s9.5 32.166 9.5 47.499v88
c-13.333 -8.66699 -30.833 -16.167 -52.5 -22.5s-43.5 -11.5 -65.5 -15.5c-20 -4 -39 -8 -57 -12s-33.5 -9.83301 -46.5 -17.5s-23.333 -17.5 -31 -29.5s-11.5 -27.333 -11.5 -46c0 -17.333 3.16699 -31.5 9.5 -42.5s14.5 -19.5 24.5 -25.5s21.333 -10.167 34 -12.5
s25.667 -3.5 39 -3.5zM275 725.001h100l-82 -127h-69z" />
    <glyph glyph-name="acircumflex" unicode="&#xe2;" horiz-adv-x="510" 
d="M461 -5c-51.333 0 -81 25.666 -89 76.999h-1c-8 -10 -17.333 -19.833 -28 -29.5s-23 -18.5 -37 -26.5s-29.833 -14.333 -47.5 -19s-37.5 -7 -59.5 -7c-24.667 0 -47.667 2.83301 -69 8.5s-39.833 14.5 -55.5 26.5s-28 27 -37 45s-13.5 39.333 -13.5 64
c0 30.667 5.66699 55.667 17 75s27 35 47 47s43.833 21.167 71.5 27.5s57.5 12.166 89.5 17.499c18 2.66699 34.667 5.5 50 8.5s28.5 7 39.5 12s19.5 11.667 25.5 20s9 19.5 9 33.5c0 29.333 -10 51.833 -30 67.5s-48.667 23.5 -86 23.5c-42 0 -73.667 -9.16699 -95 -27.5
s-32.666 -47.166 -33.999 -86.499h-78c0.666992 24.667 5.33398 47.834 14.001 69.501s21.5 40.167 38.5 55.5s38.333 27.5 64 36.5s55.5 13.5 89.5 13.5c27.333 0 52.666 -2.83301 75.999 -8.5s43.5 -14.834 60.5 -27.501s30.333 -29.5 40 -50.5s14.5 -46.833 14.5 -77.5
v-246c0 -21.333 3.5 -37.166 10.5 -47.499s21.833 -12.833 44.5 -7.5h3v-59c-5.33301 -2 -11.333 -3.83301 -18 -5.5s-15.334 -2.5 -26.001 -2.5zM217 51.999c26.667 0 50 4.50195 70 13.502s36.333 20.167 49 33.5s22.167 28.166 28.5 44.499s9.5 32.166 9.5 47.499v88
c-13.333 -8.66699 -30.833 -16.167 -52.5 -22.5s-43.5 -11.5 -65.5 -15.5c-20 -4 -39 -8 -57 -12s-33.5 -9.83301 -46.5 -17.5s-23.333 -17.5 -31 -29.5s-11.5 -27.333 -11.5 -46c0 -17.333 3.16699 -31.5 9.5 -42.5s14.5 -19.5 24.5 -25.5s21.333 -10.167 34 -12.5
s25.667 -3.5 39 -3.5zM212 708.001h92l89 -106h-87l-49 63h-2l-51 -63h-85z" />
    <glyph glyph-name="atilde" unicode="&#xe3;" horiz-adv-x="510" 
d="M461 -5c-51.333 0 -81 25.666 -89 76.999h-1c-8 -10 -17.333 -19.833 -28 -29.5s-23 -18.5 -37 -26.5s-29.833 -14.333 -47.5 -19s-37.5 -7 -59.5 -7c-24.667 0 -47.667 2.83301 -69 8.5s-39.833 14.5 -55.5 26.5s-28 27 -37 45s-13.5 39.333 -13.5 64
c0 30.667 5.66699 55.667 17 75s27 35 47 47s43.833 21.167 71.5 27.5s57.5 12.166 89.5 17.499c18 2.66699 34.667 5.5 50 8.5s28.5 7 39.5 12s19.5 11.667 25.5 20s9 19.5 9 33.5c0 29.333 -10 51.833 -30 67.5s-48.667 23.5 -86 23.5c-42 0 -73.667 -9.16699 -95 -27.5
s-32.666 -47.166 -33.999 -86.499h-78c0.666992 24.667 5.33398 47.834 14.001 69.501s21.5 40.167 38.5 55.5s38.333 27.5 64 36.5s55.5 13.5 89.5 13.5c27.333 0 52.666 -2.83301 75.999 -8.5s43.5 -14.834 60.5 -27.501s30.333 -29.5 40 -50.5s14.5 -46.833 14.5 -77.5
v-246c0 -21.333 3.5 -37.166 10.5 -47.499s21.833 -12.833 44.5 -7.5h3v-59c-5.33301 -2 -11.333 -3.83301 -18 -5.5s-15.334 -2.5 -26.001 -2.5zM217 51.999c26.667 0 50 4.50195 70 13.502s36.333 20.167 49 33.5s22.167 28.166 28.5 44.499s9.5 32.166 9.5 47.499v88
c-13.333 -8.66699 -30.833 -16.167 -52.5 -22.5s-43.5 -11.5 -65.5 -15.5c-20 -4 -39 -8 -57 -12s-33.5 -9.83301 -46.5 -17.5s-23.333 -17.5 -31 -29.5s-11.5 -27.333 -11.5 -46c0 -17.333 3.16699 -31.5 9.5 -42.5s14.5 -19.5 24.5 -25.5s21.333 -10.167 34 -12.5
s25.667 -3.5 39 -3.5zM320 601.001c-12 0 -23.666 1.66602 -34.999 4.99902s-22.166 7 -32.499 11s-20 7.66699 -29 11s-16.833 5 -23.5 5c-7.33301 0 -12.833 -2.66699 -16.5 -8s-5.83398 -12.666 -6.50098 -21.999h-60c2.66699 28.667 10.334 51.167 23.001 67.5
s30.667 24.5 54 24.5c13.333 0 25.166 -1.66699 35.499 -5s20 -7 29 -11s17.667 -7.66699 26 -11s17.166 -5 26.499 -5s15.833 3 19.5 9s6.16699 13 7.5 21h58c-1.33301 -25.333 -7.83301 -47 -19.5 -65s-30.5 -27 -56.5 -27z" />
    <glyph glyph-name="adieresis" unicode="&#xe4;" horiz-adv-x="510" 
d="M461 -5c-51.333 0 -81 25.666 -89 76.999h-1c-8 -10 -17.333 -19.833 -28 -29.5s-23 -18.5 -37 -26.5s-29.833 -14.333 -47.5 -19s-37.5 -7 -59.5 -7c-24.667 0 -47.667 2.83301 -69 8.5s-39.833 14.5 -55.5 26.5s-28 27 -37 45s-13.5 39.333 -13.5 64
c0 30.667 5.66699 55.667 17 75s27 35 47 47s43.833 21.167 71.5 27.5s57.5 12.166 89.5 17.499c18 2.66699 34.667 5.5 50 8.5s28.5 7 39.5 12s19.5 11.667 25.5 20s9 19.5 9 33.5c0 29.333 -10 51.833 -30 67.5s-48.667 23.5 -86 23.5c-42 0 -73.667 -9.16699 -95 -27.5
s-32.666 -47.166 -33.999 -86.499h-78c0.666992 24.667 5.33398 47.834 14.001 69.501s21.5 40.167 38.5 55.5s38.333 27.5 64 36.5s55.5 13.5 89.5 13.5c27.333 0 52.666 -2.83301 75.999 -8.5s43.5 -14.834 60.5 -27.501s30.333 -29.5 40 -50.5s14.5 -46.833 14.5 -77.5
v-246c0 -21.333 3.5 -37.166 10.5 -47.499s21.833 -12.833 44.5 -7.5h3v-59c-5.33301 -2 -11.333 -3.83301 -18 -5.5s-15.334 -2.5 -26.001 -2.5zM217 51.999c26.667 0 50 4.50195 70 13.502s36.333 20.167 49 33.5s22.167 28.166 28.5 44.499s9.5 32.166 9.5 47.499v88
c-13.333 -8.66699 -30.833 -16.167 -52.5 -22.5s-43.5 -11.5 -65.5 -15.5c-20 -4 -39 -8 -57 -12s-33.5 -9.83301 -46.5 -17.5s-23.333 -17.5 -31 -29.5s-11.5 -27.333 -11.5 -46c0 -17.333 3.16699 -31.5 9.5 -42.5s14.5 -19.5 24.5 -25.5s21.333 -10.167 34 -12.5
s25.667 -3.5 39 -3.5zM299 710.001h78v-95h-78v95zM135 710.001h78v-95h-78v95z" />
    <glyph glyph-name="aring" unicode="&#xe5;" horiz-adv-x="510" 
d="M461 -5c-51.333 0 -81 25.666 -89 76.999h-1c-8 -10 -17.333 -19.833 -28 -29.5s-23 -18.5 -37 -26.5s-29.833 -14.333 -47.5 -19s-37.5 -7 -59.5 -7c-24.667 0 -47.667 2.83301 -69 8.5s-39.833 14.5 -55.5 26.5s-28 27 -37 45s-13.5 39.333 -13.5 64
c0 30.667 5.66699 55.667 17 75s27 35 47 47s43.833 21.167 71.5 27.5s57.5 12.166 89.5 17.499c18 2.66699 34.667 5.5 50 8.5s28.5 7 39.5 12s19.5 11.667 25.5 20s9 19.5 9 33.5c0 29.333 -10 51.833 -30 67.5s-48.667 23.5 -86 23.5c-42 0 -73.667 -9.16699 -95 -27.5
s-32.666 -47.166 -33.999 -86.499h-78c0.666992 24.667 5.33398 47.834 14.001 69.501s21.5 40.167 38.5 55.5s38.333 27.5 64 36.5s55.5 13.5 89.5 13.5c27.333 0 52.666 -2.83301 75.999 -8.5s43.5 -14.834 60.5 -27.501s30.333 -29.5 40 -50.5s14.5 -46.833 14.5 -77.5
v-246c0 -21.333 3.5 -37.166 10.5 -47.499s21.833 -12.833 44.5 -7.5h3v-59c-5.33301 -2 -11.333 -3.83301 -18 -5.5s-15.334 -2.5 -26.001 -2.5zM217 51.999c26.667 0 50 4.50195 70 13.502s36.333 20.167 49 33.5s22.167 28.166 28.5 44.499s9.5 32.166 9.5 47.499v88
c-13.333 -8.66699 -30.833 -16.167 -52.5 -22.5s-43.5 -11.5 -65.5 -15.5c-20 -4 -39 -8 -57 -12s-33.5 -9.83301 -46.5 -17.5s-23.333 -17.5 -31 -29.5s-11.5 -27.333 -11.5 -46c0 -17.333 3.16699 -31.5 9.5 -42.5s14.5 -19.5 24.5 -25.5s21.333 -10.167 34 -12.5
s25.667 -3.5 39 -3.5zM256 559.001c-12 0 -23.333 2.16699 -34 6.5s-19.834 10.333 -27.501 18s-13.834 16.667 -18.501 27s-7 21.5 -7 33.5s2.33301 23.167 7 33.5s10.834 19.333 18.501 27s16.834 13.667 27.501 18s22 6.5 34 6.5s23.333 -2.16699 34 -6.5
s19.834 -10.333 27.501 -18s13.834 -16.667 18.501 -27s7 -21.5 7 -33.5s-2.33301 -23.167 -7 -33.5s-10.834 -19.333 -18.501 -27s-16.834 -13.667 -27.501 -18s-22 -6.5 -34 -6.5zM256 594.001c14 0 25.333 4.83301 34 14.5s13 21.5 13 35.5s-4.33301 25.833 -13 35.5
s-20 14.5 -34 14.5s-25.333 -4.83301 -34 -14.5s-13 -21.5 -13 -35.5s4.33301 -25.833 13 -35.5s20 -14.5 34 -14.5z" />
    <glyph glyph-name="ae" unicode="&#xe6;" horiz-adv-x="841" 
d="M202 -10c-24.667 0 -47.833 3.00488 -69.5 9.00488s-40.5 15.167 -56.5 27.5s-28.667 27.666 -38 45.999s-14 39.833 -14 64.5c0 30 5.66699 54.667 17 74s27.166 35 47.499 47s44.333 20.833 72 26.5s57.834 10.167 90.501 13.5c40 4 70.333 10.833 91 20.5
s31 28.5 31 56.5c0 29.333 -9.5 51.833 -28.5 67.5s-47.167 23.5 -84.5 23.5c-82.667 0 -127 -38 -133 -114h-78c1.33301 24 6.66602 46.667 15.999 68s22.666 40 39.999 56s38.833 28.5 64.5 37.5s55.5 13.5 89.5 13.5c40 0 74.5 -6.16699 103.5 -18.5
s50.167 -33.166 63.5 -62.499c18 25.333 40.833 45.666 68.5 60.999s60.5 23 98.5 23c37.333 0 70 -7.33301 98 -22s51.333 -34.834 70 -60.501s32.667 -56.334 42 -92.001s14 -74.5 14 -116.5h-368c1.33301 -26 5.33301 -50.333 12 -73s16.334 -42.334 29.001 -59.001
s28.334 -29.667 47.001 -39s41 -14 67 -14c34 0 61.167 9.5 81.5 28.5s34.166 44.833 41.499 77.5h79c-9.33301 -54.667 -31.833 -97.334 -67.5 -128.001s-80.5 -46 -134.5 -46c-45.333 0 -83.666 9.5 -114.999 28.5s-56.333 44.5 -75 76.5h-2
c-15.333 -22 -30.833 -39.667 -46.5 -53s-32 -23.5 -49 -30.5s-34.833 -11.667 -53.5 -14s-39 -3.5 -61 -3.5zM218.001 52.0049c26.667 0 49.833 4.50293 69.5 13.5029s36 20.167 49 33.5s22.5 28.166 28.5 44.499s9 32.166 9 47.499v79
c-13.333 -7.33301 -31 -13.833 -53 -19.5s-44.333 -9.83398 -67 -12.501c-22 -2.66699 -42 -5.83398 -60 -9.50098s-33.167 -9 -45.5 -16s-21.833 -16.333 -28.5 -28s-10 -26.834 -10 -45.501c0 -17.333 3.16699 -31.666 9.5 -42.999s14.5 -20.166 24.5 -26.499
s21.5 -10.833 34.5 -13.5s26.167 -4 39.5 -4zM593 466.008c-22 0 -41.332 -4.16797 -57.999 -12.501s-30.834 -20 -42.501 -35s-20.834 -32.667 -27.501 -53s-11.334 -42.166 -14.001 -65.499h279c-1.33301 52 -14.166 92.667 -38.499 122s-57.166 44 -98.499 44z" />
    <glyph glyph-name="ccedilla" unicode="&#xe7;" horiz-adv-x="519" 
d="M252 -191c-24.667 0 -45.666 2.83496 -62.999 8.50195s-32 12.5 -44 20.5l16 29c10.667 -4.66699 22.167 -8.33398 34.5 -11.001s24.833 -4 37.5 -4c16.667 0 30.5 2.5 41.5 7.5s16.5 13.167 16.5 24.5c0 18.667 -12.667 28 -38 28c-9.33301 0 -17 -0.666992 -23 -2
s-12 -3 -18 -5l-16 24l58 58c-35.333 2.66699 -67 11.667 -95 27s-51.833 35 -71.5 59s-34.834 51.833 -45.501 83.5s-16 65.5 -16 101.5c0 37.333 5.83301 72.5 17.5 105.5s28.334 61.833 50.001 86.5s47.834 44.167 78.501 58.5s65.334 21.5 104.001 21.5
c61.333 0 111.166 -16.167 149.499 -48.5s62.166 -76.166 71.499 -131.499h-82c-6 35.333 -20.833 63 -44.5 83s-55.167 30 -94.5 30c-27.333 0 -51.5 -5.33301 -72.5 -16s-38.5 -25.334 -52.5 -44.001s-24.5 -40.334 -31.5 -65.001s-10.5 -51.334 -10.5 -80.001
s3.5 -55.334 10.5 -80.001s17.5 -46.167 31.5 -64.5s31.5 -32.833 52.5 -43.5s45.167 -16 72.5 -16c42 0 75.167 11.333 99.5 34s38.166 54 41.499 94h80c-5.33301 -57.333 -24.333 -102.666 -57 -135.999s-76.667 -52.666 -132 -57.999l-44 -37v-2
c9.33301 1.33301 19.333 1.33301 30 0s20.667 -4.5 30 -9.5s17 -12 23 -21s9 -20.167 9 -33.5c0 -24 -9.66699 -42.667 -29 -56s-44.333 -20 -75 -20z" />
    <glyph glyph-name="egrave" unicode="&#xe8;" horiz-adv-x="533" 
d="M276 -14c-39.333 0 -74.502 7.16992 -105.502 21.5029s-57.167 33.833 -78.5 58.5s-37.666 53.5 -48.999 86.5s-17 68.167 -17 105.5s5.83301 72.5 17.5 105.5s28.334 61.833 50.001 86.5s47.5 44.167 77.5 58.5s63.333 21.5 100 21.5
c38.667 0 72.834 -7.16699 102.501 -21.5s54.5 -34.333 74.5 -60s35.167 -56.334 45.5 -92.001s15.5 -74.834 15.5 -117.501h-400c1.33301 -26 6 -50.333 14 -73s19 -42.334 33 -59.001s31 -29.667 51 -39s43 -14 69 -14c38 0 69 8.83301 93 26.5s40.667 44.167 50 79.5h79
c-12 -56 -37.333 -99 -76 -129s-87.334 -45 -146.001 -45zM270.998 466.003c-24 0 -45.3311 -4.16797 -63.998 -12.501s-34.5 -20 -47.5 -35s-23.667 -32.667 -32 -53s-13.833 -42.166 -16.5 -65.499h311c-2.66699 52 -16.834 92.667 -42.501 122s-61.834 44 -108.501 44z
M163 725.002h100l51 -127h-69z" />
    <glyph glyph-name="eacute" unicode="&#xe9;" horiz-adv-x="533" 
d="M276 -14c-39.333 0 -74.502 7.16992 -105.502 21.5029s-57.167 33.833 -78.5 58.5s-37.666 53.5 -48.999 86.5s-17 68.167 -17 105.5s5.83301 72.5 17.5 105.5s28.334 61.833 50.001 86.5s47.5 44.167 77.5 58.5s63.333 21.5 100 21.5
c38.667 0 72.834 -7.16699 102.501 -21.5s54.5 -34.333 74.5 -60s35.167 -56.334 45.5 -92.001s15.5 -74.834 15.5 -117.501h-400c1.33301 -26 6 -50.333 14 -73s19 -42.334 33 -59.001s31 -29.667 51 -39s43 -14 69 -14c38 0 69 8.83301 93 26.5s40.667 44.167 50 79.5h79
c-12 -56 -37.333 -99 -76 -129s-87.334 -45 -146.001 -45zM270.998 466.003c-24 0 -45.3311 -4.16797 -63.998 -12.501s-34.5 -20 -47.5 -35s-23.667 -32.667 -32 -53s-13.833 -42.166 -16.5 -65.499h311c-2.66699 52 -16.834 92.667 -42.501 122s-61.834 44 -108.501 44z
M290 725.002h100l-82 -127h-69z" />
    <glyph glyph-name="ecircumflex" unicode="&#xea;" horiz-adv-x="533" 
d="M276 -14c-39.333 0 -74.502 7.16992 -105.502 21.5029s-57.167 33.833 -78.5 58.5s-37.666 53.5 -48.999 86.5s-17 68.167 -17 105.5s5.83301 72.5 17.5 105.5s28.334 61.833 50.001 86.5s47.5 44.167 77.5 58.5s63.333 21.5 100 21.5
c38.667 0 72.834 -7.16699 102.501 -21.5s54.5 -34.333 74.5 -60s35.167 -56.334 45.5 -92.001s15.5 -74.834 15.5 -117.501h-400c1.33301 -26 6 -50.333 14 -73s19 -42.334 33 -59.001s31 -29.667 51 -39s43 -14 69 -14c38 0 69 8.83301 93 26.5s40.667 44.167 50 79.5h79
c-12 -56 -37.333 -99 -76 -129s-87.334 -45 -146.001 -45zM270.998 466.003c-24 0 -45.3311 -4.16797 -63.998 -12.501s-34.5 -20 -47.5 -35s-23.667 -32.667 -32 -53s-13.833 -42.166 -16.5 -65.499h311c-2.66699 52 -16.834 92.667 -42.501 122s-61.834 44 -108.501 44z
M227 708.002h92l89 -106h-87l-49 63h-2l-51 -63h-85z" />
    <glyph glyph-name="edieresis" unicode="&#xeb;" horiz-adv-x="533" 
d="M276 -14c-39.333 0 -74.502 7.16992 -105.502 21.5029s-57.167 33.833 -78.5 58.5s-37.666 53.5 -48.999 86.5s-17 68.167 -17 105.5s5.83301 72.5 17.5 105.5s28.334 61.833 50.001 86.5s47.5 44.167 77.5 58.5s63.333 21.5 100 21.5
c38.667 0 72.834 -7.16699 102.501 -21.5s54.5 -34.333 74.5 -60s35.167 -56.334 45.5 -92.001s15.5 -74.834 15.5 -117.501h-400c1.33301 -26 6 -50.333 14 -73s19 -42.334 33 -59.001s31 -29.667 51 -39s43 -14 69 -14c38 0 69 8.83301 93 26.5s40.667 44.167 50 79.5h79
c-12 -56 -37.333 -99 -76 -129s-87.334 -45 -146.001 -45zM270.998 466.003c-24 0 -45.3311 -4.16797 -63.998 -12.501s-34.5 -20 -47.5 -35s-23.667 -32.667 -32 -53s-13.833 -42.166 -16.5 -65.499h311c-2.66699 52 -16.834 92.667 -42.501 122s-61.834 44 -108.501 44z
M314 710.002h78v-95h-78v95zM150 710.002h78v-95h-78v95z" />
    <glyph glyph-name="igrave" unicode="&#xec;" horiz-adv-x="191" 
d="M55 517h81v-517h-81v517zM138 598h-68l-77 127h99z" />
    <glyph glyph-name="iacute" unicode="&#xed;" horiz-adv-x="191" 
d="M109 725h99l-77 -127h-68zM55 517h81v-517h-81v517z" />
    <glyph glyph-name="icircumflex" unicode="&#xee;" horiz-adv-x="191" 
d="M51 708h92l74 -106h-82l-39 61h-2l-41 -61h-80zM55 517h81v-517h-81v517z" />
    <glyph glyph-name="idieresis" unicode="&#xef;" horiz-adv-x="191" 
d="M124 710h78v-95h-78v95zM-12 710h78v-95h-78v95zM55 517h81v-517h-81v517z" />
    <glyph glyph-name="eth" unicode="&#xf0;" horiz-adv-x="551" 
d="M276 641c-14.667 13.333 -29.4941 26.1689 -44.4941 38.502s-30.167 24.166 -45.5 35.499h101c20.667 -14 42.334 -30.667 65.001 -50l96 30l15 -44l-73 -23c18 -20 35.167 -42.167 51.5 -66.5s30.666 -51.333 42.999 -81s22.166 -61.834 29.499 -96.501
s11 -72.334 11 -113.001c0 -41.333 -5.66699 -79.333 -17 -114s-27.833 -64.667 -49.5 -90s-47.834 -45.166 -78.501 -59.499s-65.334 -21.5 -104.001 -21.5s-73.334 7.16699 -104.001 21.5s-56.834 33.833 -78.501 58.5s-38.334 53.5 -50.001 86.5
s-17.5 68.167 -17.5 105.5s5.5 72.333 16.5 105s26.667 61 47 85s45.333 43 75 57s63.167 21 100.5 21c32.667 0 61.667 -7 87 -21s47 -31.667 65 -53c-12 28.667 -26.833 55.5 -44.5 80.5s-37.167 48.833 -58.5 71.5l-150 -46l-15 44zM276.006 54.0029
c27.333 0 51.3311 5.33301 71.998 16s38 25.334 52 44.001s24.5 40.667 31.5 66s10.5 52.333 10.5 81c0 28 -3.66699 54.167 -11 78.5s-18 45.333 -32 63s-31.667 31.5 -53 41.5s-46 15 -74 15c-27.333 0 -51.166 -5.16699 -71.499 -15.5s-37.166 -24.5 -50.499 -42.5
s-23.5 -39.167 -30.5 -63.5s-10.5 -50.833 -10.5 -79.5s3.5 -55.334 10.5 -80.001s17.5 -46.167 31.5 -64.5s31.5 -32.833 52.5 -43.5s45.167 -16 72.5 -16z" />
    <glyph glyph-name="ntilde" unicode="&#xf1;" horiz-adv-x="528" 
d="M136 449h2.00098c18.667 24.667 41.167 44.167 67.5 58.5s58.5 21.5 96.5 21.5c54 0 96.5 -14.167 127.5 -42.5s46.5 -69.5 46.5 -123.5v-363h-81v356c0 34 -10.333 60 -31 78s-49.334 27 -86.001 27c-20.667 0 -39.667 -3.5 -57 -10.5s-32.333 -16.667 -45 -29
s-22.5 -27.333 -29.5 -45s-10.5 -37.167 -10.5 -58.5v-318h-81v517h81v-68zM329.001 601c-12 0 -23.666 1.66602 -34.999 4.99902s-22.166 7 -32.499 11s-20 7.66699 -29 11s-16.833 5 -23.5 5c-7.33301 0 -12.833 -2.66699 -16.5 -8s-5.83398 -12.666 -6.50098 -21.999h-60
c2.66699 28.667 10.334 51.167 23.001 67.5s30.667 24.5 54 24.5c13.333 0 25.166 -1.66699 35.499 -5s20 -7 29 -11s17.667 -7.66699 26 -11s17.166 -5 26.499 -5s15.833 3 19.5 9s6.16699 13 7.5 21h58c-1.33301 -25.333 -7.83301 -47 -19.5 -65s-30.5 -27 -56.5 -27z" />
    <glyph glyph-name="ograve" unicode="&#xf2;" horiz-adv-x="551" 
d="M276 -14c-38.667 0 -73.334 7.16699 -104.001 21.5s-56.834 33.833 -78.501 58.5s-38.334 53.5 -50.001 86.5s-17.5 68.167 -17.5 105.5s5.83301 72.5 17.5 105.5s28.334 61.833 50.001 86.5s47.834 44.167 78.501 58.5s65.334 21.5 104.001 21.5
s73.334 -7.16699 104.001 -21.5s56.834 -33.833 78.501 -58.5s38.167 -53.5 49.5 -86.5s17 -68.167 17 -105.5s-5.66699 -72.5 -17 -105.5s-27.833 -61.833 -49.5 -86.5s-47.834 -44.167 -78.501 -58.5s-65.334 -21.5 -104.001 -21.5zM276 54c27.333 0 51.333 5.33301 72 16
s38 25.167 52 43.5s24.5 39.833 31.5 64.5s10.5 51.334 10.5 80.001s-3.5 55.334 -10.5 80.001s-17.5 46.334 -31.5 65.001s-31.333 33.334 -52 44.001s-44.667 16 -72 16s-51.5 -5.33301 -72.5 -16s-38.5 -25.334 -52.5 -44.001s-24.5 -40.334 -31.5 -65.001
s-10.5 -51.334 -10.5 -80.001s3.5 -55.334 10.5 -80.001s17.5 -46.167 31.5 -64.5s31.5 -32.833 52.5 -43.5s45.167 -16 72.5 -16zM167 725h100l51 -127h-69z" />
    <glyph glyph-name="oacute" unicode="&#xf3;" horiz-adv-x="551" 
d="M276 -14c-38.667 0 -73.334 7.16699 -104.001 21.5s-56.834 33.833 -78.501 58.5s-38.334 53.5 -50.001 86.5s-17.5 68.167 -17.5 105.5s5.83301 72.5 17.5 105.5s28.334 61.833 50.001 86.5s47.834 44.167 78.501 58.5s65.334 21.5 104.001 21.5
s73.334 -7.16699 104.001 -21.5s56.834 -33.833 78.501 -58.5s38.167 -53.5 49.5 -86.5s17 -68.167 17 -105.5s-5.66699 -72.5 -17 -105.5s-27.833 -61.833 -49.5 -86.5s-47.834 -44.167 -78.501 -58.5s-65.334 -21.5 -104.001 -21.5zM276 54c27.333 0 51.333 5.33301 72 16
s38 25.167 52 43.5s24.5 39.833 31.5 64.5s10.5 51.334 10.5 80.001s-3.5 55.334 -10.5 80.001s-17.5 46.334 -31.5 65.001s-31.333 33.334 -52 44.001s-44.667 16 -72 16s-51.5 -5.33301 -72.5 -16s-38.5 -25.334 -52.5 -44.001s-24.5 -40.334 -31.5 -65.001
s-10.5 -51.334 -10.5 -80.001s3.5 -55.334 10.5 -80.001s17.5 -46.167 31.5 -64.5s31.5 -32.833 52.5 -43.5s45.167 -16 72.5 -16zM294 725h100l-82 -127h-69z" />
    <glyph glyph-name="ocircumflex" unicode="&#xf4;" horiz-adv-x="551" 
d="M276 -14c-38.667 0 -73.334 7.16699 -104.001 21.5s-56.834 33.833 -78.501 58.5s-38.334 53.5 -50.001 86.5s-17.5 68.167 -17.5 105.5s5.83301 72.5 17.5 105.5s28.334 61.833 50.001 86.5s47.834 44.167 78.501 58.5s65.334 21.5 104.001 21.5
s73.334 -7.16699 104.001 -21.5s56.834 -33.833 78.501 -58.5s38.167 -53.5 49.5 -86.5s17 -68.167 17 -105.5s-5.66699 -72.5 -17 -105.5s-27.833 -61.833 -49.5 -86.5s-47.834 -44.167 -78.501 -58.5s-65.334 -21.5 -104.001 -21.5zM276 54c27.333 0 51.333 5.33301 72 16
s38 25.167 52 43.5s24.5 39.833 31.5 64.5s10.5 51.334 10.5 80.001s-3.5 55.334 -10.5 80.001s-17.5 46.334 -31.5 65.001s-31.333 33.334 -52 44.001s-44.667 16 -72 16s-51.5 -5.33301 -72.5 -16s-38.5 -25.334 -52.5 -44.001s-24.5 -40.334 -31.5 -65.001
s-10.5 -51.334 -10.5 -80.001s3.5 -55.334 10.5 -80.001s17.5 -46.167 31.5 -64.5s31.5 -32.833 52.5 -43.5s45.167 -16 72.5 -16zM231 708h92l89 -106h-87l-49 63h-2l-51 -63h-85z" />
    <glyph glyph-name="otilde" unicode="&#xf5;" horiz-adv-x="551" 
d="M276 -14c-38.667 0 -73.334 7.16699 -104.001 21.5s-56.834 33.833 -78.501 58.5s-38.334 53.5 -50.001 86.5s-17.5 68.167 -17.5 105.5s5.83301 72.5 17.5 105.5s28.334 61.833 50.001 86.5s47.834 44.167 78.501 58.5s65.334 21.5 104.001 21.5
s73.334 -7.16699 104.001 -21.5s56.834 -33.833 78.501 -58.5s38.167 -53.5 49.5 -86.5s17 -68.167 17 -105.5s-5.66699 -72.5 -17 -105.5s-27.833 -61.833 -49.5 -86.5s-47.834 -44.167 -78.501 -58.5s-65.334 -21.5 -104.001 -21.5zM276 54c27.333 0 51.333 5.33301 72 16
s38 25.167 52 43.5s24.5 39.833 31.5 64.5s10.5 51.334 10.5 80.001s-3.5 55.334 -10.5 80.001s-17.5 46.334 -31.5 65.001s-31.333 33.334 -52 44.001s-44.667 16 -72 16s-51.5 -5.33301 -72.5 -16s-38.5 -25.334 -52.5 -44.001s-24.5 -40.334 -31.5 -65.001
s-10.5 -51.334 -10.5 -80.001s3.5 -55.334 10.5 -80.001s17.5 -46.167 31.5 -64.5s31.5 -32.833 52.5 -43.5s45.167 -16 72.5 -16zM339 601c-12 0 -23.666 1.66602 -34.999 4.99902s-22.166 7 -32.499 11s-20 7.66699 -29 11s-16.833 5 -23.5 5
c-7.33301 0 -12.833 -2.66699 -16.5 -8s-5.83398 -12.666 -6.50098 -21.999h-60c2.66699 28.667 10.334 51.167 23.001 67.5s30.667 24.5 54 24.5c13.333 0 25.166 -1.66699 35.499 -5s20 -7 29 -11s17.667 -7.66699 26 -11s17.166 -5 26.499 -5s15.833 3 19.5 9
s6.16699 13 7.5 21h58c-1.33301 -25.333 -7.83301 -47 -19.5 -65s-30.5 -27 -56.5 -27z" />
    <glyph glyph-name="odieresis" unicode="&#xf6;" horiz-adv-x="551" 
d="M276 -14c-38.667 0 -73.334 7.16699 -104.001 21.5s-56.834 33.833 -78.501 58.5s-38.334 53.5 -50.001 86.5s-17.5 68.167 -17.5 105.5s5.83301 72.5 17.5 105.5s28.334 61.833 50.001 86.5s47.834 44.167 78.501 58.5s65.334 21.5 104.001 21.5
s73.334 -7.16699 104.001 -21.5s56.834 -33.833 78.501 -58.5s38.167 -53.5 49.5 -86.5s17 -68.167 17 -105.5s-5.66699 -72.5 -17 -105.5s-27.833 -61.833 -49.5 -86.5s-47.834 -44.167 -78.501 -58.5s-65.334 -21.5 -104.001 -21.5zM276 54c27.333 0 51.333 5.33301 72 16
s38 25.167 52 43.5s24.5 39.833 31.5 64.5s10.5 51.334 10.5 80.001s-3.5 55.334 -10.5 80.001s-17.5 46.334 -31.5 65.001s-31.333 33.334 -52 44.001s-44.667 16 -72 16s-51.5 -5.33301 -72.5 -16s-38.5 -25.334 -52.5 -44.001s-24.5 -40.334 -31.5 -65.001
s-10.5 -51.334 -10.5 -80.001s3.5 -55.334 10.5 -80.001s17.5 -46.167 31.5 -64.5s31.5 -32.833 52.5 -43.5s45.167 -16 72.5 -16zM318 710h78v-95h-78v95zM154 710h78v-95h-78v95z" />
    <glyph glyph-name="divide" unicode="&#xf7;" horiz-adv-x="560" 
d="M53 358h454v-64h-454v64zM232 204h97v-99h-97v99zM232 547h97v-99h-97v99z" />
    <glyph glyph-name="oslash" unicode="&#xf8;" horiz-adv-x="551" 
d="M22 14l60 65.002c-18 24 -31.833 51.167 -41.5 81.5s-14.5 62.833 -14.5 97.5c0 37.333 5.83301 72.5 17.5 105.5s28.334 61.833 50.001 86.5s47.834 44.167 78.501 58.5s65.334 21.5 104.001 21.5c34 0 64.667 -5.5 92 -16.5s51.666 -26.167 72.999 -45.5l57 62l30 -28
l-59 -64c18 -24 31.833 -51.333 41.5 -82s14.5 -63.334 14.5 -98.001c0 -37.333 -5.66699 -72.5 -17 -105.5s-27.833 -61.833 -49.5 -86.5s-47.834 -44.167 -78.501 -58.5s-65.334 -21.5 -104.001 -21.5c-34 0 -64.833 5.66699 -92.5 17s-52.167 26.666 -73.5 45.999
l-58 -63zM276 54.002c27.333 0 51.334 5.33203 72.001 15.999s38 25.167 52 43.5s24.5 39.833 31.5 64.5s10.5 51.334 10.5 80.001c0 46.667 -9 87 -27 121l-256 -276c14 -15.333 30.667 -27.333 50 -36s41.666 -13 66.999 -13zM109.001 258.001
c0 -46.667 8.99902 -86.9971 26.999 -120.997l255 277c-13.333 15.333 -29.666 27.333 -48.999 36s-41.333 13 -66 13c-27.333 0 -51.5 -5.33301 -72.5 -16s-38.5 -25.334 -52.5 -44.001s-24.5 -40.334 -31.5 -65.001s-10.5 -51.334 -10.5 -80.001z" />
    <glyph glyph-name="ugrave" unicode="&#xf9;" horiz-adv-x="520" 
d="M384 0l-0.00195312 71h-2c-18.667 -25.333 -39.834 -45.5 -63.501 -60.5s-54.5 -22.5 -92.5 -22.5c-53.333 0 -95.666 15 -126.999 45s-47 72 -47 126v358h81v-356c0 -34 10.167 -60.167 30.5 -78.5s48.833 -27.5 85.5 -27.5c20.667 0 39.334 3.66699 56.001 11
s30.834 17.5 42.501 30.5s20.667 28.167 27 45.5s9.5 36.333 9.5 57v318h81v-517h-81zM153.998 725h100l51 -127h-69z" />
    <glyph glyph-name="uacute" unicode="&#xfa;" horiz-adv-x="520" 
d="M384 0l-0.00195312 71h-2c-18.667 -25.333 -39.834 -45.5 -63.501 -60.5s-54.5 -22.5 -92.5 -22.5c-53.333 0 -95.666 15 -126.999 45s-47 72 -47 126v358h81v-356c0 -34 10.167 -60.167 30.5 -78.5s48.833 -27.5 85.5 -27.5c20.667 0 39.334 3.66699 56.001 11
s30.834 17.5 42.501 30.5s20.667 28.167 27 45.5s9.5 36.333 9.5 57v318h81v-517h-81zM280.998 725h100l-82 -127h-69z" />
    <glyph glyph-name="ucircumflex" unicode="&#xfb;" horiz-adv-x="520" 
d="M384 0l-0.00195312 71h-2c-18.667 -25.333 -39.834 -45.5 -63.501 -60.5s-54.5 -22.5 -92.5 -22.5c-53.333 0 -95.666 15 -126.999 45s-47 72 -47 126v358h81v-356c0 -34 10.167 -60.167 30.5 -78.5s48.833 -27.5 85.5 -27.5c20.667 0 39.334 3.66699 56.001 11
s30.834 17.5 42.501 30.5s20.667 28.167 27 45.5s9.5 36.333 9.5 57v318h81v-517h-81zM217.998 708h92l89 -106h-87l-49 63h-2l-51 -63h-85z" />
    <glyph glyph-name="udieresis" unicode="&#xfc;" horiz-adv-x="520" 
d="M384 0l-0.00195312 71h-2c-18.667 -25.333 -39.834 -45.5 -63.501 -60.5s-54.5 -22.5 -92.5 -22.5c-53.333 0 -95.666 15 -126.999 45s-47 72 -47 126v358h81v-356c0 -34 10.167 -60.167 30.5 -78.5s48.833 -27.5 85.5 -27.5c20.667 0 39.334 3.66699 56.001 11
s30.834 17.5 42.501 30.5s20.667 28.167 27 45.5s9.5 36.333 9.5 57v318h81v-517h-81zM304.998 710h78v-95h-78v95zM140.998 710h78v-95h-78v95z" />
    <glyph glyph-name="yacute" unicode="&#xfd;" horiz-adv-x="489" 
d="M121 -171c-15.333 0 -28.5 0.669922 -39.5 2.00293s-22.167 4.33301 -33.5 9v72h4c5.33301 -3.33301 12.5 -6 21.5 -8s20.167 -3 33.5 -3c17.333 0 32 4.16699 44 12.5s23 25.166 33 50.499l20 51l-202 502h88l122 -322c4 -11.333 8 -22.833 12 -34.5
s7.66699 -22.5 11 -32.5c4 -12 8 -23.333 12 -34h2c3.33301 10.667 7 22 11 34c3.33301 10 7 20.833 11 32.5s8 23.167 12 34.5l118 322h86l-221 -559c-10.667 -26.667 -21.167 -48.334 -31.5 -65.001s-21.333 -29.834 -33 -39.501s-24 -16.167 -37 -19.5s-27.5 -5 -43.5 -5
zM268 725.003h100l-82 -127h-69z" />
    <glyph glyph-name="thorn" unicode="&#xfe;" horiz-adv-x="552" 
d="M301 -15c-35.333 0 -66 5.66895 -92 17.002s-49.667 31 -71 59h-2v-227h-81v881h81v-271h2c19.333 26.667 42.333 47.5 69 62.5s59 22.5 97 22.5c32.667 0 62.667 -6.16699 90 -18.5s50.666 -30 69.999 -53s34.5 -51.5 45.5 -85.5s16.5 -72.333 16.5 -115
c0 -41.333 -5.16699 -78.833 -15.5 -112.5s-25.166 -62.334 -44.499 -86.001s-43 -41.834 -71 -54.501s-59.333 -19 -94 -19zM295 53.002c24.667 0 46.332 5.16992 64.999 15.5029s34.167 24.5 46.5 42.5s21.5 39.333 27.5 64s9 51.667 9 81c0 28.667 -3 55.5 -9 80.5
s-15.167 46.667 -27.5 65s-27.666 32.666 -45.999 42.999s-39.833 15.5 -64.5 15.5c-28 0 -52.5 -5.33301 -73.5 -16s-38.167 -25.334 -51.5 -44.001s-23.333 -40.334 -30 -65.001s-10 -51 -10 -79s3 -54.333 9 -79s15.5 -46.167 28.5 -64.5s29.833 -32.833 50.5 -43.5
s46 -16 76 -16z" />
    <glyph glyph-name="ydieresis" unicode="&#xff;" horiz-adv-x="489" 
d="M121 -171c-15.333 0 -28.5 0.669922 -39.5 2.00293s-22.167 4.33301 -33.5 9v72h4c5.33301 -3.33301 12.5 -6 21.5 -8s20.167 -3 33.5 -3c17.333 0 32 4.16699 44 12.5s23 25.166 33 50.499l20 51l-202 502h88l122 -322c4 -11.333 8 -22.833 12 -34.5
s7.66699 -22.5 11 -32.5c4 -12 8 -23.333 12 -34h2c3.33301 10.667 7 22 11 34c3.33301 10 7 20.833 11 32.5s8 23.167 12 34.5l118 322h86l-221 -559c-10.667 -26.667 -21.167 -48.334 -31.5 -65.001s-21.333 -29.834 -33 -39.501s-24 -16.167 -37 -19.5s-27.5 -5 -43.5 -5
zM292 710.003h78v-95h-78v95zM128 710.003h78v-95h-78v95z" />
    <glyph glyph-name="Amacron" unicode="&#x100;" horiz-adv-x="648" 
d="M273 715h101l264 -715h-98l-76 218h-285l-77 -218h-92zM205 291h234l-82 240c-3.33301 10 -6.83301 20.833 -10.5 32.5s-7.16699 22.5 -10.5 32.5c-3.33301 12 -7 24 -11 36h-2c-4 -11.333 -7.66699 -23 -11 -35l-11 -33l-11 -33zM197 827h258v-67h-258v67z" />
    <glyph glyph-name="amacron" unicode="&#x101;" horiz-adv-x="510" 
d="M461 -5c-51.333 0 -81 25.666 -89 76.999h-1c-8 -10 -17.333 -19.833 -28 -29.5s-23 -18.5 -37 -26.5s-29.833 -14.333 -47.5 -19s-37.5 -7 -59.5 -7c-24.667 0 -47.667 2.83301 -69 8.5s-39.833 14.5 -55.5 26.5s-28 27 -37 45s-13.5 39.333 -13.5 64
c0 30.667 5.66699 55.667 17 75s27 35 47 47s43.833 21.167 71.5 27.5s57.5 12.166 89.5 17.499c18 2.66699 34.667 5.5 50 8.5s28.5 7 39.5 12s19.5 11.667 25.5 20s9 19.5 9 33.5c0 29.333 -10 51.833 -30 67.5s-48.667 23.5 -86 23.5c-42 0 -73.667 -9.16699 -95 -27.5
s-32.666 -47.166 -33.999 -86.499h-78c0.666992 24.667 5.33398 47.834 14.001 69.501s21.5 40.167 38.5 55.5s38.333 27.5 64 36.5s55.5 13.5 89.5 13.5c27.333 0 52.666 -2.83301 75.999 -8.5s43.5 -14.834 60.5 -27.501s30.333 -29.5 40 -50.5s14.5 -46.833 14.5 -77.5
v-246c0 -21.333 3.5 -37.166 10.5 -47.499s21.833 -12.833 44.5 -7.5h3v-59c-5.33301 -2 -11.333 -3.83301 -18 -5.5s-15.334 -2.5 -26.001 -2.5zM217 51.999c26.667 0 50 4.50195 70 13.502s36.333 20.167 49 33.5s22.167 28.166 28.5 44.499s9.5 32.166 9.5 47.499v88
c-13.333 -8.66699 -30.833 -16.167 -52.5 -22.5s-43.5 -11.5 -65.5 -15.5c-20 -4 -39 -8 -57 -12s-33.5 -9.83301 -46.5 -17.5s-23.333 -17.5 -31 -29.5s-11.5 -27.333 -11.5 -46c0 -17.333 3.16699 -31.5 9.5 -42.5s14.5 -19.5 24.5 -25.5s21.333 -10.167 34 -12.5
s25.667 -3.5 39 -3.5zM127 689.001h258v-67h-258v67z" />
    <glyph glyph-name="Abreve" unicode="&#x102;" horiz-adv-x="648" 
d="M273 715h101l264 -715h-98l-76 218h-285l-77 -218h-92zM205 291h234l-82 240c-3.33301 10 -6.83301 20.833 -10.5 32.5s-7.16699 22.5 -10.5 32.5c-3.33301 12 -7 24 -11 36h-2c-4 -11.333 -7.66699 -23 -11 -35l-11 -33l-11 -33zM326 759
c-17.333 0 -33.3311 2.66406 -47.998 7.99707s-27.834 12.833 -39.501 22.5s-21 21.334 -28 35.001s-10.833 28.834 -11.5 45.501h60c3.33301 -15.333 10.166 -27.333 20.499 -36s25.5 -13 45.5 -13s35.833 4.33301 47.5 13s19.167 20.667 22.5 36h58
c-0.666992 -15.333 -4.16699 -29.666 -10.5 -42.999s-15 -25 -26 -35s-24.167 -18 -39.5 -24s-32.333 -9 -51 -9z" />
    <glyph glyph-name="abreve" unicode="&#x103;" horiz-adv-x="510" 
d="M461 -5c-51.333 0 -81 25.666 -89 76.999h-1c-8 -10 -17.333 -19.833 -28 -29.5s-23 -18.5 -37 -26.5s-29.833 -14.333 -47.5 -19s-37.5 -7 -59.5 -7c-24.667 0 -47.667 2.83301 -69 8.5s-39.833 14.5 -55.5 26.5s-28 27 -37 45s-13.5 39.333 -13.5 64
c0 30.667 5.66699 55.667 17 75s27 35 47 47s43.833 21.167 71.5 27.5s57.5 12.166 89.5 17.499c18 2.66699 34.667 5.5 50 8.5s28.5 7 39.5 12s19.5 11.667 25.5 20s9 19.5 9 33.5c0 29.333 -10 51.833 -30 67.5s-48.667 23.5 -86 23.5c-42 0 -73.667 -9.16699 -95 -27.5
s-32.666 -47.166 -33.999 -86.499h-78c0.666992 24.667 5.33398 47.834 14.001 69.501s21.5 40.167 38.5 55.5s38.333 27.5 64 36.5s55.5 13.5 89.5 13.5c27.333 0 52.666 -2.83301 75.999 -8.5s43.5 -14.834 60.5 -27.501s30.333 -29.5 40 -50.5s14.5 -46.833 14.5 -77.5
v-246c0 -21.333 3.5 -37.166 10.5 -47.499s21.833 -12.833 44.5 -7.5h3v-59c-5.33301 -2 -11.333 -3.83301 -18 -5.5s-15.334 -2.5 -26.001 -2.5zM217 51.999c26.667 0 50 4.50195 70 13.502s36.333 20.167 49 33.5s22.167 28.166 28.5 44.499s9.5 32.166 9.5 47.499v88
c-13.333 -8.66699 -30.833 -16.167 -52.5 -22.5s-43.5 -11.5 -65.5 -15.5c-20 -4 -39 -8 -57 -12s-33.5 -9.83301 -46.5 -17.5s-23.333 -17.5 -31 -29.5s-11.5 -27.333 -11.5 -46c0 -17.333 3.16699 -31.5 9.5 -42.5s14.5 -19.5 24.5 -25.5s21.333 -10.167 34 -12.5
s25.667 -3.5 39 -3.5zM256 604.001c-17.333 0 -33.3311 2.66406 -47.998 7.99707s-27.834 12.833 -39.501 22.5s-21 21.334 -28 35.001s-10.833 28.834 -11.5 45.501h60c3.33301 -15.333 10.166 -27.333 20.499 -36s25.5 -13 45.5 -13s35.833 4.33301 47.5 13
s19.167 20.667 22.5 36h58c-0.666992 -15.333 -4.16699 -29.666 -10.5 -42.999s-15 -25 -26 -35s-24.167 -18 -39.5 -24s-32.333 -9 -51 -9z" />
    <glyph glyph-name="Aogonek" unicode="&#x104;" horiz-adv-x="648" 
d="M592 -172c-33.333 0 -58.499 7.33203 -75.499 21.999s-25.5 33.667 -25.5 57c0 18 5.16699 34.333 15.5 49s22.166 27.334 35.499 38.001l-78 224h-285l-77 -218h-92l263 715h101l261 -706c-20 -16 -36.333 -31.333 -49 -46s-19 -29 -19 -43c0 -22.667 13.333 -34 40 -34
c14 0 26.333 2.33301 37 7h3v-56c-6.66699 -2 -14.5 -4 -23.5 -6s-19.5 -3 -31.5 -3zM205.001 290.999h234l-82 240c-3.33301 10 -6.83301 20.833 -10.5 32.5s-7.16699 22.5 -10.5 32.5c-3.33301 12 -7 24 -11 36h-2c-4 -11.333 -7.66699 -23 -11 -35l-11 -33l-11 -33z" />
    <glyph glyph-name="aogonek" unicode="&#x105;" horiz-adv-x="510" 
d="M452 -172c-33.333 0 -58.501 7.33203 -75.501 21.999s-25.5 33.667 -25.5 57c0 11.333 2.16699 21.833 6.5 31.5s10 18.334 17 26.001s14.667 14.5 23 20.5s16.5 11 24.5 15c-27.333 10 -44 34 -50 72h-1c-8 -10 -17.333 -19.833 -28 -29.5s-23 -18.5 -37 -26.5
s-29.833 -14.333 -47.5 -19s-37.5 -7 -59.5 -7c-24.667 0 -47.667 2.83301 -69 8.5s-39.833 14.5 -55.5 26.5s-28 27 -37 45s-13.5 39.333 -13.5 64c0 30.667 5.66699 55.667 17 75s27 35 47 47s43.833 21.167 71.5 27.5s57.5 12.166 89.5 17.499
c18 2.66699 34.667 5.5 50 8.5s28.5 7 39.5 12s19.5 11.667 25.5 20s9 19.5 9 33.5c0 29.333 -10 51.833 -30 67.5s-48.667 23.5 -86 23.5c-42 0 -73.667 -9.16699 -95 -27.5s-32.666 -47.166 -33.999 -86.499h-78c0.666992 24.667 5.33398 47.834 14.001 69.501
s21.5 40.167 38.5 55.5s38.333 27.5 64 36.5s55.5 13.5 89.5 13.5c27.333 0 52.666 -2.83301 75.999 -8.5s43.5 -14.834 60.5 -27.501s30.333 -29.5 40 -50.5s14.5 -46.833 14.5 -77.5v-246c0 -21.333 3.5 -37.166 10.5 -47.499s21.833 -12.833 44.5 -7.5h3v-59
c-22 -6.66699 -40.5 -18.334 -55.5 -35.001s-22.5 -32.667 -22.5 -48c0 -22.667 13.333 -34 40 -34c14 0 26.333 2.33301 37 7h3v-56c-6.66699 -2 -14.5 -4 -23.5 -6s-19.5 -3 -31.5 -3zM216.999 51.999c26.667 0 50 4.50195 70 13.502s36.333 20.167 49 33.5
s22.167 28.166 28.5 44.499s9.5 32.166 9.5 47.499v88c-13.333 -8.66699 -30.833 -16.167 -52.5 -22.5s-43.5 -11.5 -65.5 -15.5c-20 -4 -39 -8 -57 -12s-33.5 -9.83301 -46.5 -17.5s-23.333 -17.5 -31 -29.5s-11.5 -27.333 -11.5 -46c0 -17.333 3.16699 -31.5 9.5 -42.5
s14.5 -19.5 24.5 -25.5s21.333 -10.167 34 -12.5s25.667 -3.5 39 -3.5z" />
    <glyph glyph-name="Cacute" unicode="&#x106;" horiz-adv-x="709" 
d="M375 -14c-50.667 0 -96.666 9.16602 -137.999 27.499s-76.5 44 -105.5 77s-51.5 72.333 -67.5 118s-24 95.5 -24 149.5c0 52.667 7.66699 101.667 23 147s37.5 84.666 66.5 117.999s64.5 59.666 106.5 78.999s89.667 29 143 29c42 0 79.667 -5.66699 113 -17
s62 -27.166 86 -47.499s43.5 -44.5 58.5 -72.5s24.833 -58.333 29.5 -91h-88c-8.66699 44.667 -30.167 80.834 -64.5 108.501s-79.833 41.5 -136.5 41.5c-39.333 0 -74.166 -7.5 -104.499 -22.5s-56 -35.667 -77 -62s-36.833 -57.5 -47.5 -93.5s-16 -75 -16 -117
c0 -44 5.83301 -84 17.5 -120s28.167 -66.833 49.5 -92.5s47.166 -45.5 77.499 -59.5s64.166 -21 101.499 -21c34 0 63.5 5.33301 88.5 16s46 25 63 43s30.167 39 39.5 63s15 49 17 75h89c-0.666992 -36 -8.83398 -72.167 -24.501 -108.5s-36.167 -67.166 -61.5 -92.499
c-51.333 -50 -122.666 -75 -213.999 -75zM387.001 873.999h100l-82 -121h-69z" />
    <glyph glyph-name="cacute" unicode="&#x107;" horiz-adv-x="519" 
d="M276 -14c-38.667 0 -73.3301 7.16992 -103.997 21.5029s-56.834 33.833 -78.501 58.5s-38.334 53.5 -50.001 86.5s-17.5 68.167 -17.5 105.5s5.83301 72.5 17.5 105.5s28.334 61.833 50.001 86.5s47.834 44.167 78.501 58.5s65.334 21.5 104.001 21.5
c61.333 0 111.166 -16.167 149.499 -48.5s62.166 -76.166 71.499 -131.499h-82c-6 35.333 -20.833 63 -44.5 83s-55.167 30 -94.5 30c-27.333 0 -51.5 -5.33301 -72.5 -16s-38.5 -25.334 -52.5 -44.001s-24.5 -40.334 -31.5 -65.001s-10.5 -51.334 -10.5 -80.001
s3.5 -55.334 10.5 -80.001s17.5 -46.167 31.5 -64.5s31.5 -32.833 52.5 -43.5s45.167 -16 72.5 -16c42 0 75.167 11.333 99.5 34s38.166 54 41.499 94h80c-5.33301 -62.667 -27.333 -111 -66 -145s-90.334 -51 -155.001 -51zM297.004 725.003h100l-82 -127h-69z" />
    <glyph glyph-name="Ccircumflex" unicode="&#x108;" horiz-adv-x="709" 
d="M375 -14c-50.667 0 -96.666 9.16602 -137.999 27.499s-76.5 44 -105.5 77s-51.5 72.333 -67.5 118s-24 95.5 -24 149.5c0 52.667 7.66699 101.667 23 147s37.5 84.666 66.5 117.999s64.5 59.666 106.5 78.999s89.667 29 143 29c42 0 79.667 -5.66699 113 -17
s62 -27.166 86 -47.499s43.5 -44.5 58.5 -72.5s24.833 -58.333 29.5 -91h-88c-8.66699 44.667 -30.167 80.834 -64.5 108.501s-79.833 41.5 -136.5 41.5c-39.333 0 -74.166 -7.5 -104.499 -22.5s-56 -35.667 -77 -62s-36.833 -57.5 -47.5 -93.5s-16 -75 -16 -117
c0 -44 5.83301 -84 17.5 -120s28.167 -66.833 49.5 -92.5s47.166 -45.5 77.499 -59.5s64.166 -21 101.499 -21c34 0 63.5 5.33301 88.5 16s46 25 63 43s30.167 39 39.5 63s15 49 17 75h89c-0.666992 -36 -8.83398 -72.167 -24.501 -108.5s-36.167 -67.166 -61.5 -92.499
c-51.333 -50 -122.666 -75 -213.999 -75zM329.001 862.999h92l89 -106h-87l-49 63h-2l-51 -63h-85z" />
    <glyph glyph-name="ccircumflex" unicode="&#x109;" horiz-adv-x="519" 
d="M276 -14c-38.667 0 -73.3301 7.16992 -103.997 21.5029s-56.834 33.833 -78.501 58.5s-38.334 53.5 -50.001 86.5s-17.5 68.167 -17.5 105.5s5.83301 72.5 17.5 105.5s28.334 61.833 50.001 86.5s47.834 44.167 78.501 58.5s65.334 21.5 104.001 21.5
c61.333 0 111.166 -16.167 149.499 -48.5s62.166 -76.166 71.499 -131.499h-82c-6 35.333 -20.833 63 -44.5 83s-55.167 30 -94.5 30c-27.333 0 -51.5 -5.33301 -72.5 -16s-38.5 -25.334 -52.5 -44.001s-24.5 -40.334 -31.5 -65.001s-10.5 -51.334 -10.5 -80.001
s3.5 -55.334 10.5 -80.001s17.5 -46.167 31.5 -64.5s31.5 -32.833 52.5 -43.5s45.167 -16 72.5 -16c42 0 75.167 11.333 99.5 34s38.166 54 41.499 94h80c-5.33301 -62.667 -27.333 -111 -66 -145s-90.334 -51 -155.001 -51zM234.004 708.003h92l89 -106h-87l-49 63h-2
l-51 -63h-85z" />
    <glyph glyph-name="Cdotaccent" unicode="&#x10a;" horiz-adv-x="709" 
d="M375 -14c-50.667 0 -96.666 9.16602 -137.999 27.499s-76.5 44 -105.5 77s-51.5 72.333 -67.5 118s-24 95.5 -24 149.5c0 52.667 7.66699 101.667 23 147s37.5 84.666 66.5 117.999s64.5 59.666 106.5 78.999s89.667 29 143 29c42 0 79.667 -5.66699 113 -17
s62 -27.166 86 -47.499s43.5 -44.5 58.5 -72.5s24.833 -58.333 29.5 -91h-88c-8.66699 44.667 -30.167 80.834 -64.5 108.501s-79.833 41.5 -136.5 41.5c-39.333 0 -74.166 -7.5 -104.499 -22.5s-56 -35.667 -77 -62s-36.833 -57.5 -47.5 -93.5s-16 -75 -16 -117
c0 -44 5.83301 -84 17.5 -120s28.167 -66.833 49.5 -92.5s47.166 -45.5 77.499 -59.5s64.166 -21 101.499 -21c34 0 63.5 5.33301 88.5 16s46 25 63 43s30.167 39 39.5 63s15 49 17 75h89c-0.666992 -36 -8.83398 -72.167 -24.501 -108.5s-36.167 -67.166 -61.5 -92.499
c-51.333 -50 -122.666 -75 -213.999 -75zM334.001 854.999h78v-95h-78v95z" />
    <glyph glyph-name="cdotaccent" unicode="&#x10b;" horiz-adv-x="519" 
d="M276 -14c-38.667 0 -73.3301 7.16992 -103.997 21.5029s-56.834 33.833 -78.501 58.5s-38.334 53.5 -50.001 86.5s-17.5 68.167 -17.5 105.5s5.83301 72.5 17.5 105.5s28.334 61.833 50.001 86.5s47.834 44.167 78.501 58.5s65.334 21.5 104.001 21.5
c61.333 0 111.166 -16.167 149.499 -48.5s62.166 -76.166 71.499 -131.499h-82c-6 35.333 -20.833 63 -44.5 83s-55.167 30 -94.5 30c-27.333 0 -51.5 -5.33301 -72.5 -16s-38.5 -25.334 -52.5 -44.001s-24.5 -40.334 -31.5 -65.001s-10.5 -51.334 -10.5 -80.001
s3.5 -55.334 10.5 -80.001s17.5 -46.167 31.5 -64.5s31.5 -32.833 52.5 -43.5s45.167 -16 72.5 -16c42 0 75.167 11.333 99.5 34s38.166 54 41.499 94h80c-5.33301 -62.667 -27.333 -111 -66 -145s-90.334 -51 -155.001 -51zM238.004 715.003h81v-100h-81v100z" />
    <glyph glyph-name="Ccaron" unicode="&#x10c;" horiz-adv-x="709" 
d="M375 -14c-50.667 0 -96.666 9.16602 -137.999 27.499s-76.5 44 -105.5 77s-51.5 72.333 -67.5 118s-24 95.5 -24 149.5c0 52.667 7.66699 101.667 23 147s37.5 84.666 66.5 117.999s64.5 59.666 106.5 78.999s89.667 29 143 29c42 0 79.667 -5.66699 113 -17
s62 -27.166 86 -47.499s43.5 -44.5 58.5 -72.5s24.833 -58.333 29.5 -91h-88c-8.66699 44.667 -30.167 80.834 -64.5 108.501s-79.833 41.5 -136.5 41.5c-39.333 0 -74.166 -7.5 -104.499 -22.5s-56 -35.667 -77 -62s-36.833 -57.5 -47.5 -93.5s-16 -75 -16 -117
c0 -44 5.83301 -84 17.5 -120s28.167 -66.833 49.5 -92.5s47.166 -45.5 77.499 -59.5s64.166 -21 101.499 -21c34 0 63.5 5.33301 88.5 16s46 25 63 43s30.167 39 39.5 63s15 49 17 75h89c-0.666992 -36 -8.83398 -72.167 -24.501 -108.5s-36.167 -67.166 -61.5 -92.499
c-51.333 -50 -122.666 -75 -213.999 -75zM236.001 862.999h87l49 -63h2l51 63h85l-93 -106h-92z" />
    <glyph glyph-name="ccaron" unicode="&#x10d;" horiz-adv-x="519" 
d="M276 -14c-38.667 0 -73.3301 7.16992 -103.997 21.5029s-56.834 33.833 -78.501 58.5s-38.334 53.5 -50.001 86.5s-17.5 68.167 -17.5 105.5s5.83301 72.5 17.5 105.5s28.334 61.833 50.001 86.5s47.834 44.167 78.501 58.5s65.334 21.5 104.001 21.5
c61.333 0 111.166 -16.167 149.499 -48.5s62.166 -76.166 71.499 -131.499h-82c-6 35.333 -20.833 63 -44.5 83s-55.167 30 -94.5 30c-27.333 0 -51.5 -5.33301 -72.5 -16s-38.5 -25.334 -52.5 -44.001s-24.5 -40.334 -31.5 -65.001s-10.5 -51.334 -10.5 -80.001
s3.5 -55.334 10.5 -80.001s17.5 -46.167 31.5 -64.5s31.5 -32.833 52.5 -43.5s45.167 -16 72.5 -16c42 0 75.167 11.333 99.5 34s38.166 54 41.499 94h80c-5.33301 -62.667 -27.333 -111 -66 -145s-90.334 -51 -155.001 -51zM141.004 708.003h87l49 -63h2l51 63h85l-93 -106
h-92z" />
    <glyph glyph-name="Dcaron" unicode="&#x10e;" horiz-adv-x="684" 
d="M67 715l260 -0.000976562c54 0 100.833 -8.66699 140.5 -26s72.5 -41.833 98.5 -73.5s45.5 -69.667 58.5 -114s19.5 -93.166 19.5 -146.499s-6.83301 -101.833 -20.5 -145.5s-34 -81 -61 -112s-60.667 -55 -101 -72s-87.5 -25.5 -141.5 -25.5h-253v715zM317 78.999
c42 0 77.833 6.49805 107.5 19.498s54 31.5 73 55.5s32.833 53 41.5 87s13 72 13 114s-4 80.333 -12 115s-21 64.334 -39 89.001s-41.5 43.834 -70.5 57.501s-64.5 20.5 -106.5 20.5h-167v-558h160zM177 862.997h87l49 -63h2l51 63h85l-93 -106h-92z" />
    <glyph glyph-name="dcaron" unicode="&#x10f;" horiz-adv-x="553" 
d="M255 -15c-35.333 0 -67.167 6.33008 -95.5 18.9971s-52.333 30.834 -72 54.501s-34.834 52.334 -45.501 86.001s-16 71.167 -16 112.5c0 42.667 5.83301 81 17.5 115s27.667 62.5 48 85.5s44.333 40.667 72 53s57.5 18.5 89.5 18.5c36.667 0 68.667 -8 96 -24
s49.333 -36.333 66 -61h2v271h81v-715h-81v63h-2c-19.333 -25.333 -41.666 -44.666 -66.999 -57.999s-56.333 -20 -93 -20zM257.999 52.9971c28.667 0 53.333 5.16602 74 15.499s37.667 24.5 51 42.5s23.166 39.333 29.499 64s9.5 51.667 9.5 81c0 30 -3.5 57.5 -10.5 82.5
s-17.5 46.5 -31.5 64.5s-31.333 32 -52 42s-44.334 15 -71.001 15c-24.667 0 -46.167 -5.16699 -64.5 -15.5s-33.666 -24.666 -45.999 -42.999s-21.666 -40 -27.999 -65s-9.5 -51.833 -9.5 -80.5c0 -29.333 3.16699 -56.333 9.5 -81s15.666 -46 27.999 -64
s27.833 -32.167 46.5 -42.5s40.334 -15.5 65.001 -15.5zM635.998 634.996c0 -30 -8.33301 -52.001 -25 -66.001s-36.667 -22.667 -60 -26v38c13.333 4 23.333 9.83301 30 17.5s10 19.834 10 36.501h-40v80h85v-80z" />
    <glyph glyph-name="Dcroat" unicode="&#x110;" horiz-adv-x="695" 
d="M5 397l73 -0.000976562v318h260c54 0 100.833 -8.66699 140.5 -26s72.5 -41.833 98.5 -73.5s45.5 -69.667 58.5 -114s19.5 -93.166 19.5 -146.499s-6.83301 -101.833 -20.5 -145.5s-34 -81 -61 -112s-60.667 -55 -101 -72s-87.5 -25.5 -141.5 -25.5h-253v321h-73v76z
M328 78.999c42 0 77.833 6.49805 107.5 19.498s54 31.5 73 55.5s32.833 53 41.5 87s13 72 13 114s-4 80.333 -12 115s-21 64.334 -39 89.001s-41.5 43.834 -70.5 57.501s-64.5 20.5 -106.5 20.5h-167v-240h207v-76h-207v-242h160z" />
    <glyph glyph-name="dcroat" unicode="&#x111;" horiz-adv-x="553" 
d="M282 641l134.999 -0.00292969v74h81v-74h63v-63h-63v-578h-81v63h-2c-19.333 -25.333 -41.666 -44.666 -66.999 -57.999s-56.333 -20 -93 -20c-35.333 0 -67.166 6.33301 -95.499 19s-52.333 30.834 -72 54.501s-34.834 52.334 -45.501 86.001s-16 71.167 -16 112.5
c0 42.667 5.83301 81 17.5 115s27.667 62.5 48 85.5s44.333 40.667 72 53s57.5 18.5 89.5 18.5c36.667 0 68.667 -8 96 -24s49.333 -36.333 66 -61h2v134h-135v63zM257.999 52.9971c28.667 0 53.333 5.16602 74 15.499s37.667 24.5 51 42.5s23.166 39.333 29.499 64
s9.5 51.667 9.5 81c0 30 -3.5 57.5 -10.5 82.5s-17.5 46.5 -31.5 64.5s-31.333 32 -52 42s-44.334 15 -71.001 15c-24.667 0 -46.167 -5.16699 -64.5 -15.5s-33.666 -24.666 -45.999 -42.999s-21.666 -40 -27.999 -65s-9.5 -51.833 -9.5 -80.5
c0 -29.333 3.16699 -56.333 9.5 -81s15.666 -46 27.999 -64s27.833 -32.167 46.5 -42.5s40.334 -15.5 65.001 -15.5z" />
    <glyph glyph-name="Emacron" unicode="&#x112;" horiz-adv-x="622" 
d="M67 715h505v-79h-415v-226h377v-76h-377v-251h427v-83h-517v715zM202 827h258v-67h-258v67z" />
    <glyph glyph-name="emacron" unicode="&#x113;" horiz-adv-x="533" 
d="M276 -14c-39.333 0 -74.502 7.16992 -105.502 21.5029s-57.167 33.833 -78.5 58.5s-37.666 53.5 -48.999 86.5s-17 68.167 -17 105.5s5.83301 72.5 17.5 105.5s28.334 61.833 50.001 86.5s47.5 44.167 77.5 58.5s63.333 21.5 100 21.5
c38.667 0 72.834 -7.16699 102.501 -21.5s54.5 -34.333 74.5 -60s35.167 -56.334 45.5 -92.001s15.5 -74.834 15.5 -117.501h-400c1.33301 -26 6 -50.333 14 -73s19 -42.334 33 -59.001s31 -29.667 51 -39s43 -14 69 -14c38 0 69 8.83301 93 26.5s40.667 44.167 50 79.5h79
c-12 -56 -37.333 -99 -76 -129s-87.334 -45 -146.001 -45zM270.998 466.003c-24 0 -45.3311 -4.16797 -63.998 -12.501s-34.5 -20 -47.5 -35s-23.667 -32.667 -32 -53s-13.833 -42.166 -16.5 -65.499h311c-2.66699 52 -16.834 92.667 -42.501 122s-61.834 44 -108.501 44z
M142 689.002h258v-67h-258v67z" />
    <glyph glyph-name="Ebreve" unicode="&#x114;" horiz-adv-x="622" 
d="M67 715h505v-79h-415v-226h377v-76h-377v-251h427v-83h-517v715zM331 759c-17.333 0 -33.3311 2.66406 -47.998 7.99707s-27.834 12.833 -39.501 22.5s-21 21.334 -28 35.001s-10.833 28.834 -11.5 45.501h60c3.33301 -15.333 10.166 -27.333 20.499 -36
s25.5 -13 45.5 -13s35.833 4.33301 47.5 13s19.167 20.667 22.5 36h58c-0.666992 -15.333 -4.16699 -29.666 -10.5 -42.999s-15 -25 -26 -35s-24.167 -18 -39.5 -24s-32.333 -9 -51 -9z" />
    <glyph glyph-name="ebreve" unicode="&#x115;" horiz-adv-x="533" 
d="M276 -14c-39.333 0 -74.502 7.16992 -105.502 21.5029s-57.167 33.833 -78.5 58.5s-37.666 53.5 -48.999 86.5s-17 68.167 -17 105.5s5.83301 72.5 17.5 105.5s28.334 61.833 50.001 86.5s47.5 44.167 77.5 58.5s63.333 21.5 100 21.5
c38.667 0 72.834 -7.16699 102.501 -21.5s54.5 -34.333 74.5 -60s35.167 -56.334 45.5 -92.001s15.5 -74.834 15.5 -117.501h-400c1.33301 -26 6 -50.333 14 -73s19 -42.334 33 -59.001s31 -29.667 51 -39s43 -14 69 -14c38 0 69 8.83301 93 26.5s40.667 44.167 50 79.5h79
c-12 -56 -37.333 -99 -76 -129s-87.334 -45 -146.001 -45zM270.998 466.003c-24 0 -45.3311 -4.16797 -63.998 -12.501s-34.5 -20 -47.5 -35s-23.667 -32.667 -32 -53s-13.833 -42.166 -16.5 -65.499h311c-2.66699 52 -16.834 92.667 -42.501 122s-61.834 44 -108.501 44z
M271 604.002c-17.333 0 -33.3311 2.66406 -47.998 7.99707s-27.834 12.833 -39.501 22.5s-21 21.334 -28 35.001s-10.833 28.834 -11.5 45.501h60c3.33301 -15.333 10.166 -27.333 20.499 -36s25.5 -13 45.5 -13s35.833 4.33301 47.5 13s19.167 20.667 22.5 36h58
c-0.666992 -15.333 -4.16699 -29.666 -10.5 -42.999s-15 -25 -26 -35s-24.167 -18 -39.5 -24s-32.333 -9 -51 -9z" />
    <glyph glyph-name="Edotaccent" unicode="&#x116;" horiz-adv-x="622" 
d="M67 715h505v-79h-415v-226h377v-76h-377v-251h427v-83h-517v715zM292 855h78v-95h-78v95z" />
    <glyph glyph-name="edotaccent" unicode="&#x117;" horiz-adv-x="533" 
d="M276 -14c-39.333 0 -74.502 7.16992 -105.502 21.5029s-57.167 33.833 -78.5 58.5s-37.666 53.5 -48.999 86.5s-17 68.167 -17 105.5s5.83301 72.5 17.5 105.5s28.334 61.833 50.001 86.5s47.5 44.167 77.5 58.5s63.333 21.5 100 21.5
c38.667 0 72.834 -7.16699 102.501 -21.5s54.5 -34.333 74.5 -60s35.167 -56.334 45.5 -92.001s15.5 -74.834 15.5 -117.501h-400c1.33301 -26 6 -50.333 14 -73s19 -42.334 33 -59.001s31 -29.667 51 -39s43 -14 69 -14c38 0 69 8.83301 93 26.5s40.667 44.167 50 79.5h79
c-12 -56 -37.333 -99 -76 -129s-87.334 -45 -146.001 -45zM270.998 466.003c-24 0 -45.3311 -4.16797 -63.998 -12.501s-34.5 -20 -47.5 -35s-23.667 -32.667 -32 -53s-13.833 -42.166 -16.5 -65.499h311c-2.66699 52 -16.834 92.667 -42.501 122s-61.834 44 -108.501 44z
M231 715.002h81v-100h-81v100z" />
    <glyph glyph-name="Eogonek" unicode="&#x118;" horiz-adv-x="622" 
d="M67 715l505 0.000976562v-79h-415v-226h377v-76h-377v-251h427v-83h-61c-15.333 -12.667 -28.833 -25.667 -40.5 -39s-17.5 -27 -17.5 -41c0 -22.667 13.333 -34 40 -34c14 0 26.333 2.33301 37 7h3v-56c-6.66699 -2 -14.5 -4 -23.5 -6s-19.5 -3 -31.5 -3
c-33.333 0 -58.5 7.33301 -75.5 22s-25.5 33.667 -25.5 57c0 20 6.33301 38.167 19 54.5s26.667 29.166 42 38.499h-383v715z" />
    <glyph glyph-name="eogonek" unicode="&#x119;" horiz-adv-x="533" 
d="M361 -172c-33.333 0 -58.5029 7.33691 -75.5029 22.0039s-25.5 33.667 -25.5 57c0 18 5.33301 33.667 16 47s22.667 24.666 36 33.999c-6 -0.666992 -12 -1.16699 -18 -1.5s-12 -0.5 -18 -0.5c-39.333 0 -74.5 7.16699 -105.5 21.5s-57.167 33.833 -78.5 58.5
s-37.666 53.5 -48.999 86.5s-17 68.167 -17 105.5s5.83301 72.5 17.5 105.5s28.334 61.833 50.001 86.5s47.5 44.167 77.5 58.5s63.333 21.5 100 21.5c38.667 0 72.834 -7.16699 102.501 -21.5s54.5 -34.333 74.5 -60s35.167 -56.334 45.5 -92.001
s15.5 -74.834 15.5 -117.501h-400c1.33301 -26 6 -50.333 14 -73s19 -42.334 33 -59.001s31 -29.667 51 -39s43 -14 69 -14c38 0 69 8.83301 93 26.5s40.667 44.167 50 79.5h79c-6.66699 -30 -16.667 -55.5 -30 -76.5s-30 -40.5 -50 -58.5
c-23.333 -21.333 -42.833 -40.333 -58.5 -57s-23.5 -32.667 -23.5 -48c0 -22.667 13.333 -34 40 -34c14 0 26.333 2.33301 37 7h3v-56c-6.66699 -2 -14.5 -4 -23.5 -6s-19.5 -3 -31.5 -3zM270.997 466.004c-24 0 -45.3311 -4.16797 -63.998 -12.501s-34.5 -20 -47.5 -35
s-23.667 -32.667 -32 -53s-13.833 -42.166 -16.5 -65.499h311c-2.66699 52 -16.834 92.667 -42.501 122s-61.834 44 -108.501 44z" />
    <glyph glyph-name="Ecaron" unicode="&#x11a;" horiz-adv-x="622" 
d="M67 715h505v-79h-415v-226h377v-76h-377v-251h427v-83h-517v715zM194 863h87l49 -63h2l51 63h85l-93 -106h-92z" />
    <glyph glyph-name="ecaron" unicode="&#x11b;" horiz-adv-x="533" 
d="M276 -14c-39.333 0 -74.502 7.16992 -105.502 21.5029s-57.167 33.833 -78.5 58.5s-37.666 53.5 -48.999 86.5s-17 68.167 -17 105.5s5.83301 72.5 17.5 105.5s28.334 61.833 50.001 86.5s47.5 44.167 77.5 58.5s63.333 21.5 100 21.5
c38.667 0 72.834 -7.16699 102.501 -21.5s54.5 -34.333 74.5 -60s35.167 -56.334 45.5 -92.001s15.5 -74.834 15.5 -117.501h-400c1.33301 -26 6 -50.333 14 -73s19 -42.334 33 -59.001s31 -29.667 51 -39s43 -14 69 -14c38 0 69 8.83301 93 26.5s40.667 44.167 50 79.5h79
c-12 -56 -37.333 -99 -76 -129s-87.334 -45 -146.001 -45zM270.998 466.003c-24 0 -45.3311 -4.16797 -63.998 -12.501s-34.5 -20 -47.5 -35s-23.667 -32.667 -32 -53s-13.833 -42.166 -16.5 -65.499h311c-2.66699 52 -16.834 92.667 -42.501 122s-61.834 44 -108.501 44z
M134 708.002h87l49 -63h2l51 63h85l-93 -106h-92z" />
    <glyph glyph-name="Gcircumflex" unicode="&#x11c;" horiz-adv-x="742" 
d="M601 94l-2.00098 -0.00292969c-26 -36.667 -57.833 -64 -95.5 -82s-80.167 -27 -127.5 -27c-50 0 -95.667 9.16699 -137 27.5s-76.833 43.833 -106.5 76.5s-52.5 71.667 -68.5 117s-24 95 -24 149c0 52.667 7.33301 101.834 22 147.501s36.5 85.334 65.5 119.001
s65 60.167 108 79.5s92.5 29 148.5 29c41.333 0 78.666 -5.5 111.999 -16.5s62.333 -26.5 87 -46.5s44.667 -44.167 60 -72.5s26 -59.833 32 -94.5h-93c-10 48 -31.667 85.333 -65 112s-78.333 40 -135 40c-43.333 0 -80.666 -7.66699 -111.999 -23
s-57.166 -36.166 -77.499 -62.499s-35.5 -57.666 -45.5 -93.999s-15 -75.5 -15 -117.5c0 -44 6 -83.833 18 -119.5s29 -66.334 51 -92.001s48.167 -45.5 78.5 -59.5s63.5 -21 99.5 -21c36.667 0 68.5 5.83301 95.5 17.5s49.5 27.5 67.5 47.5s31.333 43.333 40 70
s13 55 13 85v17h-215v78h305v-378h-58zM333.999 862.997h92l89 -106h-87l-49 63h-2l-51 -63h-85z" />
    <glyph glyph-name="gcircumflex" unicode="&#x11d;" horiz-adv-x="543" 
d="M261 -172c-67.333 0 -119.5 12.668 -156.5 38.001s-57.833 60.333 -62.5 105h75c4 -28.667 18.667 -49 44 -61s58 -18 98 -18c48 0 84.667 10.833 110 32.5s38 55.167 38 100.5v73h-2c-19.333 -24.667 -40.333 -44.167 -63 -58.5s-52.667 -21.5 -90 -21.5
c-33.333 0 -63.833 6.33301 -91.5 19s-51.5 30.334 -71.5 53.001s-35.5 49.667 -46.5 81s-16.5 65.666 -16.5 102.999c0 40 5.83301 75.833 17.5 107.5s27.667 58.5 48 80.5s43.833 38.667 70.5 50s55 17 85 17c38 0 69.5 -6.83301 94.5 -20.5s46.167 -32.834 63.5 -57.501
h2v66h81v-489c0 -34 -5.33301 -63.5 -16 -88.5s-26 -45.833 -46 -62.5s-44 -29 -72 -37s-59 -12 -93 -12zM256 86.001c30 0 55 4.83398 75 14.501s36 23.167 48 40.5s20.667 37.666 26 60.999s8 48.666 8 75.999c0 56.667 -12.5 101.334 -37.5 134.001s-65.167 49 -120.5 49
c-48.667 0 -85.167 -17.333 -109.5 -52s-36.5 -80 -36.5 -136c0 -56.667 12.5 -102 37.5 -136s61.5 -51 109.5 -51zM222 708.002h92l89 -106h-87l-49 63h-2l-51 -63h-85z" />
    <glyph glyph-name="Gbreve" unicode="&#x11e;" horiz-adv-x="742" 
d="M601 94l-2.00098 -0.00292969c-26 -36.667 -57.833 -64 -95.5 -82s-80.167 -27 -127.5 -27c-50 0 -95.667 9.16699 -137 27.5s-76.833 43.833 -106.5 76.5s-52.5 71.667 -68.5 117s-24 95 -24 149c0 52.667 7.33301 101.834 22 147.501s36.5 85.334 65.5 119.001
s65 60.167 108 79.5s92.5 29 148.5 29c41.333 0 78.666 -5.5 111.999 -16.5s62.333 -26.5 87 -46.5s44.667 -44.167 60 -72.5s26 -59.833 32 -94.5h-93c-10 48 -31.667 85.333 -65 112s-78.333 40 -135 40c-43.333 0 -80.666 -7.66699 -111.999 -23
s-57.166 -36.166 -77.499 -62.499s-35.5 -57.666 -45.5 -93.999s-15 -75.5 -15 -117.5c0 -44 6 -83.833 18 -119.5s29 -66.334 51 -92.001s48.167 -45.5 78.5 -59.5s63.5 -21 99.5 -21c36.667 0 68.5 5.83301 95.5 17.5s49.5 27.5 67.5 47.5s31.333 43.333 40 70
s13 55 13 85v17h-215v78h305v-378h-58zM377.999 758.997c-17.333 0 -33.3311 2.66406 -47.998 7.99707s-27.834 12.833 -39.501 22.5s-21 21.334 -28 35.001s-10.833 28.834 -11.5 45.501h60c3.33301 -15.333 10.166 -27.333 20.499 -36s25.5 -13 45.5 -13
s35.833 4.33301 47.5 13s19.167 20.667 22.5 36h58c-0.666992 -15.333 -4.16699 -29.666 -10.5 -42.999s-15 -25 -26 -35s-24.167 -18 -39.5 -24s-32.333 -9 -51 -9z" />
    <glyph glyph-name="gbreve" unicode="&#x11f;" horiz-adv-x="543" 
d="M261 -172c-67.333 0 -119.5 12.668 -156.5 38.001s-57.833 60.333 -62.5 105h75c4 -28.667 18.667 -49 44 -61s58 -18 98 -18c48 0 84.667 10.833 110 32.5s38 55.167 38 100.5v73h-2c-19.333 -24.667 -40.333 -44.167 -63 -58.5s-52.667 -21.5 -90 -21.5
c-33.333 0 -63.833 6.33301 -91.5 19s-51.5 30.334 -71.5 53.001s-35.5 49.667 -46.5 81s-16.5 65.666 -16.5 102.999c0 40 5.83301 75.833 17.5 107.5s27.667 58.5 48 80.5s43.833 38.667 70.5 50s55 17 85 17c38 0 69.5 -6.83301 94.5 -20.5s46.167 -32.834 63.5 -57.501
h2v66h81v-489c0 -34 -5.33301 -63.5 -16 -88.5s-26 -45.833 -46 -62.5s-44 -29 -72 -37s-59 -12 -93 -12zM256 86.001c30 0 55 4.83398 75 14.501s36 23.167 48 40.5s20.667 37.666 26 60.999s8 48.666 8 75.999c0 56.667 -12.5 101.334 -37.5 134.001s-65.167 49 -120.5 49
c-48.667 0 -85.167 -17.333 -109.5 -52s-36.5 -80 -36.5 -136c0 -56.667 12.5 -102 37.5 -136s61.5 -51 109.5 -51zM266 604.002c-17.333 0 -33.3311 2.66406 -47.998 7.99707s-27.834 12.833 -39.501 22.5s-21 21.334 -28 35.001s-10.833 28.834 -11.5 45.501h60
c3.33301 -15.333 10.166 -27.333 20.499 -36s25.5 -13 45.5 -13s35.833 4.33301 47.5 13s19.167 20.667 22.5 36h58c-0.666992 -15.333 -4.16699 -29.666 -10.5 -42.999s-15 -25 -26 -35s-24.167 -18 -39.5 -24s-32.333 -9 -51 -9z" />
    <glyph glyph-name="Gdotaccent" unicode="&#x120;" horiz-adv-x="742" 
d="M601 94l-2.00098 -0.00292969c-26 -36.667 -57.833 -64 -95.5 -82s-80.167 -27 -127.5 -27c-50 0 -95.667 9.16699 -137 27.5s-76.833 43.833 -106.5 76.5s-52.5 71.667 -68.5 117s-24 95 -24 149c0 52.667 7.33301 101.834 22 147.501s36.5 85.334 65.5 119.001
s65 60.167 108 79.5s92.5 29 148.5 29c41.333 0 78.666 -5.5 111.999 -16.5s62.333 -26.5 87 -46.5s44.667 -44.167 60 -72.5s26 -59.833 32 -94.5h-93c-10 48 -31.667 85.333 -65 112s-78.333 40 -135 40c-43.333 0 -80.666 -7.66699 -111.999 -23
s-57.166 -36.166 -77.499 -62.499s-35.5 -57.666 -45.5 -93.999s-15 -75.5 -15 -117.5c0 -44 6 -83.833 18 -119.5s29 -66.334 51 -92.001s48.167 -45.5 78.5 -59.5s63.5 -21 99.5 -21c36.667 0 68.5 5.83301 95.5 17.5s49.5 27.5 67.5 47.5s31.333 43.333 40 70
s13 55 13 85v17h-215v78h305v-378h-58zM338.999 854.997h78v-95h-78v95z" />
    <glyph glyph-name="gdotaccent" unicode="&#x121;" horiz-adv-x="543" 
d="M261 -172c-67.333 0 -119.5 12.668 -156.5 38.001s-57.833 60.333 -62.5 105h75c4 -28.667 18.667 -49 44 -61s58 -18 98 -18c48 0 84.667 10.833 110 32.5s38 55.167 38 100.5v73h-2c-19.333 -24.667 -40.333 -44.167 -63 -58.5s-52.667 -21.5 -90 -21.5
c-33.333 0 -63.833 6.33301 -91.5 19s-51.5 30.334 -71.5 53.001s-35.5 49.667 -46.5 81s-16.5 65.666 -16.5 102.999c0 40 5.83301 75.833 17.5 107.5s27.667 58.5 48 80.5s43.833 38.667 70.5 50s55 17 85 17c38 0 69.5 -6.83301 94.5 -20.5s46.167 -32.834 63.5 -57.501
h2v66h81v-489c0 -34 -5.33301 -63.5 -16 -88.5s-26 -45.833 -46 -62.5s-44 -29 -72 -37s-59 -12 -93 -12zM256 86.001c30 0 55 4.83398 75 14.501s36 23.167 48 40.5s20.667 37.666 26 60.999s8 48.666 8 75.999c0 56.667 -12.5 101.334 -37.5 134.001s-65.167 49 -120.5 49
c-48.667 0 -85.167 -17.333 -109.5 -52s-36.5 -80 -36.5 -136c0 -56.667 12.5 -102 37.5 -136s61.5 -51 109.5 -51zM226 715.002h81v-100h-81v100z" />
    <glyph glyph-name="uni0122" unicode="&#x122;" horiz-adv-x="742" 
d="M601 94l-2.00098 -0.00292969c-26 -36.667 -57.833 -64 -95.5 -82s-80.167 -27 -127.5 -27c-50 0 -95.667 9.16699 -137 27.5s-76.833 43.833 -106.5 76.5s-52.5 71.667 -68.5 117s-24 95 -24 149c0 52.667 7.33301 101.834 22 147.501s36.5 85.334 65.5 119.001
s65 60.167 108 79.5s92.5 29 148.5 29c41.333 0 78.666 -5.5 111.999 -16.5s62.333 -26.5 87 -46.5s44.667 -44.167 60 -72.5s26 -59.833 32 -94.5h-93c-10 48 -31.667 85.333 -65 112s-78.333 40 -135 40c-43.333 0 -80.666 -7.66699 -111.999 -23
s-57.166 -36.166 -77.499 -62.499s-35.5 -57.666 -45.5 -93.999s-15 -75.5 -15 -117.5c0 -44 6 -83.833 18 -119.5s29 -66.334 51 -92.001s48.167 -45.5 78.5 -59.5s63.5 -21 99.5 -21c36.667 0 68.5 5.83301 95.5 17.5s49.5 27.5 67.5 47.5s31.333 43.333 40 70
s13 55 13 85v17h-215v78h305v-378h-58zM334.999 -190.003c11.333 3.33301 20.833 8.83105 28.5 16.498s11.5 21.167 11.5 40.5h-39v89h85v-89c0 -33.333 -8.16699 -56.666 -24.5 -69.999s-36.833 -21.666 -61.5 -24.999v38z" />
    <glyph glyph-name="uni0123" unicode="&#x123;" horiz-adv-x="543" 
d="M261 -172c-67.333 0 -119.5 12.668 -156.5 38.001s-57.833 60.333 -62.5 105h75c4 -28.667 18.667 -49 44 -61s58 -18 98 -18c48 0 84.667 10.833 110 32.5s38 55.167 38 100.5v73h-2c-19.333 -24.667 -40.333 -44.167 -63 -58.5s-52.667 -21.5 -90 -21.5
c-33.333 0 -63.833 6.33301 -91.5 19s-51.5 30.334 -71.5 53.001s-35.5 49.667 -46.5 81s-16.5 65.666 -16.5 102.999c0 40 5.83301 75.833 17.5 107.5s27.667 58.5 48 80.5s43.833 38.667 70.5 50s55 17 85 17c38 0 69.5 -6.83301 94.5 -20.5s46.167 -32.834 63.5 -57.501
h2v66h81v-489c0 -34 -5.33301 -63.5 -16 -88.5s-26 -45.833 -46 -62.5s-44 -29 -72 -37s-59 -12 -93 -12zM256 86.001c30 0 55 4.83398 75 14.501s36 23.167 48 40.5s20.667 37.666 26 60.999s8 48.666 8 75.999c0 56.667 -12.5 101.334 -37.5 134.001s-65.167 49 -120.5 49
c-48.667 0 -85.167 -17.333 -109.5 -52s-36.5 -80 -36.5 -136c0 -56.667 12.5 -102 37.5 -136s61.5 -51 109.5 -51zM305 750.002c-11.333 -3.33301 -20.833 -8.83105 -28.5 -16.498s-11.5 -21.167 -11.5 -40.5h39v-89h-85v89c0 33.333 8.16699 56.666 24.5 69.999
s36.833 21.666 61.5 24.999v-38z" />
    <glyph glyph-name="Hcircumflex" unicode="&#x124;" horiz-adv-x="696" 
d="M67 715h90v-304h382v304h90v-715h-90v338h-382v-338h-90v715zM304 863h92l89 -106h-87l-49 63h-2l-51 -63h-85z" />
    <glyph glyph-name="hcircumflex" unicode="&#x125;" horiz-adv-x="528" 
d="M136 449h2.00098c18.667 24.667 41.167 44.167 67.5 58.5s58.5 21.5 96.5 21.5c54 0 96.5 -14.167 127.5 -42.5s46.5 -69.5 46.5 -123.5v-363h-81v356c0 34 -10.333 60 -31 78s-49.334 27 -86.001 27c-20.667 0 -39.667 -3.5 -57 -10.5s-32.333 -16.667 -45 -29
s-22.5 -27.333 -29.5 -45s-10.5 -37.167 -10.5 -58.5v-318h-81v715h81v-266zM221.001 863h92l89 -106h-87l-49 63h-2l-51 -63h-85z" />
    <glyph glyph-name="Hbar" unicode="&#x126;" horiz-adv-x="696" 
d="M-3 574h70v141h90v-141h382v141h90v-141h70v-68h-70v-506h-90v338h-382v-338h-90v506h-70v68zM539 411v95h-382v-95h382z" />
    <glyph glyph-name="hbar" unicode="&#x127;" horiz-adv-x="528" 
d="M-8 641h63.001v74h81v-74h135v-63h-135v-129h2c18.667 24.667 41.167 44.167 67.5 58.5s58.5 21.5 96.5 21.5c54 0 96.5 -14.167 127.5 -42.5s46.5 -69.5 46.5 -123.5v-363h-81v356c0 34 -10.333 60 -31 78s-49.334 27 -86.001 27c-20.667 0 -39.667 -3.5 -57 -10.5
s-32.333 -16.667 -45 -29s-22.5 -27.333 -29.5 -45s-10.5 -37.167 -10.5 -58.5v-318h-81v578h-63v63z" />
    <glyph glyph-name="Itilde" unicode="&#x128;" horiz-adv-x="228" 
d="M69 715h90v-715h-90v715zM178 760c-12 0 -23.666 1.66602 -34.999 4.99902s-22.166 7 -32.499 11s-20 7.66699 -29 11s-16.833 5 -23.5 5c-7.33301 0 -12.833 -2.66699 -16.5 -8s-5.83398 -12.666 -6.50098 -21.999h-60c2.66699 28.667 10.334 51.167 23.001 67.5
s30.667 24.5 54 24.5c13.333 0 25.166 -1.66699 35.499 -5s20 -7 29 -11s17.667 -7.66699 26 -11s17.166 -5 26.499 -5s15.833 3 19.5 9s6.16699 13 7.5 21h58c-1.33301 -25.333 -7.83301 -47 -19.5 -65s-30.5 -27 -56.5 -27z" />
    <glyph glyph-name="itilde" unicode="&#x129;" horiz-adv-x="191" 
d="M147 601c-9.33301 0 -18.6719 1.66699 -28.0049 5s-18.166 6.83301 -26.499 10.5s-16.166 7.16699 -23.499 10.5s-14 5 -20 5c-11.333 0 -17.666 -9.66699 -18.999 -29h-58c2 30 9 52.833 21 68.5s29.333 23.5 52 23.5c8.66699 0 17.5 -1.66699 26.5 -5
s17.833 -6.83301 26.5 -10.5s16.834 -7.16699 24.501 -10.5s14.167 -5 19.5 -5c8 0 13.333 2.83301 16 8.5s4.33398 12.5 5.00098 20.5h56c-1.33301 -26.667 -7.33301 -48.667 -18 -66s-28.667 -26 -54 -26zM54.9941 517h81v-517h-81v517z" />
    <glyph glyph-name="Imacron" unicode="&#x12a;" horiz-adv-x="228" 
d="M69 715h90v-715h-90v715zM5 827h218v-67h-218v67z" />
    <glyph glyph-name="imacron" unicode="&#x12b;" horiz-adv-x="191" 
d="M55 517h81v-517h-81v517zM-4 689h198v-67h-198v67z" />
    <glyph glyph-name="Ibreve" unicode="&#x12c;" horiz-adv-x="228" 
d="M69 715h90v-715h-90v715zM114 759c-17.333 0 -33.3311 2.66406 -47.998 7.99707s-27.834 12.833 -39.501 22.5s-21 21.334 -28 35.001s-10.833 28.834 -11.5 45.501h60c3.33301 -15.333 10.166 -27.333 20.499 -36s25.5 -13 45.5 -13s35.833 4.33301 47.5 13
s19.167 20.667 22.5 36h58c-0.666992 -15.333 -4.16699 -29.666 -10.5 -42.999s-15 -25 -26 -35s-24.167 -18 -39.5 -24s-32.333 -9 -51 -9z" />
    <glyph glyph-name="ibreve" unicode="&#x12d;" horiz-adv-x="191" 
d="M95 604c-17.333 0 -33.3311 2.66406 -47.998 7.99707s-27.834 12.833 -39.501 22.5s-21 21.334 -28 35.001s-10.833 28.834 -11.5 45.501h60c3.33301 -15.333 10.166 -27.333 20.499 -36s25.5 -13 45.5 -13s35.833 4.33301 47.5 13s19.167 20.667 22.5 36h58
c-0.666992 -15.333 -4.16699 -29.666 -10.5 -42.999s-15 -25 -26 -35s-24.167 -18 -39.5 -24s-32.333 -9 -51 -9zM55.002 516.997h81v-517h-81v517z" />
    <glyph glyph-name="Iogonek" unicode="&#x12e;" horiz-adv-x="228" 
d="M69 715l90 0.000976562v-713c-18 -13.333 -33 -26.833 -45 -40.5s-18 -27.5 -18 -41.5c0 -22.667 13.333 -34 40 -34c14 0 26.333 2.33301 37 7h3v-56c-6.66699 -2 -14.5 -4 -23.5 -6s-19.5 -3 -31.5 -3c-33.333 0 -58.5 7.33301 -75.5 22s-25.5 33.667 -25.5 57
c0 20 6.33301 38.167 19 54.5s26.667 29.166 42 38.499h-12v715z" />
    <glyph glyph-name="iogonek" unicode="&#x12f;" horiz-adv-x="191" 
d="M1 -93c0 19.333 5.50195 36.833 16.502 52.5s23.5 28.167 37.5 37.5v520h81v-515c-17.333 -13.333 -31.5 -26.833 -42.5 -40.5s-16.5 -27.5 -16.5 -41.5c0 -12 3.16699 -20.667 9.5 -26s15.166 -8 26.499 -8c13.333 0 25.333 2.33301 36 7h3v-56
c-6.66699 -2 -14.334 -4 -23.001 -6s-19 -3 -31 -3c-31.333 0 -55.333 7.33301 -72 22s-25 33.667 -25 57zM55.002 715h81v-100h-81v100z" />
    <glyph glyph-name="Idotaccent" unicode="&#x130;" horiz-adv-x="228" 
d="M69 715h90v-715h-90v715zM75 855h78v-95h-78v95z" />
    <glyph glyph-name="dotlessi" unicode="&#x131;" horiz-adv-x="191" 
d="M55 517h81v-517h-81v517z" />
    <glyph glyph-name="IJ" unicode="&#x132;" horiz-adv-x="708" 
d="M69 715h90v-715h-90v715zM443 -14c-32 0 -60.9971 4.50098 -86.9971 13.501s-48.167 23 -66.5 42s-32.333 43.5 -42 73.5s-14.5 65.667 -14.5 107v10h89v-7c0 -32 2.5 -58.5 7.5 -79.5s12.667 -37.833 23 -50.5s23.166 -21.667 38.499 -27s33.666 -8 54.999 -8
c36 0 64 9.83301 84 29.5s30 52.167 30 97.5v528h90v-534c0 -28.667 -4.33301 -54.834 -13 -78.501s-21.667 -44.167 -39 -61.5s-38.833 -30.833 -64.5 -40.5s-55.834 -14.5 -90.501 -14.5z" />
    <glyph glyph-name="ij" unicode="&#x133;" horiz-adv-x="382" 
d="M55 517h81v-517h-81v517zM55 715h81v-100h-81v100zM208 -147c-9.33301 0 -17.5 0.333008 -24.5 1s-13.833 1.66699 -20.5 3v66h2c10 -2 19.333 -3 28 -3c35.333 0 53 16.667 53 50v547h81v-551c0 -24 -3.16699 -43.333 -9.5 -58s-14.833 -26.167 -25.5 -34.5
s-23.167 -13.833 -37.5 -16.5s-29.833 -4 -46.5 -4zM246 715h81v-100h-81v100z" />
    <glyph glyph-name="Jcircumflex" unicode="&#x134;" horiz-adv-x="497" 
d="M232 -14c-32 0 -60.9971 4.50098 -86.9971 13.501s-48.167 23 -66.5 42s-32.333 43.5 -42 73.5s-14.5 65.667 -14.5 107v10h89v-7c0 -32 2.5 -58.5 7.5 -79.5s12.667 -37.833 23 -50.5s23.166 -21.667 38.499 -27s33.666 -8 54.999 -8c36 0 64 9.83301 84 29.5
s30 52.167 30 97.5v528h90v-534c0 -28.667 -4.33301 -54.834 -13 -78.501s-21.667 -44.167 -39 -61.5s-38.833 -30.833 -64.5 -40.5s-55.834 -14.5 -90.501 -14.5zM350.003 863.001h92l89 -106h-87l-49 63h-2l-51 -63h-85z" />
    <glyph glyph-name="jcircumflex" unicode="&#x135;" horiz-adv-x="191" 
d="M51 708h92l74 -106h-82l-39 61h-2l-41 -61h-80zM17 -147c-9.33301 0 -17.5 0.333008 -24.5 1s-13.833 1.66699 -20.5 3v66h2c10 -2 19.333 -3 28 -3c35.333 0 53 16.667 53 50v547h81v-551c0 -24 -3.16699 -43.333 -9.5 -58s-14.833 -26.167 -25.5 -34.5
s-23.167 -13.833 -37.5 -16.5s-29.833 -4 -46.5 -4z" />
    <glyph glyph-name="uni0136" unicode="&#x136;" horiz-adv-x="644" 
d="M67 715h90v-355l352 355h113l-289 -286l313 -429h-105l-269 368l-115 -115v-253h-90v715zM275 -190c11.333 3.33301 20.833 8.83105 28.5 16.498s11.5 21.167 11.5 40.5h-39v89h85v-89c0 -33.333 -8.16699 -56.666 -24.5 -69.999s-36.833 -21.666 -61.5 -24.999v38z" />
    <glyph glyph-name="uni0137" unicode="&#x137;" horiz-adv-x="489" 
d="M212 279l-76 -72v-207h-81v715h81v-419l227 221h103l-198 -186l222 -331h-95zM211 -190c11.333 3.33301 20.833 8.83105 28.5 16.498s11.5 21.167 11.5 40.5h-39v89h85v-89c0 -33.333 -8.16699 -56.666 -24.5 -69.999s-36.833 -21.666 -61.5 -24.999v38z" />
    <glyph glyph-name="kgreenlandic" unicode="&#x138;" horiz-adv-x="489" 
d="M212 279l-76 -72v-207h-81v517h81v-221l227 221h103l-198 -186l222 -331h-95z" />
    <glyph glyph-name="Lacute" unicode="&#x139;" horiz-adv-x="554" 
d="M67 715h90v-632h375v-83h-465v715zM126 874h100l-82 -121h-69z" />
    <glyph glyph-name="lacute" unicode="&#x13a;" horiz-adv-x="197" 
d="M58 715h81v-715h-81v715zM117 874h100l-82 -121h-69z" />
    <glyph glyph-name="uni013B" unicode="&#x13b;" horiz-adv-x="554" 
d="M67 715h90v-632h375v-83h-465v715zM262 -190c11.333 3.33301 20.833 8.83105 28.5 16.498s11.5 21.167 11.5 40.5h-39v89h85v-89c0 -33.333 -8.16699 -56.666 -24.5 -69.999s-36.833 -21.666 -61.5 -24.999v38z" />
    <glyph glyph-name="uni013C" unicode="&#x13c;" horiz-adv-x="197" 
d="M58 715h81v-715h-81v715zM55 -190c11.333 3.33301 20.833 8.83105 28.5 16.498s11.5 21.167 11.5 40.5h-39v89h85v-89c0 -33.333 -8.16699 -56.666 -24.5 -69.999s-36.833 -21.666 -61.5 -24.999v38z" />
    <glyph glyph-name="Lcaron" unicode="&#x13d;" horiz-adv-x="554" 
d="M67 715h90v-632h375v-83h-465v715zM403 635c0 -30 -8.33301 -52.001 -25 -66.001s-36.667 -22.667 -60 -26v38c13.333 4 23.333 9.83301 30 17.5s10 19.834 10 36.501h-40v80h85v-80z" />
    <glyph glyph-name="lcaron" unicode="&#x13e;" horiz-adv-x="197" 
d="M58 715h81v-715h-81v715zM277 635c0 -30 -8.33301 -52.001 -25 -66.001s-36.667 -22.667 -60 -26v38c13.333 4 23.333 9.83301 30 17.5s10 19.834 10 36.501h-40v80h85v-80z" />
    <glyph glyph-name="Ldot" unicode="&#x13f;" horiz-adv-x="554" 
d="M67 715h90v-632h375v-83h-465v715zM364 392h97v-99h-97v99z" />
    <glyph glyph-name="ldot" unicode="&#x140;" horiz-adv-x="294" 
d="M58 715h81v-715h-81v715zM194 392h97v-99h-97v99z" />
    <glyph glyph-name="Lslash" unicode="&#x141;" horiz-adv-x="554" 
d="M-5 278l72 38v399h90v-350l248 133v-77l-248 -133v-205h375v-83h-465v239l-72 -38v77z" />
    <glyph glyph-name="lslash" unicode="&#x142;" horiz-adv-x="227" 
d="M5 318l68 55v342h81v-277l79 64v-77l-79 -64v-361h-81v296l-68 -55v77z" />
    <glyph glyph-name="Nacute" unicode="&#x143;" horiz-adv-x="693" 
d="M67 715l95 0.00195312l326 -497c6 -9.33301 12 -19.333 18 -30s11.667 -20.667 17 -30c6 -10.667 11.667 -21.334 17 -32.001h2v589h84v-715h-92l-328 498c-6 8.66699 -12 18.167 -18 28.5s-11.667 20.166 -17 29.499c-6 10.667 -12 21 -18 31h-2v-587h-84v715z
M377 874.002h100l-82 -121h-69z" />
    <glyph glyph-name="nacute" unicode="&#x144;" horiz-adv-x="528" 
d="M136 449h2.00098c18.667 24.667 41.167 44.167 67.5 58.5s58.5 21.5 96.5 21.5c54 0 96.5 -14.167 127.5 -42.5s46.5 -69.5 46.5 -123.5v-363h-81v356c0 34 -10.333 60 -31 78s-49.334 27 -86.001 27c-20.667 0 -39.667 -3.5 -57 -10.5s-32.333 -16.667 -45 -29
s-22.5 -27.333 -29.5 -45s-10.5 -37.167 -10.5 -58.5v-318h-81v517h81v-68zM284.001 725h100l-82 -127h-69z" />
    <glyph glyph-name="uni0145" unicode="&#x145;" horiz-adv-x="693" 
d="M67 715l95 0.00195312l326 -497c6 -9.33301 12 -19.333 18 -30s11.667 -20.667 17 -30c6 -10.667 11.667 -21.334 17 -32.001h2v589h84v-715h-92l-328 498c-6 8.66699 -12 18.167 -18 28.5s-11.667 20.166 -17 29.499c-6 10.667 -12 21 -18 31h-2v-587h-84v715z
M291 -189.998c11.333 3.33301 20.833 8.83105 28.5 16.498s11.5 21.167 11.5 40.5h-39v89h85v-89c0 -33.333 -8.16699 -56.666 -24.5 -69.999s-36.833 -21.666 -61.5 -24.999v38z" />
    <glyph glyph-name="uni0146" unicode="&#x146;" horiz-adv-x="528" 
d="M136 449h2.00098c18.667 24.667 41.167 44.167 67.5 58.5s58.5 21.5 96.5 21.5c54 0 96.5 -14.167 127.5 -42.5s46.5 -69.5 46.5 -123.5v-363h-81v356c0 34 -10.333 60 -31 78s-49.334 27 -86.001 27c-20.667 0 -39.667 -3.5 -57 -10.5s-32.333 -16.667 -45 -29
s-22.5 -27.333 -29.5 -45s-10.5 -37.167 -10.5 -58.5v-318h-81v517h81v-68zM222.001 -190c11.333 3.33301 20.833 8.83105 28.5 16.498s11.5 21.167 11.5 40.5h-39v89h85v-89c0 -33.333 -8.16699 -56.666 -24.5 -69.999s-36.833 -21.666 -61.5 -24.999v38z" />
    <glyph glyph-name="Ncaron" unicode="&#x147;" horiz-adv-x="693" 
d="M67 715l95 0.00195312l326 -497c6 -9.33301 12 -19.333 18 -30s11.667 -20.667 17 -30c6 -10.667 11.667 -21.334 17 -32.001h2v589h84v-715h-92l-328 498c-6 8.66699 -12 18.167 -18 28.5s-11.667 20.166 -17 29.499c-6 10.667 -12 21 -18 31h-2v-587h-84v715z
M226 863.002h87l49 -63h2l51 63h85l-93 -106h-92z" />
    <glyph glyph-name="ncaron" unicode="&#x148;" horiz-adv-x="528" 
d="M136 449h2.00098c18.667 24.667 41.167 44.167 67.5 58.5s58.5 21.5 96.5 21.5c54 0 96.5 -14.167 127.5 -42.5s46.5 -69.5 46.5 -123.5v-363h-81v356c0 34 -10.333 60 -31 78s-49.334 27 -86.001 27c-20.667 0 -39.667 -3.5 -57 -10.5s-32.333 -16.667 -45 -29
s-22.5 -27.333 -29.5 -45s-10.5 -37.167 -10.5 -58.5v-318h-81v517h81v-68zM128.001 708h87l49 -63h2l51 63h85l-93 -106h-92z" />
    <glyph glyph-name="napostrophe" unicode="&#x149;" horiz-adv-x="528" 
d="M136 449h2.00098c18.667 24.667 41.167 44.167 67.5 58.5s58.5 21.5 96.5 21.5c54 0 96.5 -14.167 127.5 -42.5s46.5 -69.5 46.5 -123.5v-363h-81v356c0 34 -10.333 60 -31 78s-49.334 27 -86.001 27c-20.667 0 -39.667 -3.5 -57 -10.5s-32.333 -16.667 -45 -29
s-22.5 -27.333 -29.5 -45s-10.5 -37.167 -10.5 -58.5v-318h-81v517h81v-68zM73.001 635c0 -30 -8.33301 -52.001 -25 -66.001s-36.667 -22.667 -60 -26v38c13.333 4 23.333 9.83301 30 17.5s10 19.834 10 36.501h-40v80h85v-80z" />
    <glyph glyph-name="Eng" unicode="&#x14a;" horiz-adv-x="693" 
d="M67 715l95 0.00195312l326 -497c6 -9.33301 12 -19.333 18 -30s11.667 -20.667 17 -30c6 -10.667 11.667 -21.334 17 -32.001h2v589h84v-715c0 -24.667 -4.16699 -47.5 -12.5 -68.5s-20.666 -39.167 -36.999 -54.5s-37 -27.333 -62 -36s-54.167 -13 -87.5 -13
c-9.33301 0 -19 0.333008 -29 1s-19.667 2 -29 4v73c7.33301 -1.33301 14.666 -2.33301 21.999 -3s14.666 -1 21.999 -1c35.333 0 63.833 7.33301 85.5 22s34.834 38 39.501 70l-332 504c-6 8.66699 -12 18.167 -18 28.5s-11.667 20.166 -17 29.499c-6 10.667 -12 21 -18 31
h-2v-587h-84v715z" />
    <glyph glyph-name="eng" unicode="&#x14b;" horiz-adv-x="528" 
d="M395 356c0 34 -10.332 60 -30.999 78s-49.334 27 -86.001 27c-20.667 0 -39.667 -3.5 -57 -10.5s-32.333 -16.667 -45 -29s-22.5 -27.333 -29.5 -45s-10.5 -37.167 -10.5 -58.5v-318h-81v517h81v-68h2c18.667 24.667 41.167 44.167 67.5 58.5s58.5 21.5 96.5 21.5
c54 0 96.5 -14.167 127.5 -42.5s46.5 -69.5 46.5 -123.5v-397c0 -24 -3.16699 -43.333 -9.5 -58s-14.833 -26.167 -25.5 -34.5s-23.167 -13.833 -37.5 -16.5s-29.833 -4 -46.5 -4c-9.33301 0 -17.5 0.333008 -24.5 1s-13.833 1.66699 -20.5 3v66h2c10 -2 19.333 -3 28 -3
c35.333 0 53 16.667 53 50v386z" />
    <glyph glyph-name="Omacron" unicode="&#x14c;" horiz-adv-x="780" 
d="M390 -15c-54 0 -102.667 9.33301 -146 28s-80 44.667 -110 78s-53.167 72.833 -69.5 118.5s-24.5 95.167 -24.5 148.5s8.16699 102.833 24.5 148.5s39.5 85.167 69.5 118.5s66.667 59.333 110 78s92 28 146 28s102.667 -9.33301 146 -28s80 -44.667 110 -78
s53.167 -72.833 69.5 -118.5s24.5 -95.167 24.5 -148.5s-8.16699 -102.833 -24.5 -148.5s-39.5 -85.167 -69.5 -118.5s-66.667 -59.333 -110 -78s-92 -28 -146 -28zM390 64c42 0 79 7.5 111 22.5s59 35.5 81 61.5s38.5 57 49.5 93s16.5 75 16.5 117s-5.5 81 -16.5 117
s-27.5 67.167 -49.5 93.5s-49 47 -81 62s-69 22.5 -111 22.5s-79 -7.5 -111 -22.5s-59 -35.667 -81 -62s-38.5 -57.5 -49.5 -93.5s-16.5 -75 -16.5 -117s5.5 -81 16.5 -117s27.5 -67 49.5 -93s49 -46.5 81 -61.5s69 -22.5 111 -22.5zM261 827h258v-67h-258v67z" />
    <glyph glyph-name="omacron" unicode="&#x14d;" horiz-adv-x="551" 
d="M276 -14c-38.667 0 -73.334 7.16699 -104.001 21.5s-56.834 33.833 -78.501 58.5s-38.334 53.5 -50.001 86.5s-17.5 68.167 -17.5 105.5s5.83301 72.5 17.5 105.5s28.334 61.833 50.001 86.5s47.834 44.167 78.501 58.5s65.334 21.5 104.001 21.5
s73.334 -7.16699 104.001 -21.5s56.834 -33.833 78.501 -58.5s38.167 -53.5 49.5 -86.5s17 -68.167 17 -105.5s-5.66699 -72.5 -17 -105.5s-27.833 -61.833 -49.5 -86.5s-47.834 -44.167 -78.501 -58.5s-65.334 -21.5 -104.001 -21.5zM276 54c27.333 0 51.333 5.33301 72 16
s38 25.167 52 43.5s24.5 39.833 31.5 64.5s10.5 51.334 10.5 80.001s-3.5 55.334 -10.5 80.001s-17.5 46.334 -31.5 65.001s-31.333 33.334 -52 44.001s-44.667 16 -72 16s-51.5 -5.33301 -72.5 -16s-38.5 -25.334 -52.5 -44.001s-24.5 -40.334 -31.5 -65.001
s-10.5 -51.334 -10.5 -80.001s3.5 -55.334 10.5 -80.001s17.5 -46.167 31.5 -64.5s31.5 -32.833 52.5 -43.5s45.167 -16 72.5 -16zM146 689h258v-67h-258v67z" />
    <glyph glyph-name="Obreve" unicode="&#x14e;" horiz-adv-x="780" 
d="M390 -15c-54 0 -102.667 9.33301 -146 28s-80 44.667 -110 78s-53.167 72.833 -69.5 118.5s-24.5 95.167 -24.5 148.5s8.16699 102.833 24.5 148.5s39.5 85.167 69.5 118.5s66.667 59.333 110 78s92 28 146 28s102.667 -9.33301 146 -28s80 -44.667 110 -78
s53.167 -72.833 69.5 -118.5s24.5 -95.167 24.5 -148.5s-8.16699 -102.833 -24.5 -148.5s-39.5 -85.167 -69.5 -118.5s-66.667 -59.333 -110 -78s-92 -28 -146 -28zM390 64c42 0 79 7.5 111 22.5s59 35.5 81 61.5s38.5 57 49.5 93s16.5 75 16.5 117s-5.5 81 -16.5 117
s-27.5 67.167 -49.5 93.5s-49 47 -81 62s-69 22.5 -111 22.5s-79 -7.5 -111 -22.5s-59 -35.667 -81 -62s-38.5 -57.5 -49.5 -93.5s-16.5 -75 -16.5 -117s5.5 -81 16.5 -117s27.5 -67 49.5 -93s49 -46.5 81 -61.5s69 -22.5 111 -22.5zM390 759
c-17.333 0 -33.3311 2.66406 -47.998 7.99707s-27.834 12.833 -39.501 22.5s-21 21.334 -28 35.001s-10.833 28.834 -11.5 45.501h60c3.33301 -15.333 10.166 -27.333 20.499 -36s25.5 -13 45.5 -13s35.833 4.33301 47.5 13s19.167 20.667 22.5 36h58
c-0.666992 -15.333 -4.16699 -29.666 -10.5 -42.999s-15 -25 -26 -35s-24.167 -18 -39.5 -24s-32.333 -9 -51 -9z" />
    <glyph glyph-name="obreve" unicode="&#x14f;" horiz-adv-x="551" 
d="M276 -14c-38.667 0 -73.334 7.16699 -104.001 21.5s-56.834 33.833 -78.501 58.5s-38.334 53.5 -50.001 86.5s-17.5 68.167 -17.5 105.5s5.83301 72.5 17.5 105.5s28.334 61.833 50.001 86.5s47.834 44.167 78.501 58.5s65.334 21.5 104.001 21.5
s73.334 -7.16699 104.001 -21.5s56.834 -33.833 78.501 -58.5s38.167 -53.5 49.5 -86.5s17 -68.167 17 -105.5s-5.66699 -72.5 -17 -105.5s-27.833 -61.833 -49.5 -86.5s-47.834 -44.167 -78.501 -58.5s-65.334 -21.5 -104.001 -21.5zM276 54c27.333 0 51.333 5.33301 72 16
s38 25.167 52 43.5s24.5 39.833 31.5 64.5s10.5 51.334 10.5 80.001s-3.5 55.334 -10.5 80.001s-17.5 46.334 -31.5 65.001s-31.333 33.334 -52 44.001s-44.667 16 -72 16s-51.5 -5.33301 -72.5 -16s-38.5 -25.334 -52.5 -44.001s-24.5 -40.334 -31.5 -65.001
s-10.5 -51.334 -10.5 -80.001s3.5 -55.334 10.5 -80.001s17.5 -46.167 31.5 -64.5s31.5 -32.833 52.5 -43.5s45.167 -16 72.5 -16zM275 604c-17.333 0 -33.3311 2.66406 -47.998 7.99707s-27.834 12.833 -39.501 22.5s-21 21.334 -28 35.001s-10.833 28.834 -11.5 45.501h60
c3.33301 -15.333 10.166 -27.333 20.499 -36s25.5 -13 45.5 -13s35.833 4.33301 47.5 13s19.167 20.667 22.5 36h58c-0.666992 -15.333 -4.16699 -29.666 -10.5 -42.999s-15 -25 -26 -35s-24.167 -18 -39.5 -24s-32.333 -9 -51 -9z" />
    <glyph glyph-name="Ohungarumlaut" unicode="&#x150;" horiz-adv-x="780" 
d="M390 -15c-54 0 -102.667 9.33301 -146 28s-80 44.667 -110 78s-53.167 72.833 -69.5 118.5s-24.5 95.167 -24.5 148.5s8.16699 102.833 24.5 148.5s39.5 85.167 69.5 118.5s66.667 59.333 110 78s92 28 146 28s102.667 -9.33301 146 -28s80 -44.667 110 -78
s53.167 -72.833 69.5 -118.5s24.5 -95.167 24.5 -148.5s-8.16699 -102.833 -24.5 -148.5s-39.5 -85.167 -69.5 -118.5s-66.667 -59.333 -110 -78s-92 -28 -146 -28zM390 64c42 0 79 7.5 111 22.5s59 35.5 81 61.5s38.5 57 49.5 93s16.5 75 16.5 117s-5.5 81 -16.5 117
s-27.5 67.167 -49.5 93.5s-49 47 -81 62s-69 22.5 -111 22.5s-79 -7.5 -111 -22.5s-59 -35.667 -81 -62s-38.5 -57.5 -49.5 -93.5s-16.5 -75 -16.5 -117s5.5 -81 16.5 -117s27.5 -67 49.5 -93s49 -46.5 81 -61.5s69 -22.5 111 -22.5zM464 880h82l-52 -127h-61zM334 880h82
l-52 -127h-61z" />
    <glyph glyph-name="ohungarumlaut" unicode="&#x151;" horiz-adv-x="551" 
d="M276 -14c-38.667 0 -73.334 7.16699 -104.001 21.5s-56.834 33.833 -78.501 58.5s-38.334 53.5 -50.001 86.5s-17.5 68.167 -17.5 105.5s5.83301 72.5 17.5 105.5s28.334 61.833 50.001 86.5s47.834 44.167 78.501 58.5s65.334 21.5 104.001 21.5
s73.334 -7.16699 104.001 -21.5s56.834 -33.833 78.501 -58.5s38.167 -53.5 49.5 -86.5s17 -68.167 17 -105.5s-5.66699 -72.5 -17 -105.5s-27.833 -61.833 -49.5 -86.5s-47.834 -44.167 -78.501 -58.5s-65.334 -21.5 -104.001 -21.5zM276 54c27.333 0 51.333 5.33301 72 16
s38 25.167 52 43.5s24.5 39.833 31.5 64.5s10.5 51.334 10.5 80.001s-3.5 55.334 -10.5 80.001s-17.5 46.334 -31.5 65.001s-31.333 33.334 -52 44.001s-44.667 16 -72 16s-51.5 -5.33301 -72.5 -16s-38.5 -25.334 -52.5 -44.001s-24.5 -40.334 -31.5 -65.001
s-10.5 -51.334 -10.5 -80.001s3.5 -55.334 10.5 -80.001s17.5 -46.167 31.5 -64.5s31.5 -32.833 52.5 -43.5s45.167 -16 72.5 -16zM344 725h82l-52 -127h-61zM214 725h82l-52 -127h-61z" />
    <glyph glyph-name="OE" unicode="&#x152;" horiz-adv-x="1072" 
d="M367 -15c-48 0 -92.166 9.33301 -132.499 28s-74.833 44.667 -103.5 78s-51 72.833 -67 118.5s-24 95.167 -24 148.5s8.16699 102.833 24.5 148.5s39.166 85.167 68.499 118.5s63.833 59.333 103.5 78s83.167 28 130.5 28c38.667 0 73.167 -7.16699 103.5 -21.5
s56.5 -34.5 78.5 -60.5v66h473v-79h-383v-226h345v-76h-345v-251h395v-83h-485v56c-21.333 -22.667 -47 -40.167 -77 -52.5s-65 -18.5 -105 -18.5zM369.001 64c22 0 43.832 3 65.499 9s41 14.667 58 26s30.667 25 41 41s15.5 34.333 15.5 55v327
c-1.33301 19.333 -7.33301 37 -18 53s-24.334 29.833 -41.001 41.5s-35.5 20.667 -56.5 27s-42.5 9.5 -64.5 9.5c-37.333 0 -70.666 -7.5 -99.999 -22.5s-54.166 -35.667 -74.499 -62s-35.833 -57.5 -46.5 -93.5s-16 -75 -16 -117s5.33301 -81 16 -117s26 -67 46 -93
s44.667 -46.5 74 -61.5s63 -22.5 101 -22.5z" />
    <glyph glyph-name="oe" unicode="&#x153;" horiz-adv-x="858" 
d="M251 -14c-36 0 -68.001 7.1709 -96.001 21.5039s-51.5 33.833 -70.5 58.5s-33.5 53.5 -43.5 86.5s-15 68.167 -15 105.5s5 72.5 15 105.5s24.5 61.833 43.5 86.5s42.5 44.167 70.5 58.5s60 21.5 96 21.5c41.333 0 76.833 -10 106.5 -30s53.167 -47 70.5 -81
c17.333 34 41 61 71 81s67 30 111 30c37.333 0 70 -7.33301 98 -22s51.333 -34.834 70 -60.501s32.667 -56.334 42 -92.001s14 -74.5 14 -116.5h-368c1.33301 -26 5.33301 -50.333 12 -73s16.334 -42.334 29.001 -59.001s28.334 -29.667 47.001 -39s41 -14 67 -14
c34 0 61.167 9.5 81.5 28.5s34.166 44.833 41.499 77.5h79c-9.33301 -54.667 -31.833 -97.334 -67.5 -128.001s-80.5 -46 -134.5 -46c-47.333 0 -86.833 10.167 -118.5 30.5s-56.167 47.833 -73.5 82.5c-17.333 -34.667 -40.833 -62.167 -70.5 -82.5
s-65.5 -30.5 -107.5 -30.5zM250.999 54.0039c24 0 44.833 5.33301 62.5 16s32.334 25.167 44.001 43.5s20.334 39.833 26.001 64.5s8.5 51.334 8.5 80.001s-2.83301 55.334 -8.5 80.001s-14.334 46.334 -26.001 65.001s-26.334 33.334 -44.001 44.001s-38.5 16 -62.5 16
s-44.833 -5.33301 -62.5 -16s-32.5 -25.334 -44.5 -44.001s-20.833 -40.334 -26.5 -65.001s-8.5 -51.334 -8.5 -80.001s2.83301 -55.334 8.5 -80.001s14.5 -46.167 26.5 -64.5s26.833 -32.833 44.5 -43.5s38.5 -16 62.5 -16zM609.999 466.004
c-22 0 -41.332 -4.16797 -57.999 -12.501s-30.834 -20 -42.501 -35s-20.834 -32.667 -27.501 -53s-11.334 -42.166 -14.001 -65.499h279c-1.33301 52 -14.166 92.667 -38.499 122s-57.166 44 -98.499 44z" />
    <glyph glyph-name="Racute" unicode="&#x154;" horiz-adv-x="654" 
d="M67 715l334.002 0.00292969c31.333 0 60 -4.66699 86 -14s48.167 -22.666 66.5 -39.999s32.666 -38 42.999 -62s15.5 -50.667 15.5 -80c0 -44 -9.83301 -81 -29.5 -111s-51.167 -52 -94.5 -66v-3c18 -6.66699 33.167 -14.834 45.5 -24.501s22.5 -21.834 30.5 -36.501
s14 -31.834 18 -51.501s7 -42.834 9 -69.501c2 -28.667 4.16699 -52.334 6.5 -71.001s5 -33.667 8 -45s6 -19.833 9 -25.5s6.16699 -9.5 9.5 -11.5v-4h-97c-4 3.33301 -7.16699 7.83301 -9.5 13.5s-4.33301 14.334 -6 26.001s-3.33398 27.167 -5.00098 46.5s-3.5 44 -5.5 74
c-3.33301 52.667 -16.333 89.5 -39 110.5s-58 31.5 -106 31.5h-199v-302h-90v715zM157.002 375.003h212c50 0 87.5 11.667 112.5 35s37.5 55.333 37.5 96c0 44 -11 76.833 -33 98.5s-59.333 32.5 -112 32.5h-217v-262zM341.002 874.003h100l-82 -121h-69z" />
    <glyph glyph-name="racute" unicode="&#x155;" horiz-adv-x="343" 
d="M136 431l2.00098 -0.000976562c15.333 25.333 36.166 47 62.499 65s56.833 27 91.5 27c7.33301 0 13.333 -0.5 18 -1.5s9.66699 -2.5 15 -4.5v-78h-3c-6 2 -11.5 3.33301 -16.5 4s-11.5 1 -19.5 1c-20 0 -39 -3.66699 -57 -11s-34 -17.666 -48 -30.999
s-25 -29.833 -33 -49.5s-12 -41.5 -12 -65.5v-287h-81v517h81v-86zM216.001 724.999h100l-82 -127h-69z" />
    <glyph glyph-name="uni0156" unicode="&#x156;" horiz-adv-x="654" 
d="M67 715l334.002 0.00292969c31.333 0 60 -4.66699 86 -14s48.167 -22.666 66.5 -39.999s32.666 -38 42.999 -62s15.5 -50.667 15.5 -80c0 -44 -9.83301 -81 -29.5 -111s-51.167 -52 -94.5 -66v-3c18 -6.66699 33.167 -14.834 45.5 -24.501s22.5 -21.834 30.5 -36.501
s14 -31.834 18 -51.501s7 -42.834 9 -69.501c2 -28.667 4.16699 -52.334 6.5 -71.001s5 -33.667 8 -45s6 -19.833 9 -25.5s6.16699 -9.5 9.5 -11.5v-4h-97c-4 3.33301 -7.16699 7.83301 -9.5 13.5s-4.33301 14.334 -6 26.001s-3.33398 27.167 -5.00098 46.5s-3.5 44 -5.5 74
c-3.33301 52.667 -16.333 89.5 -39 110.5s-58 31.5 -106 31.5h-199v-302h-90v715zM157.002 375.003h212c50 0 87.5 11.667 112.5 35s37.5 55.333 37.5 96c0 44 -11 76.833 -33 98.5s-59.333 32.5 -112 32.5h-217v-262zM302.002 -189.997
c11.333 3.33301 20.833 8.83105 28.5 16.498s11.5 21.167 11.5 40.5h-39v89h85v-89c0 -33.333 -8.16699 -56.666 -24.5 -69.999s-36.833 -21.666 -61.5 -24.999v38z" />
    <glyph glyph-name="uni0157" unicode="&#x157;" horiz-adv-x="343" 
d="M136 431l2.00098 -0.000976562c15.333 25.333 36.166 47 62.499 65s56.833 27 91.5 27c7.33301 0 13.333 -0.5 18 -1.5s9.66699 -2.5 15 -4.5v-78h-3c-6 2 -11.5 3.33301 -16.5 4s-11.5 1 -19.5 1c-20 0 -39 -3.66699 -57 -11s-34 -17.666 -48 -30.999
s-25 -29.833 -33 -49.5s-12 -41.5 -12 -65.5v-287h-81v517h81v-86zM52.001 -190.001c11.333 3.33301 20.833 8.83105 28.5 16.498s11.5 21.167 11.5 40.5h-39v89h85v-89c0 -33.333 -8.16699 -56.666 -24.5 -69.999s-36.833 -21.666 -61.5 -24.999v38z" />
    <glyph glyph-name="Rcaron" unicode="&#x158;" horiz-adv-x="654" 
d="M67 715l334.002 0.00292969c31.333 0 60 -4.66699 86 -14s48.167 -22.666 66.5 -39.999s32.666 -38 42.999 -62s15.5 -50.667 15.5 -80c0 -44 -9.83301 -81 -29.5 -111s-51.167 -52 -94.5 -66v-3c18 -6.66699 33.167 -14.834 45.5 -24.501s22.5 -21.834 30.5 -36.501
s14 -31.834 18 -51.501s7 -42.834 9 -69.501c2 -28.667 4.16699 -52.334 6.5 -71.001s5 -33.667 8 -45s6 -19.833 9 -25.5s6.16699 -9.5 9.5 -11.5v-4h-97c-4 3.33301 -7.16699 7.83301 -9.5 13.5s-4.33301 14.334 -6 26.001s-3.33398 27.167 -5.00098 46.5s-3.5 44 -5.5 74
c-3.33301 52.667 -16.333 89.5 -39 110.5s-58 31.5 -106 31.5h-199v-302h-90v715zM157.002 375.003h212c50 0 87.5 11.667 112.5 35s37.5 55.333 37.5 96c0 44 -11 76.833 -33 98.5s-59.333 32.5 -112 32.5h-217v-262zM190.002 863.003h87l49 -63h2l51 63h85l-93 -106h-92z
" />
    <glyph glyph-name="rcaron" unicode="&#x159;" horiz-adv-x="343" 
d="M136 431l2.00098 -0.000976562c15.333 25.333 36.166 47 62.499 65s56.833 27 91.5 27c7.33301 0 13.333 -0.5 18 -1.5s9.66699 -2.5 15 -4.5v-78h-3c-6 2 -11.5 3.33301 -16.5 4s-11.5 1 -19.5 1c-20 0 -39 -3.66699 -57 -11s-34 -17.666 -48 -30.999
s-25 -29.833 -33 -49.5s-12 -41.5 -12 -65.5v-287h-81v517h81v-86zM60.001 707.999h87l49 -63h2l51 63h85l-93 -106h-92z" />
    <glyph glyph-name="Sacute" unicode="&#x15a;" horiz-adv-x="626" 
d="M327 -14c-50 0 -93.667 6.50488 -131 19.5049s-68.5 31 -93.5 54s-44.167 50.167 -57.5 81.5s-21 65 -23 101h88c12 -122.667 85.667 -184 221 -184c24.667 0 47.5 2.83301 68.5 8.5s39 14 54 25s26.667 25 35 42s12.5 36.5 12.5 58.5c0 24.667 -5.16699 45 -15.5 61
s-24.833 29.333 -43.5 40s-41.167 19.5 -67.5 26.5s-55.5 14.167 -87.5 21.5c-31.333 6.66699 -61.166 14.5 -89.499 23.5s-53.166 20.833 -74.499 35.5s-38.333 33.167 -51 55.5s-19 50.5 -19 84.5c0 29.333 5.83301 55.666 17.5 78.999s28.167 43.166 49.5 59.499
s47 28.833 77 37.5s63 13 99 13c44.667 0 83.167 -5.5 115.5 -16.5s59.166 -26.167 80.499 -45.5s38 -42.833 50 -70.5s20.333 -57.834 25 -90.501h-85c-6.66699 51.333 -25.834 89.666 -57.501 114.999s-73.834 38 -126.501 38c-48.667 0 -87.667 -9.83301 -117 -29.5
s-44 -48.167 -44 -85.5c0 -20 4.66699 -36.833 14 -50.5s22.333 -25.334 39 -35.001s36.5 -17.5 59.5 -23.5s47.833 -11.667 74.5 -17c34.667 -7.33301 68 -15.5 100 -24.5s60.333 -21.5 85 -37.5s44.334 -36.833 59.001 -62.5s22 -58.5 22 -98.5
c0 -33.333 -6.5 -63 -19.5 -89s-31.167 -47.833 -54.5 -65.5s-51 -31.167 -83 -40.5s-67.333 -14 -106 -14zM318 874.005h100l-82 -121h-69z" />
    <glyph glyph-name="sacute" unicode="&#x15b;" horiz-adv-x="478" 
d="M251 -15c-71.333 0 -126.336 15.833 -165.003 47.5s-60 76.834 -64 135.501h83c2.66699 -22.667 8.33398 -41.334 17.001 -56.001s19.5 -26.334 32.5 -35.001s27.833 -14.834 44.5 -18.501s34.667 -5.5 54 -5.5c42.667 0 73.334 8.16699 92.001 24.5s28 36.5 28 60.5
c0 14.667 -2.5 26.834 -7.5 36.501s-13 17.834 -24 24.501s-25 12.334 -42 17.001s-37.5 9.66699 -61.5 15c-25.333 5.33301 -49.666 11 -72.999 17s-43.833 14.5 -61.5 25.5s-31.834 25.5 -42.501 43.5s-16 41 -16 69c0 43.333 15.833 77.833 47.5 103.5
s77.834 38.5 138.501 38.5c64.667 0 113.167 -14.333 145.5 -43s51.5 -68.334 57.5 -119.001h-83c-4 34 -15.667 58.833 -35 74.5s-48.333 23.5 -87 23.5c-37.333 0 -64 -7.16699 -80 -21.5s-24 -31.833 -24 -52.5c0 -14 3 -25.5 9 -34.5s15 -16.5 27 -22.5
s26.667 -11 44 -15s37 -8.33301 59 -13c26 -5.33301 50.5 -11.166 73.5 -17.499s43.333 -15.333 61 -27s31.5 -26.834 41.5 -45.501s15 -43 15 -73c0 -26 -5 -48.833 -15 -68.5s-24 -36 -42 -49s-39.5 -22.833 -64.5 -29.5s-52.5 -10 -82.5 -10zM256.997 725h100l-82 -127
h-69z" />
    <glyph glyph-name="Scircumflex" unicode="&#x15c;" horiz-adv-x="626" 
d="M327 -14c-50 0 -93.667 6.50488 -131 19.5049s-68.5 31 -93.5 54s-44.167 50.167 -57.5 81.5s-21 65 -23 101h88c12 -122.667 85.667 -184 221 -184c24.667 0 47.5 2.83301 68.5 8.5s39 14 54 25s26.667 25 35 42s12.5 36.5 12.5 58.5c0 24.667 -5.16699 45 -15.5 61
s-24.833 29.333 -43.5 40s-41.167 19.5 -67.5 26.5s-55.5 14.167 -87.5 21.5c-31.333 6.66699 -61.166 14.5 -89.499 23.5s-53.166 20.833 -74.499 35.5s-38.333 33.167 -51 55.5s-19 50.5 -19 84.5c0 29.333 5.83301 55.666 17.5 78.999s28.167 43.166 49.5 59.499
s47 28.833 77 37.5s63 13 99 13c44.667 0 83.167 -5.5 115.5 -16.5s59.166 -26.167 80.499 -45.5s38 -42.833 50 -70.5s20.333 -57.834 25 -90.501h-85c-6.66699 51.333 -25.834 89.666 -57.501 114.999s-73.834 38 -126.501 38c-48.667 0 -87.667 -9.83301 -117 -29.5
s-44 -48.167 -44 -85.5c0 -20 4.66699 -36.833 14 -50.5s22.333 -25.334 39 -35.001s36.5 -17.5 59.5 -23.5s47.833 -11.667 74.5 -17c34.667 -7.33301 68 -15.5 100 -24.5s60.333 -21.5 85 -37.5s44.334 -36.833 59.001 -62.5s22 -58.5 22 -98.5
c0 -33.333 -6.5 -63 -19.5 -89s-31.167 -47.833 -54.5 -65.5s-51 -31.167 -83 -40.5s-67.333 -14 -106 -14zM260 863.005h92l89 -106h-87l-49 63h-2l-51 -63h-85z" />
    <glyph glyph-name="scircumflex" unicode="&#x15d;" horiz-adv-x="478" 
d="M251 -15c-71.333 0 -126.336 15.833 -165.003 47.5s-60 76.834 -64 135.501h83c2.66699 -22.667 8.33398 -41.334 17.001 -56.001s19.5 -26.334 32.5 -35.001s27.833 -14.834 44.5 -18.501s34.667 -5.5 54 -5.5c42.667 0 73.334 8.16699 92.001 24.5s28 36.5 28 60.5
c0 14.667 -2.5 26.834 -7.5 36.501s-13 17.834 -24 24.501s-25 12.334 -42 17.001s-37.5 9.66699 -61.5 15c-25.333 5.33301 -49.666 11 -72.999 17s-43.833 14.5 -61.5 25.5s-31.834 25.5 -42.501 43.5s-16 41 -16 69c0 43.333 15.833 77.833 47.5 103.5
s77.834 38.5 138.501 38.5c64.667 0 113.167 -14.333 145.5 -43s51.5 -68.334 57.5 -119.001h-83c-4 34 -15.667 58.833 -35 74.5s-48.333 23.5 -87 23.5c-37.333 0 -64 -7.16699 -80 -21.5s-24 -31.833 -24 -52.5c0 -14 3 -25.5 9 -34.5s15 -16.5 27 -22.5
s26.667 -11 44 -15s37 -8.33301 59 -13c26 -5.33301 50.5 -11.166 73.5 -17.499s43.333 -15.333 61 -27s31.5 -26.834 41.5 -45.501s15 -43 15 -73c0 -26 -5 -48.833 -15 -68.5s-24 -36 -42 -49s-39.5 -22.833 -64.5 -29.5s-52.5 -10 -82.5 -10zM193.997 708h92l89 -106h-87
l-49 63h-2l-51 -63h-85z" />
    <glyph glyph-name="Scedilla" unicode="&#x15e;" horiz-adv-x="626" 
d="M298 -191c-24.667 0 -45.666 2.83984 -62.999 8.50684s-32 12.5 -44 20.5l16 29c10.667 -4.66699 22.167 -8.33398 34.5 -11.001s24.833 -4 37.5 -4c16.667 0 30.5 2.5 41.5 7.5s16.5 13.167 16.5 24.5c0 18.667 -12.667 28 -38 28c-9.33301 0 -17 -0.666992 -23 -2
s-12 -3 -18 -5l-16 24l58 58c-46 2.66699 -86 11 -120 25s-62.333 32.167 -85 54.5s-40 48.5 -52 78.5s-19 62.333 -21 97h88c12 -122.667 85.667 -184 221 -184c24.667 0 47.5 2.83301 68.5 8.5s39 14 54 25s26.667 25 35 42s12.5 36.5 12.5 58.5
c0 24.667 -5.16699 45 -15.5 61s-24.833 29.333 -43.5 40s-41.167 19.5 -67.5 26.5s-55.5 14.167 -87.5 21.5c-31.333 6.66699 -61.166 14.5 -89.499 23.5s-53.166 20.833 -74.499 35.5s-38.333 33.167 -51 55.5s-19 50.5 -19 84.5c0 29.333 5.83301 55.666 17.5 78.999
s28.167 43.166 49.5 59.499s47 28.833 77 37.5s63 13 99 13c44.667 0 83.167 -5.5 115.5 -16.5s59.166 -26.167 80.499 -45.5s38 -42.833 50 -70.5s20.333 -57.834 25 -90.501h-85c-6.66699 51.333 -25.834 89.666 -57.501 114.999s-73.834 38 -126.501 38
c-48.667 0 -87.667 -9.83301 -117 -29.5s-44 -48.167 -44 -85.5c0 -20 4.66699 -36.833 14 -50.5s22.333 -25.334 39 -35.001s36.5 -17.5 59.5 -23.5s47.833 -11.667 74.5 -17c34.667 -7.33301 68 -15.5 100 -24.5s60.333 -21.5 85 -37.5s44.334 -36.833 59.001 -62.5
s22 -58.5 22 -98.5c0 -32 -5.83301 -60.333 -17.5 -85s-27.834 -45.834 -48.501 -63.501s-45.667 -31.5 -75 -41.5s-61.333 -16 -96 -18l-43 -36v-2c9.33301 1.33301 19.333 1.33301 30 0s20.667 -4.5 30 -9.5s17 -12 23 -21s9 -20.167 9 -33.5
c0 -24 -9.66699 -42.667 -29 -56s-44.333 -20 -75 -20z" />
    <glyph glyph-name="scedilla" unicode="&#x15f;" horiz-adv-x="478" 
d="M225 -191c-24.667 0 -45.6719 2.83398 -63.0049 8.50098s-32 12.5 -44 20.5l16 29c10.667 -4.66699 22.167 -8.33398 34.5 -11.001s24.833 -4 37.5 -4c16.667 0 30.5 2.5 41.5 7.5s16.5 13.167 16.5 24.5c0 18.667 -12.667 28 -38 28c-9.33301 0 -17 -0.666992 -23 -2
s-12 -3 -18 -5l-16 24l56 57c-63.333 3.33301 -112.166 20.833 -146.499 52.5s-53.166 74.834 -56.499 129.501h83c2.66699 -22.667 8.33398 -41.334 17.001 -56.001s19.5 -26.334 32.5 -35.001s27.833 -14.834 44.5 -18.501s34.667 -5.5 54 -5.5
c42.667 0 73.334 8.16699 92.001 24.5s28 36.5 28 60.5c0 14.667 -2.5 26.834 -7.5 36.501s-13 17.834 -24 24.501s-25 12.334 -42 17.001s-37.5 9.66699 -61.5 15c-25.333 5.33301 -49.666 11 -72.999 17s-43.833 14.5 -61.5 25.5s-31.834 25.5 -42.501 43.5s-16 41 -16 69
c0 43.333 15.833 77.833 47.5 103.5s77.834 38.5 138.501 38.5c64.667 0 113.167 -14.333 145.5 -43s51.5 -68.334 57.5 -119.001h-83c-4 34 -15.667 58.833 -35 74.5s-48.333 23.5 -87 23.5c-37.333 0 -64 -7.16699 -80 -21.5s-24 -31.833 -24 -52.5c0 -14 3 -25.5 9 -34.5
s15 -16.5 27 -22.5s26.667 -11 44 -15s37 -8.33301 59 -13c26 -5.33301 50.5 -11.166 73.5 -17.499s43.333 -15.333 61 -27s31.5 -26.834 41.5 -45.501s15 -43 15 -73c0 -48 -16.333 -85 -49 -111s-75 -41 -127 -45l-42 -35v-2c9.33301 1.33301 19.333 1.33301 30 0
s20.667 -4.5 30 -9.5s17 -12 23 -21s9 -20.167 9 -33.5c0 -24 -9.66699 -42.667 -29 -56s-44.333 -20 -75 -20z" />
    <glyph glyph-name="Scaron" unicode="&#x160;" horiz-adv-x="626" 
d="M327 -14c-50 0 -93.667 6.50488 -131 19.5049s-68.5 31 -93.5 54s-44.167 50.167 -57.5 81.5s-21 65 -23 101h88c12 -122.667 85.667 -184 221 -184c24.667 0 47.5 2.83301 68.5 8.5s39 14 54 25s26.667 25 35 42s12.5 36.5 12.5 58.5c0 24.667 -5.16699 45 -15.5 61
s-24.833 29.333 -43.5 40s-41.167 19.5 -67.5 26.5s-55.5 14.167 -87.5 21.5c-31.333 6.66699 -61.166 14.5 -89.499 23.5s-53.166 20.833 -74.499 35.5s-38.333 33.167 -51 55.5s-19 50.5 -19 84.5c0 29.333 5.83301 55.666 17.5 78.999s28.167 43.166 49.5 59.499
s47 28.833 77 37.5s63 13 99 13c44.667 0 83.167 -5.5 115.5 -16.5s59.166 -26.167 80.499 -45.5s38 -42.833 50 -70.5s20.333 -57.834 25 -90.501h-85c-6.66699 51.333 -25.834 89.666 -57.501 114.999s-73.834 38 -126.501 38c-48.667 0 -87.667 -9.83301 -117 -29.5
s-44 -48.167 -44 -85.5c0 -20 4.66699 -36.833 14 -50.5s22.333 -25.334 39 -35.001s36.5 -17.5 59.5 -23.5s47.833 -11.667 74.5 -17c34.667 -7.33301 68 -15.5 100 -24.5s60.333 -21.5 85 -37.5s44.334 -36.833 59.001 -62.5s22 -58.5 22 -98.5
c0 -33.333 -6.5 -63 -19.5 -89s-31.167 -47.833 -54.5 -65.5s-51 -31.167 -83 -40.5s-67.333 -14 -106 -14zM167 863.005h87l49 -63h2l51 63h85l-93 -106h-92z" />
    <glyph glyph-name="scaron" unicode="&#x161;" horiz-adv-x="478" 
d="M251 -15c-71.333 0 -126.336 15.833 -165.003 47.5s-60 76.834 -64 135.501h83c2.66699 -22.667 8.33398 -41.334 17.001 -56.001s19.5 -26.334 32.5 -35.001s27.833 -14.834 44.5 -18.501s34.667 -5.5 54 -5.5c42.667 0 73.334 8.16699 92.001 24.5s28 36.5 28 60.5
c0 14.667 -2.5 26.834 -7.5 36.501s-13 17.834 -24 24.501s-25 12.334 -42 17.001s-37.5 9.66699 -61.5 15c-25.333 5.33301 -49.666 11 -72.999 17s-43.833 14.5 -61.5 25.5s-31.834 25.5 -42.501 43.5s-16 41 -16 69c0 43.333 15.833 77.833 47.5 103.5
s77.834 38.5 138.501 38.5c64.667 0 113.167 -14.333 145.5 -43s51.5 -68.334 57.5 -119.001h-83c-4 34 -15.667 58.833 -35 74.5s-48.333 23.5 -87 23.5c-37.333 0 -64 -7.16699 -80 -21.5s-24 -31.833 -24 -52.5c0 -14 3 -25.5 9 -34.5s15 -16.5 27 -22.5
s26.667 -11 44 -15s37 -8.33301 59 -13c26 -5.33301 50.5 -11.166 73.5 -17.499s43.333 -15.333 61 -27s31.5 -26.834 41.5 -45.501s15 -43 15 -73c0 -26 -5 -48.833 -15 -68.5s-24 -36 -42 -49s-39.5 -22.833 -64.5 -29.5s-52.5 -10 -82.5 -10zM100.997 708h87l49 -63h2
l51 63h85l-93 -106h-92z" />
    <glyph glyph-name="uni0162" unicode="&#x162;" horiz-adv-x="610" 
d="M22 715h566v-79h-238v-636h-90v636h-238v79zM262 -190c11.333 3.33301 20.833 8.83105 28.5 16.498s11.5 21.167 11.5 40.5h-39v89h85v-89c0 -33.333 -8.16699 -56.666 -24.5 -69.999s-36.833 -21.666 -61.5 -24.999v38z" />
    <glyph glyph-name="uni0163" unicode="&#x163;" horiz-adv-x="307" 
d="M22 517h74.999v163h81v-163h100v-66h-100v-336c0 -18 4.5 -30.5 13.5 -37.5s21.833 -10.5 38.5 -10.5c8 0 16 0.833008 24 2.5s14.333 3.16699 19 4.5h3v-70c-9.33301 -2 -19.5 -3.66699 -30.5 -5s-22.5 -2 -34.5 -2c-33.333 0 -60.666 7.5 -81.999 22.5
s-32 40.833 -32 77.5v354h-75v66zM131.999 -190c11.333 3.33301 20.833 8.83105 28.5 16.498s11.5 21.167 11.5 40.5h-39v89h85v-89c0 -33.333 -8.16699 -56.666 -24.5 -69.999s-36.833 -21.666 -61.5 -24.999v38z" />
    <glyph glyph-name="Tcaron" unicode="&#x164;" horiz-adv-x="610" 
d="M22 715h566v-79h-238v-636h-90v636h-238v79zM168 863h87l49 -63h2l51 63h85l-93 -106h-92z" />
    <glyph glyph-name="tcaron" unicode="&#x165;" horiz-adv-x="307" 
d="M22 517h74.999v163h81v-163h100v-66h-100v-336c0 -18 4.5 -30.5 13.5 -37.5s21.833 -10.5 38.5 -10.5c8 0 16 0.833008 24 2.5s14.333 3.16699 19 4.5h3v-70c-9.33301 -2 -19.5 -3.66699 -30.5 -5s-22.5 -2 -34.5 -2c-33.333 0 -60.666 7.5 -81.999 22.5
s-32 40.833 -32 77.5v354h-75v66zM324.999 643c0 -25.333 -7.83301 -44.667 -23.5 -58s-36.167 -21.333 -61.5 -24v38c26.667 6 40 20.667 40 44h-40v72h85v-72z" />
    <glyph glyph-name="Tbar" unicode="&#x166;" horiz-adv-x="610" 
d="M104 414h156v222h-238v79h566v-79h-238v-222h156v-68h-156v-346h-90v346h-156v68z" />
    <glyph glyph-name="tbar" unicode="&#x167;" horiz-adv-x="307" 
d="M22 367h74.999v84h-75v66h75v163h81v-163h100v-66h-100v-84h100v-66h-100v-186c0 -18 4.5 -30.5 13.5 -37.5s21.833 -10.5 38.5 -10.5c8 0 16 0.833008 24 2.5s14.333 3.16699 19 4.5h3v-70c-9.33301 -2 -19.5 -3.66699 -30.5 -5s-22.5 -2 -34.5 -2
c-33.333 0 -60.666 7.5 -81.999 22.5s-32 40.833 -32 77.5v204h-75v66z" />
    <glyph glyph-name="Utilde" unicode="&#x168;" horiz-adv-x="658" 
d="M329 -11c-39.333 0 -75.668 4.5 -109.001 13.5s-62.166 23.167 -86.499 42.5s-43.5 44.333 -57.5 75s-21 67.667 -21 111v484h90v-475c0 -61.333 16.333 -105.666 49 -132.999s78.667 -41 138 -41c56.667 0 101 13.667 133 41s48 71.666 48 132.999v475h90v-484
c0 -43.333 -7.16699 -80.333 -21.5 -111s-33.833 -55.667 -58.5 -75s-53.667 -33.5 -87 -42.5s-69 -13.5 -107 -13.5zM392.998 760c-12 0 -23.666 1.66602 -34.999 4.99902s-22.166 7 -32.499 11s-20 7.66699 -29 11s-16.833 5 -23.5 5
c-7.33301 0 -12.833 -2.66699 -16.5 -8s-5.83398 -12.666 -6.50098 -21.999h-60c2.66699 28.667 10.334 51.167 23.001 67.5s30.667 24.5 54 24.5c13.333 0 25.166 -1.66699 35.499 -5s20 -7 29 -11s17.667 -7.66699 26 -11s17.166 -5 26.499 -5s15.833 3 19.5 9
s6.16699 13 7.5 21h58c-1.33301 -25.333 -7.83301 -47 -19.5 -65s-30.5 -27 -56.5 -27z" />
    <glyph glyph-name="utilde" unicode="&#x169;" horiz-adv-x="520" 
d="M384 0l-0.00195312 71h-2c-18.667 -25.333 -39.834 -45.5 -63.501 -60.5s-54.5 -22.5 -92.5 -22.5c-53.333 0 -95.666 15 -126.999 45s-47 72 -47 126v358h81v-356c0 -34 10.167 -60.167 30.5 -78.5s48.833 -27.5 85.5 -27.5c20.667 0 39.334 3.66699 56.001 11
s30.834 17.5 42.501 30.5s20.667 28.167 27 45.5s9.5 36.333 9.5 57v318h81v-517h-81zM325.998 601c-12 0 -23.666 1.66602 -34.999 4.99902s-22.166 7 -32.499 11s-20 7.66699 -29 11s-16.833 5 -23.5 5c-7.33301 0 -12.833 -2.66699 -16.5 -8
s-5.83398 -12.666 -6.50098 -21.999h-60c2.66699 28.667 10.334 51.167 23.001 67.5s30.667 24.5 54 24.5c13.333 0 25.166 -1.66699 35.499 -5s20 -7 29 -11s17.667 -7.66699 26 -11s17.166 -5 26.499 -5s15.833 3 19.5 9s6.16699 13 7.5 21h58
c-1.33301 -25.333 -7.83301 -47 -19.5 -65s-30.5 -27 -56.5 -27z" />
    <glyph glyph-name="Umacron" unicode="&#x16a;" horiz-adv-x="658" 
d="M329 -11c-39.333 0 -75.668 4.5 -109.001 13.5s-62.166 23.167 -86.499 42.5s-43.5 44.333 -57.5 75s-21 67.667 -21 111v484h90v-475c0 -61.333 16.333 -105.666 49 -132.999s78.667 -41 138 -41c56.667 0 101 13.667 133 41s48 71.666 48 132.999v475h90v-484
c0 -43.333 -7.16699 -80.333 -21.5 -111s-33.833 -55.667 -58.5 -75s-53.667 -33.5 -87 -42.5s-69 -13.5 -107 -13.5zM199.998 827h258v-67h-258v67z" />
    <glyph glyph-name="umacron" unicode="&#x16b;" horiz-adv-x="520" 
d="M384 0l-0.00195312 71h-2c-18.667 -25.333 -39.834 -45.5 -63.501 -60.5s-54.5 -22.5 -92.5 -22.5c-53.333 0 -95.666 15 -126.999 45s-47 72 -47 126v358h81v-356c0 -34 10.167 -60.167 30.5 -78.5s48.833 -27.5 85.5 -27.5c20.667 0 39.334 3.66699 56.001 11
s30.834 17.5 42.501 30.5s20.667 28.167 27 45.5s9.5 36.333 9.5 57v318h81v-517h-81zM132.998 689h258v-67h-258v67z" />
    <glyph glyph-name="Ubreve" unicode="&#x16c;" horiz-adv-x="658" 
d="M329 -11c-39.333 0 -75.668 4.5 -109.001 13.5s-62.166 23.167 -86.499 42.5s-43.5 44.333 -57.5 75s-21 67.667 -21 111v484h90v-475c0 -61.333 16.333 -105.666 49 -132.999s78.667 -41 138 -41c56.667 0 101 13.667 133 41s48 71.666 48 132.999v475h90v-484
c0 -43.333 -7.16699 -80.333 -21.5 -111s-33.833 -55.667 -58.5 -75s-53.667 -33.5 -87 -42.5s-69 -13.5 -107 -13.5zM328.998 759c-17.333 0 -33.3311 2.66406 -47.998 7.99707s-27.834 12.833 -39.501 22.5s-21 21.334 -28 35.001s-10.833 28.834 -11.5 45.501h60
c3.33301 -15.333 10.166 -27.333 20.499 -36s25.5 -13 45.5 -13s35.833 4.33301 47.5 13s19.167 20.667 22.5 36h58c-0.666992 -15.333 -4.16699 -29.666 -10.5 -42.999s-15 -25 -26 -35s-24.167 -18 -39.5 -24s-32.333 -9 -51 -9z" />
    <glyph glyph-name="ubreve" unicode="&#x16d;" horiz-adv-x="520" 
d="M384 0l-0.00195312 71h-2c-18.667 -25.333 -39.834 -45.5 -63.501 -60.5s-54.5 -22.5 -92.5 -22.5c-53.333 0 -95.666 15 -126.999 45s-47 72 -47 126v358h81v-356c0 -34 10.167 -60.167 30.5 -78.5s48.833 -27.5 85.5 -27.5c20.667 0 39.334 3.66699 56.001 11
s30.834 17.5 42.501 30.5s20.667 28.167 27 45.5s9.5 36.333 9.5 57v318h81v-517h-81zM261.998 604c-17.333 0 -33.3311 2.66406 -47.998 7.99707s-27.834 12.833 -39.501 22.5s-21 21.334 -28 35.001s-10.833 28.834 -11.5 45.501h60
c3.33301 -15.333 10.166 -27.333 20.499 -36s25.5 -13 45.5 -13s35.833 4.33301 47.5 13s19.167 20.667 22.5 36h58c-0.666992 -15.333 -4.16699 -29.666 -10.5 -42.999s-15 -25 -26 -35s-24.167 -18 -39.5 -24s-32.333 -9 -51 -9z" />
    <glyph glyph-name="Uring" unicode="&#x16e;" horiz-adv-x="658" 
d="M329 -11c-39.333 0 -75.668 4.5 -109.001 13.5s-62.166 23.167 -86.499 42.5s-43.5 44.333 -57.5 75s-21 67.667 -21 111v484h90v-475c0 -61.333 16.333 -105.666 49 -132.999s78.667 -41 138 -41c56.667 0 101 13.667 133 41s48 71.666 48 132.999v475h90v-484
c0 -43.333 -7.16699 -80.333 -21.5 -111s-33.833 -55.667 -58.5 -75s-53.667 -33.5 -87 -42.5s-69 -13.5 -107 -13.5zM328.998 746c-12 0 -23.333 2.16699 -34 6.5s-19.834 10.333 -27.501 18s-13.834 16.667 -18.501 27s-7 21.5 -7 33.5s2.33301 23.167 7 33.5
s10.834 19.333 18.501 27s16.834 13.667 27.501 18s22 6.5 34 6.5s23.333 -2.16699 34 -6.5s19.834 -10.333 27.501 -18s13.834 -16.667 18.501 -27s7 -21.5 7 -33.5s-2.33301 -23.167 -7 -33.5s-10.834 -19.333 -18.501 -27s-16.834 -13.667 -27.501 -18s-22 -6.5 -34 -6.5
zM328.998 781c14 0 25.333 4.83301 34 14.5s13 21.5 13 35.5s-4.33301 25.833 -13 35.5s-20 14.5 -34 14.5s-25.333 -4.83301 -34 -14.5s-13 -21.5 -13 -35.5s4.33301 -25.833 13 -35.5s20 -14.5 34 -14.5z" />
    <glyph glyph-name="uring" unicode="&#x16f;" horiz-adv-x="520" 
d="M384 0l-0.00195312 71h-2c-18.667 -25.333 -39.834 -45.5 -63.501 -60.5s-54.5 -22.5 -92.5 -22.5c-53.333 0 -95.666 15 -126.999 45s-47 72 -47 126v358h81v-356c0 -34 10.167 -60.167 30.5 -78.5s48.833 -27.5 85.5 -27.5c20.667 0 39.334 3.66699 56.001 11
s30.834 17.5 42.501 30.5s20.667 28.167 27 45.5s9.5 36.333 9.5 57v318h81v-517h-81zM261.998 559c-12 0 -23.333 2.16699 -34 6.5s-19.834 10.333 -27.501 18s-13.834 16.667 -18.501 27s-7 21.5 -7 33.5s2.33301 23.167 7 33.5s10.834 19.333 18.501 27
s16.834 13.667 27.501 18s22 6.5 34 6.5s23.333 -2.16699 34 -6.5s19.834 -10.333 27.501 -18s13.834 -16.667 18.501 -27s7 -21.5 7 -33.5s-2.33301 -23.167 -7 -33.5s-10.834 -19.333 -18.501 -27s-16.834 -13.667 -27.501 -18s-22 -6.5 -34 -6.5zM261.998 594
c14 0 25.333 4.83301 34 14.5s13 21.5 13 35.5s-4.33301 25.833 -13 35.5s-20 14.5 -34 14.5s-25.333 -4.83301 -34 -14.5s-13 -21.5 -13 -35.5s4.33301 -25.833 13 -35.5s20 -14.5 34 -14.5z" />
    <glyph glyph-name="Uhungarumlaut" unicode="&#x170;" horiz-adv-x="658" 
d="M329 -11c-39.333 0 -75.668 4.5 -109.001 13.5s-62.166 23.167 -86.499 42.5s-43.5 44.333 -57.5 75s-21 67.667 -21 111v484h90v-475c0 -61.333 16.333 -105.666 49 -132.999s78.667 -41 138 -41c56.667 0 101 13.667 133 41s48 71.666 48 132.999v475h90v-484
c0 -43.333 -7.16699 -80.333 -21.5 -111s-33.833 -55.667 -58.5 -75s-53.667 -33.5 -87 -42.5s-69 -13.5 -107 -13.5zM402.998 880h82l-52 -127h-61zM272.998 880h82l-52 -127h-61z" />
    <glyph glyph-name="uhungarumlaut" unicode="&#x171;" horiz-adv-x="520" 
d="M384 0l-0.00195312 71h-2c-18.667 -25.333 -39.834 -45.5 -63.501 -60.5s-54.5 -22.5 -92.5 -22.5c-53.333 0 -95.666 15 -126.999 45s-47 72 -47 126v358h81v-356c0 -34 10.167 -60.167 30.5 -78.5s48.833 -27.5 85.5 -27.5c20.667 0 39.334 3.66699 56.001 11
s30.834 17.5 42.501 30.5s20.667 28.167 27 45.5s9.5 36.333 9.5 57v318h81v-517h-81zM330.998 725h82l-52 -127h-61zM200.998 725h82l-52 -127h-61z" />
    <glyph glyph-name="Uogonek" unicode="&#x172;" horiz-adv-x="658" 
d="M329 -11c-39.333 0 -75.668 4.5 -109.001 13.5s-62.166 23.167 -86.499 42.5s-43.5 44.333 -57.5 75s-21 67.667 -21 111v484h90v-475c0 -61.333 16.333 -105.666 49 -132.999s78.667 -41 138 -41c56.667 0 101 13.667 133 41s48 71.666 48 132.999v475h90v-484
c0 -55.333 -11.333 -99.833 -34 -133.5s-53.334 -60.167 -92.001 -79.5c-20 -10 -37.333 -18.833 -52 -26.5s-26.667 -15.167 -36 -22.5s-16.166 -14.833 -20.499 -22.5s-6.5 -16.5 -6.5 -26.5c0 -22.667 13.333 -34 40 -34c14 0 26.333 2.33301 37 7h3v-56
c-6.66699 -2 -14.5 -4 -23.5 -6s-19.5 -3 -31.5 -3c-33.333 0 -58.5 7.33301 -75.5 22s-25.5 33.667 -25.5 57c0 17.333 4.66699 33 14 47s20 25.667 32 35h-3v0z" />
    <glyph glyph-name="uogonek" unicode="&#x173;" horiz-adv-x="520" 
d="M425 -172c-33.333 0 -58.5029 7.33301 -75.5029 22s-25.5 33.667 -25.5 57c0 20 6.33301 38.167 19 54.5s26.334 29.166 41.001 38.499v71h-2c-18.667 -25.333 -39.834 -45.5 -63.501 -60.5s-54.5 -22.5 -92.5 -22.5c-53.333 0 -95.666 15 -126.999 45s-47 72 -47 126
v358h81v-356c0 -34 10.167 -60.167 30.5 -78.5s48.833 -27.5 85.5 -27.5c20.667 0 39.334 3.66699 56.001 11s30.834 17.5 42.501 30.5s20.667 28.167 27 45.5s9.5 36.333 9.5 57v318h81v-513c-18.667 -13.333 -34.167 -27.166 -46.5 -41.499s-18.5 -28.5 -18.5 -42.5
c0 -22.667 13.333 -34 40 -34c14 0 26.333 2.33301 37 7h3v-56c-6.66699 -2 -14.5 -4 -23.5 -6s-19.5 -3 -31.5 -3z" />
    <glyph glyph-name="Wcircumflex" unicode="&#x174;" horiz-adv-x="914" 
d="M14 715l94.0039 -0.000976562l113 -465c3.33301 -12 6.5 -25.167 9.5 -39.5s5.83301 -27.5 8.5 -39.5c2.66699 -14 5.66699 -28 9 -42h2l10 44c3.33301 12.667 6.66602 26 9.99902 40s6.66602 27 9.99902 39l129 463h97l125 -463c3.33301 -12 6.5 -25.167 9.5 -39.5
s6.16699 -27.833 9.5 -40.5c3.33301 -14.667 6.66602 -29 9.99902 -43h2l10 44c3.33301 12.667 6.33301 25.834 9 39.501s5.66699 26.167 9 37.5l119 465h91l-199 -715h-86l-131 504c-3.33301 10.667 -6.33301 22.167 -9 34.5s-5.33398 24.166 -8.00098 35.499
c-2.66699 12.667 -5.66699 25.667 -9 39h-2c-3.33301 -13.333 -6.33301 -26.333 -9 -39c-2.66699 -11.333 -5.5 -23.166 -8.5 -35.499s-6.16699 -23.833 -9.5 -34.5l-140 -504h-90zM413.004 862.999h92l89 -106h-87l-49 63h-2l-51 -63h-85z" />
    <glyph glyph-name="wcircumflex" unicode="&#x175;" horiz-adv-x="734" 
d="M4 517l87.001 0.000976562l91 -319c3.33301 -11.333 6.33301 -23.333 9 -36s5.66699 -24.667 9 -36c2.66699 -12.667 6 -25.667 10 -39h2c3.33301 13.333 6.33301 26.333 9 39c2.66699 11.333 5.33398 23.166 8.00098 35.499s5.66699 23.833 9 34.5l87 321h85l84 -321
c2.66699 -10.667 5.5 -22.167 8.5 -34.5s5.83301 -24.166 8.5 -35.499c2.66699 -12.667 5.33398 -25.667 8.00098 -39h2c3.33301 13.333 6.66602 26.333 9.99902 39c3.33301 11.333 6.5 23.333 9.5 36s6.16699 24.667 9.5 36l96 319h84l-169 -517h-83l-86 313
c-3.33301 10.667 -6.33301 22.167 -9 34.5s-5.33398 24.166 -8.00098 35.499l-8 38h-2c-3.33301 -12.667 -6.33301 -25.334 -9 -38.001c-2.66699 -11.333 -5.33398 -23.166 -8.00098 -35.499s-5.66699 -23.833 -9 -34.5l-87 -313h-84zM323.001 708.001h92l89 -106h-87
l-49 63h-2l-51 -63h-85z" />
    <glyph glyph-name="Ycircumflex" unicode="&#x176;" horiz-adv-x="631" 
d="M269 303l-259 412h100l205 -340h2l208 340h96l-262 -414v-301h-90v303zM271 863h92l89 -106h-87l-49 63h-2l-51 -63h-85z" />
    <glyph glyph-name="ycircumflex" unicode="&#x177;" horiz-adv-x="489" 
d="M121 -171c-15.333 0 -28.5 0.669922 -39.5 2.00293s-22.167 4.33301 -33.5 9v72h4c5.33301 -3.33301 12.5 -6 21.5 -8s20.167 -3 33.5 -3c17.333 0 32 4.16699 44 12.5s23 25.166 33 50.499l20 51l-202 502h88l122 -322c4 -11.333 8 -22.833 12 -34.5
s7.66699 -22.5 11 -32.5c4 -12 8 -23.333 12 -34h2c3.33301 10.667 7 22 11 34c3.33301 10 7 20.833 11 32.5s8 23.167 12 34.5l118 322h86l-221 -559c-10.667 -26.667 -21.167 -48.334 -31.5 -65.001s-21.333 -29.834 -33 -39.501s-24 -16.167 -37 -19.5s-27.5 -5 -43.5 -5
zM205 708.003h92l89 -106h-87l-49 63h-2l-51 -63h-85z" />
    <glyph glyph-name="Ydieresis" unicode="&#x178;" horiz-adv-x="631" 
d="M269 303l-259 412h100l205 -340h2l208 340h96l-262 -414v-301h-90v303zM358 855h78v-95h-78v95zM194 855h78v-95h-78v95z" />
    <glyph glyph-name="Zacute" unicode="&#x179;" horiz-adv-x="622" 
d="M30 86l428 550v3h-403v76h514v-70l-434 -561v-3h451v-81h-556v86zM322 874h100l-82 -121h-69z" />
    <glyph glyph-name="zacute" unicode="&#x17a;" horiz-adv-x="471" 
d="M34 64l288 379v3h-271v71h384v-48l-297 -392v-3h308v-74h-412v64zM262 725h100l-82 -127h-69z" />
    <glyph glyph-name="Zdotaccent" unicode="&#x17b;" horiz-adv-x="622" 
d="M30 86l428 550v3h-403v76h514v-70l-434 -561v-3h451v-81h-556v86zM269 855h78v-95h-78v95z" />
    <glyph glyph-name="zdotaccent" unicode="&#x17c;" horiz-adv-x="471" 
d="M34 64l288 379v3h-271v71h384v-48l-297 -392v-3h308v-74h-412v64zM203 715h81v-100h-81v100z" />
    <glyph glyph-name="Zcaron" unicode="&#x17d;" horiz-adv-x="622" 
d="M30 86l428 550v3h-403v76h514v-70l-434 -561v-3h451v-81h-556v86zM171 863h87l49 -63h2l51 63h85l-93 -106h-92z" />
    <glyph glyph-name="zcaron" unicode="&#x17e;" horiz-adv-x="471" 
d="M34 64l288 379v3h-271v71h384v-48l-297 -392v-3h308v-74h-412v64zM106 708h87l49 -63h2l51 63h85l-93 -106h-92z" />
    <glyph glyph-name="florin" unicode="&#x192;" horiz-adv-x="345" 
d="M32 406h91l25 170c7.33301 50 26.5 84.5 57.5 103.5s73.833 24.833 128.5 17.5v-69c-34 3.33301 -59.167 0.666016 -75.5 -8.00098s-26.5 -27 -30.5 -55l-23 -159h105v-64h-114l-53 -375c-7.33301 -49.333 -24.333 -82.666 -51 -99.999s-65.667 -22.666 -117 -15.999v67
c23.333 -2 42.833 0.166992 58.5 6.5s25.167 22.166 28.5 47.499l52 370h-82v64z" />
    <glyph glyph-name="AEacute" unicode="&#x1fc;" horiz-adv-x="946" 
d="M583 874h100l-82 -121h-69zM896 636h-371v-226h333v-76h-333v-251h383v-83h-473v218h-253l-77 -218h-91l260 715h622v-79zM208 291h227v345h-104z" />
    <glyph glyph-name="aeacute" unicode="&#x1fd;" horiz-adv-x="841" 
d="M446 725h100l-82 -127h-69zM202 -10c-24.667 0 -47.833 3.00488 -69.5 9.00488s-40.5 15.167 -56.5 27.5s-28.667 27.666 -38 45.999s-14 39.833 -14 64.5c0 30 5.66699 54.667 17 74s27.166 35 47.499 47s44.333 20.833 72 26.5s57.834 10.167 90.501 13.5
c40 4 70.333 10.833 91 20.5s31 28.5 31 56.5c0 29.333 -9.5 51.833 -28.5 67.5s-47.167 23.5 -84.5 23.5c-82.667 0 -127 -38 -133 -114h-78c1.33301 24 6.66602 46.667 15.999 68s22.666 40 39.999 56s38.833 28.5 64.5 37.5s55.5 13.5 89.5 13.5
c40 0 74.5 -6.16699 103.5 -18.5s50.167 -33.166 63.5 -62.499c18 25.333 40.833 45.666 68.5 60.999s60.5 23 98.5 23c37.333 0 70 -7.33301 98 -22s51.333 -34.834 70 -60.501s32.667 -56.334 42 -92.001s14 -74.5 14 -116.5h-368c1.33301 -26 5.33301 -50.333 12 -73
s16.334 -42.334 29.001 -59.001s28.334 -29.667 47.001 -39s41 -14 67 -14c34 0 61.167 9.5 81.5 28.5s34.166 44.833 41.499 77.5h79c-9.33301 -54.667 -31.833 -97.334 -67.5 -128.001s-80.5 -46 -134.5 -46c-45.333 0 -83.666 9.5 -114.999 28.5s-56.333 44.5 -75 76.5
h-2c-15.333 -22 -30.833 -39.667 -46.5 -53s-32 -23.5 -49 -30.5s-34.833 -11.667 -53.5 -14s-39 -3.5 -61 -3.5zM218.001 52.0049c26.667 0 49.833 4.50293 69.5 13.5029s36 20.167 49 33.5s22.5 28.166 28.5 44.499s9 32.166 9 47.499v79
c-13.333 -7.33301 -31 -13.833 -53 -19.5s-44.333 -9.83398 -67 -12.501c-22 -2.66699 -42 -5.83398 -60 -9.50098s-33.167 -9 -45.5 -16s-21.833 -16.333 -28.5 -28s-10 -26.834 -10 -45.501c0 -17.333 3.16699 -31.666 9.5 -42.999s14.5 -20.166 24.5 -26.499
s21.5 -10.833 34.5 -13.5s26.167 -4 39.5 -4zM593 466.008c-22 0 -41.332 -4.16797 -57.999 -12.501s-30.834 -20 -42.501 -35s-20.834 -32.667 -27.501 -53s-11.334 -42.166 -14.001 -65.499h279c-1.33301 52 -14.166 92.667 -38.499 122s-57.166 44 -98.499 44z" />
    <glyph glyph-name="Oslashacute" unicode="&#x1fe;" horiz-adv-x="780" 
d="M404 874h100l-82 -121h-69zM38 19l82 87.999c-26 32.667 -45.833 70.167 -59.5 112.5s-20.5 88.5 -20.5 138.5c0 53.333 8.16699 102.833 24.5 148.5s39.5 85.167 69.5 118.5s66.667 59.333 110 78s92 28 146 28c48 0 91.667 -7.5 131 -22.5s74 -36.167 104 -63.5l79 84
l38 -35l-81 -87c25.333 -32.667 44.833 -70 58.5 -112s20.5 -87.667 20.5 -137c0 -53.333 -8.16699 -102.833 -24.5 -148.5s-39.5 -85.167 -69.5 -118.5s-66.667 -59.333 -110 -78s-92 -28 -146 -28c-48 0 -91.5 7.33301 -130.5 22s-73.5 35.334 -103.5 62.001l-80 -85z
M132 357.999c0 -73.333 16.333 -135.666 49 -186.999l387 413c-21.333 21.333 -46.833 38.166 -76.5 50.499s-63.5 18.5 -101.5 18.5c-42 0 -79 -7.5 -111 -22.5s-59 -35.667 -81 -62s-38.5 -57.5 -49.5 -93.5s-16.5 -75 -16.5 -117zM390 63.999
c42 0 79.001 7.5 111.001 22.5s59 35.5 81 61.5s38.5 57 49.5 93s16.5 75 16.5 117c0 36 -4 69.5 -12 100.5s-20 59.167 -36 84.5l-387 -412c21.333 -21.333 46.666 -37.833 75.999 -49.5s63 -17.5 101 -17.5z" />
    <glyph glyph-name="oslashacute" unicode="&#x1ff;" horiz-adv-x="551" 
d="M294 725h100l-82 -127h-69zM22 14l60 65.002c-18 24 -31.833 51.167 -41.5 81.5s-14.5 62.833 -14.5 97.5c0 37.333 5.83301 72.5 17.5 105.5s28.334 61.833 50.001 86.5s47.834 44.167 78.501 58.5s65.334 21.5 104.001 21.5c34 0 64.667 -5.5 92 -16.5
s51.666 -26.167 72.999 -45.5l57 62l30 -28l-59 -64c18 -24 31.833 -51.333 41.5 -82s14.5 -63.334 14.5 -98.001c0 -37.333 -5.66699 -72.5 -17 -105.5s-27.833 -61.833 -49.5 -86.5s-47.834 -44.167 -78.501 -58.5s-65.334 -21.5 -104.001 -21.5
c-34 0 -64.833 5.66699 -92.5 17s-52.167 26.666 -73.5 45.999l-58 -63zM276 54.002c27.333 0 51.334 5.33203 72.001 15.999s38 25.167 52 43.5s24.5 39.833 31.5 64.5s10.5 51.334 10.5 80.001c0 46.667 -9 87 -27 121l-256 -276c14 -15.333 30.667 -27.333 50 -36
s41.666 -13 66.999 -13zM109.001 258.001c0 -46.667 8.99902 -86.9971 26.999 -120.997l255 277c-13.333 15.333 -29.666 27.333 -48.999 36s-41.333 13 -66 13c-27.333 0 -51.5 -5.33301 -72.5 -16s-38.5 -25.334 -52.5 -44.001s-24.5 -40.334 -31.5 -65.001
s-10.5 -51.334 -10.5 -80.001z" />
    <glyph glyph-name="uni0218" unicode="&#x218;" horiz-adv-x="626" 
d="M327 -14c-50 0 -93.667 6.50488 -131 19.5049s-68.5 31 -93.5 54s-44.167 50.167 -57.5 81.5s-21 65 -23 101h88c12 -122.667 85.667 -184 221 -184c24.667 0 47.5 2.83301 68.5 8.5s39 14 54 25s26.667 25 35 42s12.5 36.5 12.5 58.5c0 24.667 -5.16699 45 -15.5 61
s-24.833 29.333 -43.5 40s-41.167 19.5 -67.5 26.5s-55.5 14.167 -87.5 21.5c-31.333 6.66699 -61.166 14.5 -89.499 23.5s-53.166 20.833 -74.499 35.5s-38.333 33.167 -51 55.5s-19 50.5 -19 84.5c0 29.333 5.83301 55.666 17.5 78.999s28.167 43.166 49.5 59.499
s47 28.833 77 37.5s63 13 99 13c44.667 0 83.167 -5.5 115.5 -16.5s59.166 -26.167 80.499 -45.5s38 -42.833 50 -70.5s20.333 -57.834 25 -90.501h-85c-6.66699 51.333 -25.834 89.666 -57.501 114.999s-73.834 38 -126.501 38c-48.667 0 -87.667 -9.83301 -117 -29.5
s-44 -48.167 -44 -85.5c0 -20 4.66699 -36.833 14 -50.5s22.333 -25.334 39 -35.001s36.5 -17.5 59.5 -23.5s47.833 -11.667 74.5 -17c34.667 -7.33301 68 -15.5 100 -24.5s60.333 -21.5 85 -37.5s44.334 -36.833 59.001 -62.5s22 -58.5 22 -98.5
c0 -33.333 -6.5 -63 -19.5 -89s-31.167 -47.833 -54.5 -65.5s-51 -31.167 -83 -40.5s-67.333 -14 -106 -14zM261 -189.995c11.333 3.33301 20.833 8.83105 28.5 16.498s11.5 21.167 11.5 40.5h-39v89h85v-89c0 -33.333 -8.16699 -56.666 -24.5 -69.999
s-36.833 -21.666 -61.5 -24.999v38z" />
    <glyph glyph-name="uni0219" unicode="&#x219;" horiz-adv-x="478" 
d="M251 -15c-71.333 0 -126.336 15.833 -165.003 47.5s-60 76.834 -64 135.501h83c2.66699 -22.667 8.33398 -41.334 17.001 -56.001s19.5 -26.334 32.5 -35.001s27.833 -14.834 44.5 -18.501s34.667 -5.5 54 -5.5c42.667 0 73.334 8.16699 92.001 24.5s28 36.5 28 60.5
c0 14.667 -2.5 26.834 -7.5 36.501s-13 17.834 -24 24.501s-25 12.334 -42 17.001s-37.5 9.66699 -61.5 15c-25.333 5.33301 -49.666 11 -72.999 17s-43.833 14.5 -61.5 25.5s-31.834 25.5 -42.501 43.5s-16 41 -16 69c0 43.333 15.833 77.833 47.5 103.5
s77.834 38.5 138.501 38.5c64.667 0 113.167 -14.333 145.5 -43s51.5 -68.334 57.5 -119.001h-83c-4 34 -15.667 58.833 -35 74.5s-48.333 23.5 -87 23.5c-37.333 0 -64 -7.16699 -80 -21.5s-24 -31.833 -24 -52.5c0 -14 3 -25.5 9 -34.5s15 -16.5 27 -22.5
s26.667 -11 44 -15s37 -8.33301 59 -13c26 -5.33301 50.5 -11.166 73.5 -17.499s43.333 -15.333 61 -27s31.5 -26.834 41.5 -45.501s15 -43 15 -73c0 -26 -5 -48.833 -15 -68.5s-24 -36 -42 -49s-39.5 -22.833 -64.5 -29.5s-52.5 -10 -82.5 -10zM194.997 -190
c11.333 3.33301 20.833 8.83105 28.5 16.498s11.5 21.167 11.5 40.5h-39v89h85v-89c0 -33.333 -8.16699 -56.666 -24.5 -69.999s-36.833 -21.666 -61.5 -24.999v38z" />
    <glyph glyph-name="uni021A" unicode="&#x21a;" horiz-adv-x="610" 
d="M22 715h566v-79h-238v-636h-90v636h-238v79zM262 -190c11.333 3.33301 20.833 8.83105 28.5 16.498s11.5 21.167 11.5 40.5h-39v89h85v-89c0 -33.333 -8.16699 -56.666 -24.5 -69.999s-36.833 -21.666 -61.5 -24.999v38z" />
    <glyph glyph-name="uni021B" unicode="&#x21b;" horiz-adv-x="307" 
d="M22 517h74.999v163h81v-163h100v-66h-100v-336c0 -18 4.5 -30.5 13.5 -37.5s21.833 -10.5 38.5 -10.5c8 0 16 0.833008 24 2.5s14.333 3.16699 19 4.5h3v-70c-9.33301 -2 -19.5 -3.66699 -30.5 -5s-22.5 -2 -34.5 -2c-33.333 0 -60.666 7.5 -81.999 22.5
s-32 40.833 -32 77.5v354h-75v66zM131.999 -190c11.333 3.33301 20.833 8.83105 28.5 16.498s11.5 21.167 11.5 40.5h-39v89h85v-89c0 -33.333 -8.16699 -56.666 -24.5 -69.999s-36.833 -21.666 -61.5 -24.999v38z" />
    <glyph glyph-name="uni0237" unicode="&#x237;" horiz-adv-x="191" 
d="M17 -147c-9.33301 0 -17.5 0.333008 -24.5 1s-13.833 1.66699 -20.5 3v66h2c10 -2 19.333 -3 28 -3c35.333 0 53 16.667 53 50v547h81v-551c0 -24 -3.16699 -43.333 -9.5 -58s-14.833 -26.167 -25.5 -34.5s-23.167 -13.833 -37.5 -16.5s-29.833 -4 -46.5 -4z" />
    <glyph glyph-name="circumflex" unicode="&#x2c6;" 
d="M206 708h92l89 -106h-87l-49 63h-2l-51 -63h-85z" />
    <glyph glyph-name="caron" unicode="&#x2c7;" 
d="M113 708h87l49 -63h2l51 63h85l-93 -106h-92z" />
    <glyph glyph-name="uni02C9" unicode="&#x2c9;" 
d="M121 689h258v-67h-258v67z" />
    <glyph glyph-name="breve" unicode="&#x2d8;" 
d="M250 604c-17.333 0 -33.3311 2.66406 -47.998 7.99707s-27.834 12.833 -39.501 22.5s-21 21.334 -28 35.001s-10.833 28.834 -11.5 45.501h60c3.33301 -15.333 10.166 -27.333 20.499 -36s25.5 -13 45.5 -13s35.833 4.33301 47.5 13s19.167 20.667 22.5 36h58
c-0.666992 -15.333 -4.16699 -29.666 -10.5 -42.999s-15 -25 -26 -35s-24.167 -18 -39.5 -24s-32.333 -9 -51 -9z" />
    <glyph glyph-name="dotaccent" unicode="&#x2d9;" 
d="M209 715h81v-100h-81v100z" />
    </font>
</defs>
</svg>
